<svg width="22" height="15" viewBox="0 0 22 15" fill="none" xmlns="http://www.w3.org/2000/svg">
<g clip-path="url(#clip0)">
<path d="M20.5747 15H0.675318C0.315148 15 0 14.6799 0 14.314V0.685976C0 0.320122 0.315148 0 0.675318 0H20.5747C20.9349 0 21.25 0.320122 21.25 0.685976V14.3598C21.25 14.6799 20.9349 15 20.5747 15ZM1.30561 13.6738H19.8994V1.32622H1.30561V13.6738Z" fill="#3D3D3D"/>
<path d="M10.6244 9.60366C9.94912 9.60366 9.22878 9.32927 8.68852 8.82622L0.22454 1.18902C-0.000565615 1.0061 -0.0455868 0.685976 0.0444556 0.411585C0.134498 0.182927 0.404625 0 0.674752 0H20.5741C20.8442 0 21.1144 0.182927 21.2044 0.411585C21.2945 0.685976 21.2494 0.960366 21.0243 1.14329L12.5603 8.82622C12.0201 9.32927 11.2998 9.60366 10.6244 9.60366ZM2.38556 1.32622L9.54393 7.82012C10.1292 8.36891 11.0746 8.36891 11.6599 7.82012L18.8633 1.32622H2.38556Z" fill="#3D3D3D"/>
<path d="M20.5741 14.9094H0.674752C0.404625 14.9094 0.134498 14.7265 0.0444556 14.4978C-0.0455868 14.2234 -0.000565615 13.9033 0.22454 13.7204L7.65304 6.99783C7.92316 6.76917 8.32835 6.76917 8.59848 7.04356C8.82359 7.31795 8.82359 7.72953 8.55346 8.00392L2.38556 13.5832H18.8633L12.7404 8.00392C12.4703 7.77527 12.4253 7.31795 12.6954 7.04356C12.9205 6.76917 13.3707 6.72344 13.6409 6.99783L21.0243 13.7204C21.2494 13.9033 21.2945 14.1777 21.2044 14.4521C21.1144 14.7265 20.8442 14.9094 20.5741 14.9094Z" fill="#3D3D3D"/>
</g>
<defs>
<clipPath id="clip0">
<rect width="21.25" height="15" fill="white"/>
</clipPath>
</defs>
</svg>
