<svg width="20" height="20" viewBox="0 0 20 20" fill="none" xmlns="http://www.w3.org/2000/svg">
<path d="M9.99324 20C4.50245 20 0 15.5311 0 10C0 4.5055 4.46584 0 9.99324 0C15.484 0 19.9865 4.46887 19.9865 10C19.9865 15.5311 15.5206 20 9.99324 20ZM9.99324 1.0989C5.08813 1.0989 1.06155 5.09158 1.06155 10.0366C1.06155 14.9451 5.05153 18.9744 9.99324 18.9744C14.8983 18.9744 18.9249 14.9817 18.9249 10.0366C18.9249 5.09158 14.935 1.0989 9.99324 1.0989Z" fill="#3C5A99"/>
<path fill-rule="evenodd" clip-rule="evenodd" d="M8.42039 10.0371V15.8246C8.42039 15.8979 8.4936 15.9712 8.56681 15.9712H10.7265C10.7997 15.9712 10.8729 15.8979 10.8729 15.8246V9.96384H12.447C12.5202 9.96384 12.5934 9.89058 12.5934 9.81732L12.7398 8.05908C12.7398 7.98582 12.6666 7.91256 12.5934 7.91256H10.8729V6.66714C10.8729 6.3741 11.1292 6.11769 11.422 6.11769H12.63C12.7032 6.11769 12.7764 6.04443 12.7764 5.97117V4.21293C12.7764 4.13967 12.7032 4.06641 12.63 4.06641H10.6167C9.40873 4.06641 8.45699 5.01879 8.45699 6.22758V7.87593H7.39544C7.32223 7.87593 7.24902 7.94919 7.24902 8.02245V9.78069C7.24902 9.85395 7.32223 9.92721 7.39544 9.92721H8.45699V10.0371H8.42039Z" fill="#3C5A99"/>
</svg>
