<svg width="20" height="21" viewBox="0 0 20 21" fill="none" xmlns="http://www.w3.org/2000/svg">
<path d="M10 20.0135C4.46494 20.0135 0 15.5086 0 10.0068C0 4.46797 4.50184 0 10 0C15.4982 0 20 4.50489 20 10.0068C20 15.5456 15.5351 20.0135 10 20.0135ZM10 0.960061C5.01845 0.960061 0.959406 5.02185 0.959406 10.0068C0.959406 14.9917 5.01845 19.0535 10 19.0535C14.9815 19.0535 19.0406 14.9917 19.0406 10.0068C19.0775 5.02185 15.0184 0.960061 10 0.960061ZM13.3948 5.94498C12.9889 5.94498 12.6568 6.27731 12.6568 6.68349C12.6568 7.08967 12.9889 7.42199 13.3948 7.42199C13.8007 7.42199 14.1328 7.08967 14.1328 6.68349C14.1328 6.27731 13.8007 5.94498 13.3948 5.94498ZM10.1107 6.90504C8.41328 6.90504 7.01107 8.3082 7.01107 10.0068C7.01107 11.7053 8.41328 13.1085 10.1107 13.1085C11.8081 13.1085 13.2103 11.7053 13.2103 10.0068C13.2103 8.3082 11.8081 6.90504 10.1107 6.90504ZM10.1107 12.0007C9.00369 12.0007 8.11808 11.1145 8.11808 10.0068C8.11808 8.89901 9.00369 8.0128 10.1107 8.0128C11.2177 8.0128 12.1033 8.89901 12.1033 10.0068C12.1033 11.1145 11.1808 12.0007 10.1107 12.0007ZM16.3838 7.42199C16.3838 5.31725 14.6863 3.61868 12.583 3.61868H7.56458C5.46126 3.61868 3.76384 5.31725 3.76384 7.42199V12.4438C3.76384 14.5486 5.46126 16.2471 7.56458 16.2471H12.583C14.6863 16.2471 16.3838 14.5486 16.3838 12.4438V7.42199ZM15.166 12.4438C15.166 13.8839 13.9852 15.0655 12.5461 15.0655H7.52767C6.08856 15.0655 4.90774 13.8839 4.90774 12.4438V7.42199C4.90774 5.98191 6.08856 4.80029 7.52767 4.80029H12.5461C13.9852 4.80029 15.166 5.98191 15.166 7.42199V12.4438Z" fill="url(#paint0_linear)"/>
<defs>
<linearGradient id="paint0_linear" x1="1.92819" y1="16.9014" x2="26.7654" y2="-4.23289" gradientUnits="userSpaceOnUse">
<stop offset="0.0011048" stop-color="#FBE18A"/>
<stop offset="0.2094" stop-color="#FCBB45"/>
<stop offset="0.3765" stop-color="#F75274"/>
<stop offset="0.5238" stop-color="#D53692"/>
<stop offset="0.7394" stop-color="#8F39CE"/>
<stop offset="1" stop-color="#5B4FE9"/>
</linearGradient>
</defs>
</svg>
