<svg width="17" height="15" viewBox="0 0 17 15" fill="none" xmlns="http://www.w3.org/2000/svg">
<path fill-rule="evenodd" clip-rule="evenodd" d="M14.1792 9.83572C13.4851 9.43883 12.5927 8.94272 11.7995 9.33961C11.2046 9.63728 10.8079 10.5303 10.4113 11.0264C10.213 11.3241 9.91555 11.3241 9.61808 11.2248C7.33751 10.3318 5.55271 8.74427 4.26369 6.6606C4.06538 6.36293 4.06537 6.06527 4.36284 5.7676C4.75946 5.27148 5.25524 4.77537 5.3544 4.18004C5.45355 3.5847 5.15608 2.89014 4.95777 2.29481C4.66031 1.60025 4.26369 0.608025 3.5696 0.211134C2.97467 -0.185756 2.08226 0.0126904 1.48733 0.508803C0.495777 1.30258 0 2.59248 0 3.78315C0 4.18004 6.05049e-06 4.47771 0.0991615 4.8746C0.297472 5.66838 0.694094 6.46215 1.09072 7.15671C1.38818 7.75205 1.7848 8.24816 2.18142 8.74427C3.47044 10.4311 4.95778 11.9194 6.74257 13.0108C7.63497 13.6062 8.62653 14.0031 9.61808 14.4C10.7088 14.7968 11.7003 15.1937 12.8902 14.8961C14.1792 14.6976 15.3691 13.9038 15.8649 12.614C15.964 12.2171 16.0632 11.8202 15.964 11.4233C15.8649 10.6295 14.7742 10.2326 14.1792 9.83572Z" fill="#3D3D3D"/>
</svg>
