<svg width="249" height="246" viewBox="0 0 249 246" fill="none" xmlns="http://www.w3.org/2000/svg">
<g clip-path="url(#clip0)">
<path d="M26.7835 191.751C26.6317 192.814 29.5168 193.515 31.8669 193.906C31.6716 195.837 30.3918 197.789 28.6202 199.611C26.3858 198.353 23.2042 196.69 22.6185 197.102C21.9749 197.543 25.2361 199.655 27.2752 200.891C25.8435 202.164 24.2237 203.35 22.6546 204.391C21.6567 203.458 20.4853 202.634 19.7839 203.082C19.0608 203.545 19.2561 204.991 19.6104 206.278C17.1808 207.695 15.3658 208.556 15.3658 208.556C15.3658 208.556 14.3462 205.468 13.7461 201.665C13.869 201.426 13.9919 201.18 14.1004 200.92C14.4908 200.016 14.1076 199.633 13.464 199.503C13.2977 197.84 13.2471 196.126 13.4207 194.535C16.1684 193.957 19.5091 192.894 18.2582 191.245C17.5062 190.254 16.125 190.139 14.6861 190.384C14.8885 190.052 15.1127 189.741 15.3658 189.459C20.3624 183.949 23.855 189.459 23.855 189.459C26.7618 187.037 30.8401 187.695 31.7223 191.476C30.0953 191.064 26.9715 190.442 26.7835 191.751Z" fill="#407BFF"/>
<path opacity="0.3" d="M26.7835 191.751C26.6317 192.814 29.5168 193.515 31.8669 193.906C31.6716 195.837 30.3918 197.789 28.6202 199.611C26.3858 198.353 23.2042 196.69 22.6185 197.102C21.9749 197.543 25.2361 199.655 27.2752 200.891C25.8435 202.164 24.2237 203.35 22.6546 204.391C21.6567 203.458 20.4853 202.634 19.7839 203.082C19.0608 203.545 19.2561 204.991 19.6104 206.278C17.1808 207.695 15.3658 208.556 15.3658 208.556C15.3658 208.556 14.3462 205.468 13.7461 201.665C13.869 201.426 13.9919 201.18 14.1004 200.92C14.4908 200.016 14.1076 199.633 13.464 199.503C13.2977 197.84 13.2471 196.126 13.4207 194.535C16.1684 193.957 19.5091 192.894 18.2582 191.245C17.5062 190.254 16.125 190.139 14.6861 190.384C14.8885 190.052 15.1127 189.741 15.3658 189.459C20.3624 183.949 23.855 189.459 23.855 189.459C26.7618 187.037 30.8401 187.695 31.7223 191.476C30.0953 191.064 26.9715 190.442 26.7835 191.751Z" fill="white"/>
<path d="M20.5433 232.237L21.2664 232.18C21.2375 231.811 18.3089 194.918 26.5811 191.447C27.4706 191.071 28.2949 191.093 29.0903 191.513C32.0839 193.067 33.5157 199.524 33.5301 199.59L34.2387 199.438C34.1809 199.156 32.7202 192.583 29.4302 190.869C28.4395 190.356 27.391 190.327 26.3064 190.782C17.5424 194.456 20.4204 230.697 20.5433 232.237Z" fill="#407BFF"/>
<path d="M19.5018 231.442C19.6465 229.786 23.0305 190.753 16.7107 186.61C15.1922 185.619 13.8472 185.402 12.6975 185.988C9.71109 187.492 9.32061 193.877 9.30615 194.145L10.0293 194.188C10.0293 194.123 10.4125 187.948 13.0229 186.632C13.9195 186.176 15.0259 186.371 16.313 187.217C22.2713 191.129 18.8149 230.979 18.7787 231.377L19.5018 231.442Z" fill="#407BFF"/>
<path d="M18.5475 234.595C18.5981 233.322 19.6321 203.451 13.8835 200.833C12.7482 200.32 11.5913 200.305 10.4632 200.804C6.51512 202.54 4.07828 209.901 3.97705 210.212L4.66399 210.436C4.68569 210.364 7.10083 203.075 10.7525 201.47C11.6997 201.05 12.6253 201.057 13.5798 201.491C17.9907 203.494 18.1353 226.048 17.8244 234.566L18.5475 234.595Z" fill="#407BFF"/>
<path d="M20.0154 233.228L20.7313 233.149C19.719 224.254 17.7811 200.566 20.9482 197.738C21.4183 197.319 21.8449 197.189 22.2426 197.341C24.3613 198.158 25.6556 205.859 25.9738 208.758L26.6896 208.679C26.5667 207.565 25.4098 197.782 22.4957 196.661C21.8304 196.408 21.1435 196.582 20.4565 197.196C16.371 200.848 19.8636 231.905 20.0154 233.228Z" fill="#407BFF"/>
<path d="M32.0837 216.373H6.10278L8.27208 245.47H29.9144L32.0837 216.373Z" fill="#263238"/>
<path opacity="0.2" d="M24.1875 216.373L23.4644 245.47H8.27208L6.10278 216.373H24.1875Z" fill="white"/>
<path d="M28.5406 205.692C28.8082 206.401 30.8256 205.844 32.4164 205.28C32.9588 206.538 32.8358 208.18 32.3658 209.908C30.5581 209.901 28.0272 209.966 27.8031 210.414C27.5572 210.906 30.2978 211.087 31.9753 211.152C31.527 212.432 30.9413 213.712 30.3267 214.897C29.3867 214.666 28.3888 214.558 28.1068 215.071C27.8175 215.606 28.4322 216.43 29.0974 217.103C28.0851 218.809 27.2607 219.959 27.2607 219.959C27.2607 219.959 25.5759 218.404 23.8983 216.264C23.8911 216.076 23.8839 215.881 23.8622 215.686C23.7899 214.991 23.4283 214.89 22.9872 215.028C22.3148 214.059 21.7001 213.017 21.259 211.976C22.7558 210.682 24.4479 208.874 23.1102 208.288C22.3075 207.934 21.4109 208.339 20.6155 208.982C20.6227 208.708 20.6589 208.44 20.7167 208.18C21.9098 203.068 25.9519 205.273 25.9519 205.273C26.9137 202.786 29.6542 201.788 31.4981 203.82C30.3484 204.13 28.208 204.817 28.5406 205.692Z" fill="#407BFF"/>
<path opacity="0.3" d="M28.5406 205.692C28.8082 206.401 30.8256 205.844 32.4164 205.28C32.9588 206.538 32.8358 208.18 32.3658 209.908C30.5581 209.901 28.0272 209.966 27.8031 210.414C27.5572 210.906 30.2978 211.087 31.9753 211.152C31.527 212.432 30.9413 213.712 30.3267 214.897C29.3867 214.666 28.3888 214.558 28.1068 215.071C27.8175 215.606 28.4322 216.43 29.0974 217.103C28.0851 218.809 27.2607 219.959 27.2607 219.959C27.2607 219.959 25.5759 218.404 23.8983 216.264C23.8911 216.076 23.8839 215.881 23.8622 215.686C23.7899 214.991 23.4283 214.89 22.9872 215.028C22.3148 214.059 21.7001 213.017 21.259 211.976C22.7558 210.682 24.4479 208.874 23.1102 208.288C22.3075 207.934 21.4109 208.339 20.6155 208.982C20.6227 208.708 20.6589 208.44 20.7167 208.18C21.9098 203.068 25.9519 205.273 25.9519 205.273C26.9137 202.786 29.6542 201.788 31.4981 203.82C30.3484 204.13 28.208 204.817 28.5406 205.692Z" fill="white"/>
<path d="M9.25556 209.149C10.0727 209.207 10.8608 209.395 11.6273 209.648C11.8298 209.098 11.9599 208.527 11.9744 207.927C12.1407 202.684 8.38784 204.897 6.40655 203.357C5.41591 202.59 4.20834 202.099 3.08753 202.316C3.25385 202.605 3.4057 202.901 3.53585 203.212C3.74555 203.711 3.41293 204.239 2.89953 204.333C2.41505 204.427 1.87273 204.384 1.43164 204.16C1.29425 204.087 1.17856 203.986 1.05563 203.899C0.780852 204.369 0.534999 204.94 0.332532 205.649C0.130064 206.379 0.0288307 207.131 -0.00732422 207.891C0.289146 207.956 0.578385 208.035 0.867624 208.137C1.31594 208.296 1.5618 209.019 1.19302 209.38C0.874855 209.698 0.506075 209.952 0.108371 210.14C0.238529 211 0.477151 211.824 0.76639 212.598C0.853162 212.613 0.947165 212.62 1.03394 212.641C1.22194 212.678 1.40995 212.728 1.59795 212.779C1.70642 212.808 1.80765 212.844 1.90888 212.895C2.1692 213.017 2.35721 213.242 2.40059 213.531C2.44398 213.82 2.32105 214.109 2.08966 214.29C1.96673 214.384 1.83657 214.456 1.69919 214.529C2.29936 215.476 3.00076 216.221 3.77448 216.626C3.77448 216.626 4.72897 216.206 5.97993 215.462C5.82084 215.252 5.66899 215.042 5.52437 214.825C5.35083 214.572 5.27852 214.305 5.30021 214.001C5.32191 213.704 5.50268 213.444 5.72684 213.263C5.93654 213.083 6.2764 213.003 6.55117 213.039C6.81872 213.075 7.13688 213.234 7.28873 213.466C7.46228 213.726 7.65751 213.972 7.84552 214.218C8.80001 213.495 9.7545 212.627 10.5065 211.636C10.4776 211.629 10.4487 211.622 10.427 211.615C9.9425 211.492 9.45079 211.405 8.95186 211.369C8.32999 211.325 7.93952 210.696 7.99014 210.118C8.05522 209.489 8.66985 209.106 9.25556 209.149Z" fill="#407BFF"/>
<path opacity="0.5" d="M9.25556 209.149C10.0727 209.207 10.8608 209.395 11.6273 209.648C11.8298 209.098 11.9599 208.527 11.9744 207.927C12.1407 202.684 8.38784 204.897 6.40655 203.357C5.41591 202.59 4.20834 202.099 3.08753 202.316C3.25385 202.605 3.4057 202.901 3.53585 203.212C3.74555 203.711 3.41293 204.239 2.89953 204.333C2.41505 204.427 1.87273 204.384 1.43164 204.16C1.29425 204.087 1.17856 203.986 1.05563 203.899C0.780852 204.369 0.534999 204.94 0.332532 205.649C0.130064 206.379 0.0288307 207.131 -0.00732422 207.891C0.289146 207.956 0.578385 208.035 0.867624 208.137C1.31594 208.296 1.5618 209.019 1.19302 209.38C0.874855 209.698 0.506075 209.952 0.108371 210.14C0.238529 211 0.477151 211.824 0.76639 212.598C0.853162 212.613 0.947165 212.62 1.03394 212.641C1.22194 212.678 1.40995 212.728 1.59795 212.779C1.70642 212.808 1.80765 212.844 1.90888 212.895C2.1692 213.017 2.35721 213.242 2.40059 213.531C2.44398 213.82 2.32105 214.109 2.08966 214.29C1.96673 214.384 1.83657 214.456 1.69919 214.529C2.29936 215.476 3.00076 216.221 3.77448 216.626C3.77448 216.626 4.72897 216.206 5.97993 215.462C5.82084 215.252 5.66899 215.042 5.52437 214.825C5.35083 214.572 5.27852 214.305 5.30021 214.001C5.32191 213.704 5.50268 213.444 5.72684 213.263C5.93654 213.083 6.2764 213.003 6.55117 213.039C6.81872 213.075 7.13688 213.234 7.28873 213.466C7.46228 213.726 7.65751 213.972 7.84552 214.218C8.80001 213.495 9.7545 212.627 10.5065 211.636C10.4776 211.629 10.4487 211.622 10.427 211.615C9.9425 211.492 9.45079 211.405 8.95186 211.369C8.32999 211.325 7.93952 210.696 7.99014 210.118C8.05522 209.489 8.66985 209.106 9.25556 209.149Z" fill="white"/>
<path d="M7.75149 191.086C7.29594 190.76 6.797 190.514 6.2836 190.305C6.42099 189.929 6.60177 189.567 6.85485 189.249C9.06753 186.422 10.0654 189.227 11.7864 189.292C12.6396 189.321 13.4929 189.596 13.9846 190.204C13.7677 190.283 13.558 190.37 13.3555 190.478C13.0229 190.652 12.9723 191.071 13.1964 191.346C13.4133 191.606 13.7171 191.823 14.0424 191.903C14.1437 191.925 14.2521 191.925 14.3534 191.932C14.2955 192.301 14.1726 192.705 13.9629 193.168C13.746 193.638 13.4712 194.079 13.1603 194.492C12.9795 194.398 12.7915 194.311 12.589 194.238C12.2853 194.123 11.837 194.398 11.8732 194.752C11.9021 195.063 11.9816 195.352 12.1045 195.627C11.6562 196.024 11.1717 196.35 10.68 196.625C10.6294 196.596 10.5788 196.56 10.521 196.531C10.4053 196.466 10.2823 196.408 10.1594 196.357C10.0871 196.328 10.0148 196.299 9.94248 196.278C9.75447 196.227 9.55201 196.263 9.40739 196.393C9.26277 196.523 9.19046 196.733 9.23384 196.928C9.25554 197.03 9.29892 197.131 9.33508 197.225C8.60475 197.456 7.90334 197.543 7.32487 197.413C7.32487 197.413 7.0067 196.777 6.67408 195.829C6.84762 195.786 7.02116 195.75 7.19471 195.699C7.39718 195.641 7.54903 195.533 7.67195 195.366C7.78765 195.2 7.80934 194.983 7.77319 194.795C7.73703 194.607 7.59964 194.419 7.44056 194.318C7.28871 194.217 7.04286 194.166 6.86931 194.217C6.66685 194.275 6.45715 194.318 6.24745 194.369C6.05945 193.566 5.94375 192.691 5.98714 191.845C6.00883 191.852 6.02329 191.859 6.03775 191.867C6.34868 192.011 6.64515 192.185 6.91993 192.387C7.26702 192.633 7.74426 192.474 7.97565 192.156C8.23597 191.787 8.07689 191.317 7.75149 191.086Z" fill="#407BFF"/>
<path opacity="0.3" d="M7.75149 191.086C7.29594 190.76 6.797 190.514 6.2836 190.305C6.42099 189.929 6.60177 189.567 6.85485 189.249C9.06753 186.422 10.0654 189.227 11.7864 189.292C12.6396 189.321 13.4929 189.596 13.9846 190.204C13.7677 190.283 13.558 190.37 13.3555 190.478C13.0229 190.652 12.9723 191.071 13.1964 191.346C13.4133 191.606 13.7171 191.823 14.0424 191.903C14.1437 191.925 14.2521 191.925 14.3534 191.932C14.2955 192.301 14.1726 192.705 13.9629 193.168C13.746 193.638 13.4712 194.079 13.1603 194.492C12.9795 194.398 12.7915 194.311 12.589 194.238C12.2853 194.123 11.837 194.398 11.8732 194.752C11.9021 195.063 11.9816 195.352 12.1045 195.627C11.6562 196.024 11.1717 196.35 10.68 196.625C10.6294 196.596 10.5788 196.56 10.521 196.531C10.4053 196.466 10.2823 196.408 10.1594 196.357C10.0871 196.328 10.0148 196.299 9.94248 196.278C9.75447 196.227 9.55201 196.263 9.40739 196.393C9.26277 196.523 9.19046 196.733 9.23384 196.928C9.25554 197.03 9.29892 197.131 9.33508 197.225C8.60475 197.456 7.90334 197.543 7.32487 197.413C7.32487 197.413 7.0067 196.777 6.67408 195.829C6.84762 195.786 7.02116 195.75 7.19471 195.699C7.39718 195.641 7.54903 195.533 7.67195 195.366C7.78765 195.2 7.80934 194.983 7.77319 194.795C7.73703 194.607 7.59964 194.419 7.44056 194.318C7.28871 194.217 7.04286 194.166 6.86931 194.217C6.66685 194.275 6.45715 194.318 6.24745 194.369C6.05945 193.566 5.94375 192.691 5.98714 191.845C6.00883 191.852 6.02329 191.859 6.03775 191.867C6.34868 192.011 6.64515 192.185 6.91993 192.387C7.26702 192.633 7.74426 192.474 7.97565 192.156C8.23597 191.787 8.07689 191.317 7.75149 191.086Z" fill="white"/>
<path d="M28.9237 196.328C29.0756 197.391 26.1904 198.093 23.8403 198.483C24.0356 200.414 25.3154 202.366 27.087 204.188C29.3214 202.93 32.503 201.267 33.0888 201.679C33.7323 202.12 30.4711 204.232 28.432 205.468C29.8637 206.741 31.4835 207.927 33.0526 208.968C34.0505 208.035 35.2219 207.211 35.9233 207.659C36.6464 208.122 36.4512 209.568 36.0968 210.855C38.5264 212.273 40.3414 213.133 40.3414 213.133C40.3414 213.133 41.361 210.045 41.9612 206.242C41.8382 206.003 41.7153 205.757 41.6068 205.497C41.2164 204.593 41.5996 204.21 42.2432 204.08C42.4095 202.417 42.4601 200.703 42.2866 199.112C39.5388 198.534 36.1981 197.471 37.449 195.822C38.2011 194.831 39.5822 194.716 41.0211 194.962C40.8187 194.629 40.5945 194.318 40.3414 194.036C35.3448 188.526 31.8523 194.036 31.8523 194.036C28.9454 191.614 24.8671 192.272 23.9849 196.054C25.6119 195.634 28.7357 195.012 28.9237 196.328Z" fill="#407BFF"/>
<path opacity="0.5" d="M28.9237 196.328C29.0756 197.391 26.1904 198.093 23.8403 198.483C24.0356 200.414 25.3154 202.366 27.087 204.188C29.3214 202.93 32.503 201.267 33.0888 201.679C33.7323 202.12 30.4711 204.232 28.432 205.468C29.8637 206.741 31.4835 207.927 33.0526 208.968C34.0505 208.035 35.2219 207.211 35.9233 207.659C36.6464 208.122 36.4512 209.568 36.0968 210.855C38.5264 212.273 40.3414 213.133 40.3414 213.133C40.3414 213.133 41.361 210.045 41.9612 206.242C41.8382 206.003 41.7153 205.757 41.6068 205.497C41.2164 204.593 41.5996 204.21 42.2432 204.08C42.4095 202.417 42.4601 200.703 42.2866 199.112C39.5388 198.534 36.1981 197.471 37.449 195.822C38.2011 194.831 39.5822 194.716 41.0211 194.962C40.8187 194.629 40.5945 194.318 40.3414 194.036C35.3448 188.526 31.8523 194.036 31.8523 194.036C28.9454 191.614 24.8671 192.272 23.9849 196.054C25.6119 195.634 28.7357 195.012 28.9237 196.328Z" fill="white"/>
<path d="M173.392 245.47H51.9619C47.8041 245.47 44.4417 242.1 44.4417 237.95V7.52022C44.4417 3.3624 47.8113 0 51.9619 0H173.392C177.549 0 180.912 3.36964 180.912 7.52022V237.95C180.912 242.108 177.542 245.47 173.392 245.47Z" fill="#263238"/>
<path d="M176.349 8.22151V236.807C176.349 238.687 174.838 240.148 172.958 240.148H52.1138C50.3856 240.148 49.084 238.81 49.084 237.082V7.94673C49.084 6.44992 50.1831 5.14111 51.6799 5.14111H81.8909C82.7442 5.14111 83.5179 5.6979 83.8361 6.50054L85.087 9.58093C85.4052 10.3763 86.1789 10.9259 87.0322 10.9259H138.466C139.319 10.9259 140.093 10.398 140.411 9.60263L141.662 6.50777C141.98 5.70513 142.754 5.14111 143.607 5.14111H173.384C175.033 5.14111 176.349 6.57285 176.349 8.22151Z" fill="#407BFF"/>
<path opacity="0.3" d="M176.349 19.4224H49.084V224.963H176.349V19.4224Z" fill="white"/>
<path opacity="0.6" d="M109.839 7.19486C110.805 7.19486 111.588 6.41141 111.588 5.44497C111.588 4.47852 110.805 3.69507 109.839 3.69507C108.872 3.69507 108.089 4.47852 108.089 5.44497C108.089 6.41141 108.872 7.19486 109.839 7.19486Z" fill="white"/>
<path opacity="0.6" d="M115.117 5.44502C115.117 6.05965 114.618 6.56582 113.997 6.56582C113.375 6.56582 112.876 6.06688 112.876 5.44502C112.876 4.82316 113.375 4.32422 113.997 4.32422C114.618 4.32422 115.117 4.82316 115.117 5.44502Z" fill="white"/>
<path opacity="0.6" d="M63.4455 14.3574H65.0146V12.2604H63.4455V14.3574Z" fill="white"/>
<path opacity="0.6" d="M60.8816 14.3525H62.4507V11.5542H60.8816V14.3525Z" fill="white"/>
<path opacity="0.6" d="M58.3176 14.3547H59.8867V10.8622H58.3176V14.3547Z" fill="white"/>
<path opacity="0.6" d="M55.761 14.3569H57.3301V10.163H55.761V14.3569Z" fill="white"/>
<path opacity="0.6" d="M162.278 11.4973H161.345V13.5943H162.278V11.4973Z" fill="white"/>
<path opacity="0.6" d="M162.912 14.3538L170.338 14.3538V10.731H162.912V14.3538Z" fill="white"/>
<path d="M85.3545 90.7127C101.269 90.7127 114.17 77.8116 114.17 61.8972C114.17 45.9829 101.269 33.0818 85.3545 33.0818C69.4402 33.0818 56.5391 45.9829 56.5391 61.8972C56.5391 77.8116 69.4402 90.7127 85.3545 90.7127Z" fill="white"/>
<path d="M71.9917 160.34L72.0206 154.367C72.0206 154.165 71.8832 153.991 71.688 153.948L67.3132 152.957C66.9228 152.87 66.5323 153.123 66.4528 153.514C66.4383 153.564 66.4383 153.622 66.4383 153.673C66.46 155.604 66.5757 157.014 66.5612 159.443C66.554 160.94 66.3732 165.445 66.366 167.513C66.3588 169.574 68.3907 169.856 68.5859 169.01C69.4319 165.221 70.5889 162.379 71.6808 161.164C71.8832 160.94 71.9917 160.644 71.9917 160.34Z" fill="#263238"/>
<path d="M98.6594 105.326L100.59 115.45C100.59 115.45 115.84 140.136 115.833 154.389C115.826 171.41 71.4131 161.591 71.4131 161.591V153.752C71.4131 153.752 97.958 156.03 100.351 153.369C103.251 150.137 85.3544 125.125 85.3544 125.125L98.6594 105.326Z" fill="#263238"/>
<path opacity="0.2" d="M115.833 154.389C115.826 163.774 102.326 164.996 90.2136 164.208C82.1366 163.68 74.6815 162.256 72.2446 161.764C71.7096 161.656 71.4131 161.591 71.4131 161.591V153.752C71.4131 153.752 71.7602 153.781 72.3893 153.832C75.4046 154.07 84.8049 154.757 91.9129 154.656C96.1358 154.598 99.5561 154.251 100.351 153.376C101.776 151.785 98.1822 144.938 94.1545 138.386C94.1545 138.379 94.1545 138.379 94.1545 138.379C89.9822 131.604 85.3544 125.132 85.3544 125.132L91.1826 116.455L98.6522 105.341L100.583 115.464C100.59 115.45 115.84 140.129 115.833 154.389Z" fill="white"/>
<path opacity="0.2" d="M91.9202 154.649L90.2209 164.208C82.1439 163.681 74.6888 162.256 72.252 161.764L72.3966 153.825C75.4119 154.071 84.8049 154.75 91.9202 154.649Z" fill="black"/>
<path opacity="0.2" d="M91.2116 127.272C91.2116 127.272 93.6918 133.108 94.1546 138.372C89.9823 131.596 85.3545 125.125 85.3545 125.125L91.1827 116.448L94.2558 115.45C94.2558 115.45 94.9428 119.434 91.2116 127.272Z" fill="black"/>
<path d="M87.2418 212.96H81.269C81.0665 212.96 80.893 213.104 80.8496 213.299L79.8807 217.681C79.8011 218.072 80.047 218.455 80.4374 218.542C80.4881 218.556 80.5459 218.556 80.5965 218.556C82.5272 218.527 83.9372 218.405 86.3668 218.405C87.8637 218.405 92.3758 218.564 94.4366 218.564C96.4974 218.564 96.7722 216.524 95.9262 216.336C92.1372 215.512 89.2809 214.362 88.0661 213.278C87.842 213.061 87.5455 212.952 87.2418 212.96Z" fill="#263238"/>
<path d="M72.0495 105.652C72.0495 105.652 70.7263 110.605 72.0495 133.325C74.0887 168.2 80.5532 214.637 80.5532 214.637L88.0662 213.271C88.0662 213.271 87.1044 143.817 88.1168 124.648C88.1168 124.648 98.7391 115.124 98.6595 105.334C98.58 95.5358 72.0495 105.652 72.0495 105.652Z" fill="#263238"/>
<path opacity="0.2" d="M72.0495 105.652C72.0495 105.652 70.7263 110.605 72.0495 133.325C74.0887 168.2 80.5532 214.637 80.5532 214.637L88.0662 213.271C88.0662 213.271 87.1044 143.817 88.1168 124.648C88.1168 124.648 98.7391 115.124 98.6595 105.334C98.58 95.5358 72.0495 105.652 72.0495 105.652Z" fill="white"/>
<path d="M98.3269 102.521H72.0496V105.652L98.6596 105.327L98.3269 102.521Z" fill="#263238"/>
<path d="M80.4967 106.667H81.4368V101.113H80.4967V106.667Z" fill="#263238"/>
<path d="M93.7863 106.667H94.7263V101.113H93.7863V106.667Z" fill="#263238"/>
<path d="M86.3488 105.476H91.208V101.976H86.3488V105.476Z" fill="white"/>
<path opacity="0.2" d="M80.4967 106.667H81.4368V101.113H80.4967V106.667Z" fill="white"/>
<path opacity="0.2" d="M93.7863 106.667H94.7263V101.113H93.7863V106.667Z" fill="white"/>
<path d="M95.7238 57.0526C95.7238 57.0526 79.1215 56.2716 66.7493 59.3954C66.7493 59.3954 72.2087 86.8876 72.0062 102.528H98.3269C98.3269 102.521 100.033 73.1921 95.7238 57.0526Z" fill="#407BFF"/>
<path opacity="0.6" d="M98.3269 102.521H72.0134C72.0351 100.822 71.9917 98.9851 71.8905 97.0544C71.6591 92.5423 71.1457 87.5384 70.5238 82.6937C70.466 82.2236 70.4009 81.7536 70.3431 81.2836C69.9237 78.1381 69.4681 75.1011 69.027 72.3244C67.8411 64.8693 66.7493 59.3882 66.7493 59.3882C79.1142 56.2717 95.7166 57.0454 95.7166 57.0454C100.033 73.1922 98.3269 102.521 98.3269 102.521Z" fill="white"/>
<path d="M76.446 58.1443C78.8323 60.3136 84.6677 59.5109 84.6677 59.5109C84.6677 59.5109 88.3121 58.513 87.5456 57.3705C85.398 57.0162 84.3567 56.0111 83.9301 54.7312C83.6843 53.9864 83.6409 53.1404 83.7132 52.2799C83.7421 51.8244 83.8144 51.3616 83.894 50.9133L76.6702 45.5696C77.6247 49.0911 78.7817 55.5845 76.446 58.1443Z" fill="#EBB376"/>
<path opacity="0.2" d="M78.3477 48.9609C78.6369 53.2923 82.1945 54.4854 83.9372 54.7313C83.6913 53.9865 83.648 53.1404 83.7203 52.28L78.3477 48.9609Z" fill="black"/>
<path d="M87.3141 34.4338C87.3141 34.4338 89.7871 40.7899 86.8585 44.1017C83.93 47.4134 81.1895 35.1642 81.1895 35.1642L87.3141 34.4338Z" fill="#263238"/>
<path d="M77.8923 51.6004C80.1339 53.654 83.0407 53.6757 85.2679 52.3814C86.6996 51.5498 87.8565 50.1687 88.3699 48.4405C88.4423 48.2163 88.4929 47.9777 88.5435 47.7391C89.3606 43.3354 88.3338 36.1768 83.4963 34.4919C80.0543 33.2627 76.2581 35.0632 75.0288 38.5124C74.6745 39.4885 74.566 40.5443 74.6962 41.5783C75.224 46.3941 75.3108 49.2576 77.8923 51.6004Z" fill="#EBB376"/>
<path d="M82.1152 42.5544C82.1079 42.9449 82.3538 43.2559 82.6213 43.2414C82.8817 43.2269 83.0697 42.8943 83.0552 42.5038C83.0407 42.1134 82.8094 41.8024 82.549 41.8169C82.2887 41.8314 82.0935 42.1567 82.1152 42.5544Z" fill="#263238"/>
<path d="M86.5694 42.3303C86.5622 42.7208 86.8152 43.0317 87.0756 43.0173C87.3286 43.0028 87.5239 42.6702 87.5094 42.2797C87.4949 41.8892 87.2636 41.5783 87.0032 41.5928C86.7429 41.6072 86.5549 41.9543 86.5694 42.3303Z" fill="#263238"/>
<path d="M85.1665 42.5977C85.6944 43.7763 86.3885 44.8826 87.2201 45.8733C86.6922 46.2927 86.0053 46.459 85.3473 46.3216L85.1665 42.5977Z" fill="#D58745"/>
<path d="M80.6545 41.1878C80.7413 41.195 80.8281 41.1589 80.8715 41.0865C81.1896 40.5948 81.7247 40.2767 82.3104 40.2333C82.4406 40.2333 82.5418 40.1321 82.5491 40.0091C82.5491 39.879 82.4478 39.7777 82.3249 39.7705C81.5801 39.7994 80.9004 40.1899 80.4955 40.819C80.4231 40.9202 80.4448 41.0649 80.5461 41.1372C80.5461 41.1372 80.5461 41.1372 80.5533 41.1372C80.5822 41.1661 80.6184 41.1806 80.6545 41.1878Z" fill="#263238"/>
<path d="M88.406 40.696C88.4494 40.7104 88.5 40.7104 88.5434 40.696C88.6591 40.6381 88.6953 40.4935 88.6374 40.385C88.6374 40.385 88.6374 40.385 88.6374 40.3778C88.2904 39.7125 87.6468 39.2642 86.902 39.163C86.7719 39.1558 86.6634 39.2498 86.6562 39.3727C86.6489 39.4956 86.7429 39.6041 86.8659 39.6185C87.4516 39.7125 87.9505 40.0813 88.2253 40.602C88.2687 40.667 88.3337 40.696 88.406 40.696Z" fill="#263238"/>
<path d="M77.9429 35.3596L78.4129 37.4566C77.7549 37.8977 77.4078 38.722 77.8128 39.5319C78.6733 41.2529 77.9357 44.1236 76.6703 45.3673C76.6703 45.3673 76.5546 44.5936 75.9183 44.8467C75.2819 45.0925 75.8604 49.1129 77.3283 50.9135C77.3283 50.9135 74.8698 49.0045 73.3657 44.8756C71.9701 41.0576 71.8834 38.1652 72.5342 36.5672L77.9429 35.3596Z" fill="#263238"/>
<path d="M72.7871 45.6564C73.38 46.7266 74.3707 47.5147 75.5493 47.8474C77.104 48.2812 77.8849 46.8856 77.4583 45.4178C77.0678 44.1162 75.788 42.2723 74.2188 42.4964C72.6497 42.7278 72.0712 44.3331 72.7871 45.6564Z" fill="#EBB376"/>
<path d="M78.4128 37.4565C78.4128 37.4565 83.648 39.3149 86.6272 36.5454C89.6064 33.7832 86.1644 30.052 86.1644 30.052C86.1644 30.052 85.1159 31.2306 83.4456 31.3463C81.7752 31.462 77.9211 30.4642 74.819 32.0405C71.7169 33.6169 70.5528 38.0929 73.3945 40.1248L78.4128 37.4565Z" fill="#263238"/>
<path d="M82.5779 47.0015C82.5779 47.0015 83.4601 48.4404 85.1593 47.9343" stroke="#263238" stroke-width="0.5" stroke-miterlimit="10" stroke-linecap="round" stroke-linejoin="round"/>
<path d="M87.0466 59.1567L86.3452 62.5914C86.3452 62.5914 90.344 79.2733 91.2045 87.9288L89.7438 89.3895L87.4516 87.9288C87.4516 87.9288 87.2491 70.3069 85.2244 62.9024L81.5945 59.9304L84.4507 59.0049L87.0466 59.1567Z" fill="#407BFF"/>
<path d="M77.263 54.876L84.1975 58.007L84.6024 55.4978L87.155 56.3945C88.0733 56.7199 88.6445 57.6237 88.5433 58.5927L88.2541 61.3477L84.7326 59.4243L82.9827 61.9045L74.6526 57.8913L77.263 54.876Z" fill="#407BFF"/>
<path opacity="0.7" d="M77.263 54.876L84.1975 58.007L84.6024 55.4978L87.155 56.3945C88.0733 56.7199 88.6445 57.6237 88.5433 58.5927L88.2541 61.3477L84.7326 59.4243L82.9827 61.9045L74.6526 57.8913L77.263 54.876Z" fill="white"/>
<path d="M74.8407 57.4502C74.8407 57.4502 81.3848 62.7794 88.7821 79.7433C88.7821 79.7433 89.0496 63.1627 87.6613 56.6548L95.7238 57.0453C95.7238 57.0453 101.632 70.0827 98.6596 98.2618L100.706 112.348L91.8118 116.072L89.7582 109.52L87.654 115.956L70.5021 113.664L71.4133 95.8756C71.4133 95.8756 67.2988 66.4817 66.7493 59.3881L74.8407 57.4502Z" fill="#263238"/>
<path opacity="0.1" d="M100.713 112.348L91.8188 116.064L89.7652 109.513L87.661 115.949L81.0374 115.059L70.5091 113.656L70.9646 104.82L71.4202 95.8682C71.4202 95.8682 71.2394 94.61 70.9646 92.542C70.6609 90.3799 70.2488 87.3357 69.786 83.9443C69.5618 82.274 69.3304 80.5169 69.0846 78.738C68.8387 76.858 68.5929 74.9562 68.347 73.0979C67.6022 67.2552 66.9514 61.9116 66.7634 59.3879L74.2909 57.5802L74.8549 57.45C74.8549 57.45 81.1531 62.5768 88.3696 78.7814C88.507 79.0996 88.6444 79.4178 88.789 79.7504C88.789 79.7504 88.7962 79.4177 88.8034 78.832C88.8324 75.2672 88.8613 62.2442 87.6682 56.6619L95.738 57.0523C95.738 57.0523 99.0787 64.4352 99.4764 80.0902C99.5198 81.9414 99.527 83.9154 99.4836 86.0052C99.3968 89.7147 99.151 93.8002 98.681 98.2689L100.713 112.348Z" fill="white"/>
<path opacity="0.2" d="M91.7539 64.24L93.6268 67.5446C93.6268 67.5446 91.6816 80.2422 88.5579 84.6603V82.0355L76.4532 68.0724L78.6225 64.7173L73.1703 65.7947C73.1703 65.7947 72.6642 60.6968 74.2839 57.5875L74.8479 57.4574C74.8479 57.4574 81.392 62.7866 88.782 79.7505C88.782 79.7505 89.0568 63.1626 87.6612 56.6692C87.6612 56.6692 91.5153 58.7589 94.2631 64.2473H91.7539V64.24Z" fill="white"/>
<path opacity="0.2" d="M99.4694 85.998C97.4231 85.687 94.6681 85.1736 91.2117 84.3132C91.2117 84.3132 80.8135 91.0524 76.1206 91.8623C73.9296 92.2455 72.252 92.448 70.9577 92.542C70.654 90.3799 70.2418 87.3357 69.779 83.9444C69.5549 82.274 69.3235 80.5169 69.0776 78.7381L72.657 67.0962L81.6017 77.9788L88.3554 78.7742L88.7893 78.8248L99.4622 80.083C99.5056 81.9342 99.5128 83.9082 99.4694 85.998Z" fill="black"/>
<path d="M95.7238 57.0522C99.2815 57.8838 110.265 73.4521 109.947 79.8371C109.629 86.222 82.05 82.8596 82.05 82.8596L82.7731 79.7431L99.1585 74.2475C99.1585 74.2475 98.891 70.5525 98.0305 66.1271C97.0182 60.9064 95.7238 57.0522 95.7238 57.0522Z" fill="#263238"/>
<path opacity="0.1" d="M109.947 79.8374C109.781 83.2865 101.66 83.8867 94.2343 83.7132C91.8336 83.6553 89.5124 83.5252 87.5384 83.3733C84.3061 83.1347 82.05 82.8527 82.05 82.8527L82.7659 79.7361L88.4784 77.8199L99.1585 74.2406C99.1585 74.2406 98.8838 70.5456 98.0305 66.1202C97.9799 65.8527 97.9293 65.5996 97.8714 65.3393C96.888 60.5162 95.7238 57.0381 95.7238 57.0381C99.2815 57.8841 110.265 73.4524 109.947 79.8374Z" fill="white"/>
<path opacity="0.2" d="M103.895 74.1972C103.895 74.1972 99.6934 79.8012 94.2268 83.7059C91.8261 83.6481 89.505 83.5179 87.5309 83.3661C86.9597 81.703 87.032 79.7361 87.032 79.7361L88.471 77.8199L99.1511 74.2406C99.1511 74.2406 98.8763 70.5456 98.0231 66.1202C97.9725 65.8527 97.9219 65.5996 97.864 65.3393L97.9219 65.2742C97.9291 65.2886 102.702 68.9475 103.895 74.1972Z" fill="black"/>
<path d="M84.3999 78.0224C84.3999 78.0224 81.1388 75.3975 79.8661 74.9998C78.5934 74.6021 76.1277 76.5111 76.1277 76.5111L79.3093 81.0449L84.3999 78.0224Z" fill="#EBB376"/>
<path d="M99.0429 77.4655L103.895 74.2044C103.895 74.2044 100.236 71.5795 99.7587 71.5C99.2815 71.4204 96.8953 74.2044 96.8953 74.2044L99.0429 77.4655Z" fill="#EBB376"/>
<path d="M66.7565 59.3952C62.0346 61.7091 68.7884 84.1179 74.6455 88.6734C80.5026 93.2289 100.373 77.4293 100.373 77.4293L97.3724 73.2208C97.3724 73.2208 81.8186 78.6368 79.8084 78.1307C77.7982 77.6245 72.2882 65.9754 70.5021 63.2855C68.7233 60.5955 66.0768 59.012 66.0768 59.012" fill="#263238"/>
<path opacity="0.1" d="M66.7565 59.3952C62.0346 61.7091 68.7884 84.1179 74.6455 88.6734C80.5026 93.2289 100.373 77.4293 100.373 77.4293L97.3724 73.2208C97.3724 73.2208 81.8186 78.6368 79.8084 78.1307C77.7982 77.6245 72.2882 65.9754 70.5021 63.2855C68.7233 60.5955 66.0768 59.012 66.0768 59.012" fill="white"/>
<path d="M153.383 48.5054H126.549C124.64 48.5054 123.086 46.958 123.086 45.0418C123.086 43.1328 124.633 41.5781 126.549 41.5781H153.383C155.292 41.5781 156.847 43.1256 156.847 45.0418C156.847 46.958 155.292 48.5054 153.383 48.5054Z" fill="#407BFF"/>
<path d="M165.611 56.691H124.416C123.686 56.691 123.093 56.098 123.093 55.3677C123.093 54.6374 123.686 54.0444 124.416 54.0444H165.611C166.341 54.0444 166.934 54.6374 166.934 55.3677C166.942 56.098 166.349 56.691 165.611 56.691Z" fill="#407BFF"/>
<path d="M148.134 62.866H124.416C123.686 62.866 123.093 62.2731 123.093 61.5428C123.093 60.8124 123.686 60.2195 124.416 60.2195H148.134C148.864 60.2195 149.457 60.8124 149.457 61.5428C149.464 62.2731 148.871 62.866 148.134 62.866Z" fill="#407BFF"/>
<path opacity="0.2" d="M136.738 79.1358H126.311C124.532 79.1358 123.086 77.6896 123.086 75.9108C123.086 74.132 124.532 72.6858 126.311 72.6858H136.738C138.517 72.6858 139.963 74.132 139.963 75.9108C139.97 77.6896 138.524 79.1358 136.738 79.1358Z" fill="black"/>
<path d="M99.5345 99.426H52.4319V217.457H99.5345V99.426Z" fill="#407BFF"/>
<g opacity="0.3">
<path opacity="0.3" d="M87.1621 130.599H60.4292C59.6989 130.599 59.106 130.006 59.106 129.268C59.106 128.538 59.6989 127.945 60.4292 127.945H87.1621C87.8925 127.945 88.4854 128.538 88.4854 129.268C88.4927 130.006 87.8997 130.599 87.1621 130.599Z" fill="white"/>
<path opacity="0.3" d="M76.9159 136.774H60.4292C59.6989 136.774 59.106 136.181 59.106 135.451C59.106 134.72 59.6989 134.127 60.4292 134.127H76.9159C77.6462 134.127 78.2391 134.72 78.2391 135.451C78.2464 136.181 77.6534 136.774 76.9159 136.774Z" fill="white"/>
</g>
<g opacity="0.3">
<path opacity="0.3" d="M79.9312 149.074H60.4292C59.6989 149.074 59.106 148.481 59.106 147.751C59.106 147.02 59.6989 146.42 60.4292 146.42H79.9312C80.6615 146.42 81.2544 147.013 81.2544 147.751C81.2617 148.481 80.6687 149.074 79.9312 149.074Z" fill="white"/>
<path opacity="0.3" d="M84.1468 155.249H60.4292C59.6989 155.249 59.106 154.656 59.106 153.926C59.106 153.195 59.6989 152.603 60.4292 152.603H84.1468C84.8772 152.603 85.4701 153.195 85.4701 153.926C85.4773 154.656 84.8844 155.249 84.1468 155.249Z" fill="white"/>
</g>
<g opacity="0.3">
<path opacity="0.3" d="M87.1621 167.549H60.4292C59.6989 167.549 59.106 166.956 59.106 166.226C59.106 165.496 59.6989 164.903 60.4292 164.903H87.1621C87.8925 164.903 88.4854 165.496 88.4854 166.226C88.4927 166.956 87.8997 167.549 87.1621 167.549Z" fill="white"/>
<path opacity="0.3" d="M69.6849 173.731H60.4292C59.6989 173.731 59.106 173.139 59.106 172.408C59.106 171.678 59.6989 171.085 60.4292 171.085H69.6849C70.4152 171.085 71.0081 171.678 71.0081 172.408C71.0154 173.139 70.4224 173.731 69.6849 173.731Z" fill="white"/>
</g>
<g opacity="0.3">
<path opacity="0.3" d="M72.7002 186.031H60.4292C59.6989 186.031 59.106 185.439 59.106 184.701C59.106 183.971 59.6989 183.378 60.4292 183.378H72.7002C73.4305 183.378 74.0235 183.971 74.0235 184.701C74.0307 185.439 73.4378 186.031 72.7002 186.031Z" fill="white"/>
<path opacity="0.3" d="M84.1468 192.207H60.4292C59.6989 192.207 59.106 191.614 59.106 190.883C59.106 190.153 59.6989 189.56 60.4292 189.56H84.1468C84.8772 189.56 85.4701 190.153 85.4701 190.883C85.4773 191.614 84.8844 192.207 84.1468 192.207Z" fill="white"/>
</g>
<path opacity="0.3" d="M102.205 217.452H172.765L172.765 99.4211L102.205 99.4211L102.205 217.452Z" fill="white"/>
<g opacity="0.2">
<path opacity="0.2" d="M113.338 112.116H132.84C133.571 112.116 134.164 111.523 134.164 110.793C134.164 110.063 133.571 109.47 132.84 109.47H113.338C112.608 109.47 112.008 110.063 112.008 110.793C112.008 111.523 112.601 112.116 113.338 112.116Z" fill="black"/>
<path opacity="0.2" d="M158.872 123.013H122.016C121.285 123.013 120.685 123.606 120.685 124.337C120.685 125.067 121.278 125.66 122.016 125.66H158.872C159.602 125.66 160.195 125.067 160.195 124.337C160.195 123.606 159.609 123.013 158.872 123.013Z" fill="black"/>
<path opacity="0.2" d="M113.338 131.842H158.749C159.479 131.842 160.072 131.249 160.072 130.519C160.072 129.789 159.479 129.196 158.749 129.196H113.338C112.608 129.196 112.008 129.789 112.008 130.519C112.008 131.249 112.601 131.842 113.338 131.842Z" fill="black"/>
<path opacity="0.2" d="M158.872 136.557H113.338C112.608 136.557 112.008 137.15 112.008 137.88C112.008 138.61 112.601 139.203 113.338 139.203H158.872C159.602 139.203 160.195 138.61 160.195 137.88C160.202 137.157 159.609 136.557 158.872 136.557Z" fill="black"/>
<path opacity="0.2" d="M113.338 145.393H158.749C159.479 145.393 160.072 144.8 160.072 144.07C160.072 143.34 159.479 142.747 158.749 142.747H113.338C112.608 142.747 112.008 143.34 112.008 144.07C112.008 144.8 112.601 145.393 113.338 145.393Z" fill="black"/>
<path opacity="0.2" d="M158.872 150.108H113.338C112.608 150.108 112.008 150.701 112.008 151.431C112.008 152.162 112.601 152.754 113.338 152.754H158.872C159.602 152.754 160.195 152.162 160.195 151.431C160.202 150.701 159.609 150.108 158.872 150.108Z" fill="black"/>
<path opacity="0.2" d="M113.338 158.937H148.625C149.356 158.937 149.949 158.344 149.949 157.606C149.949 156.869 149.356 156.283 148.625 156.283H113.338C112.608 156.283 112.008 156.876 112.008 157.606C112.008 158.337 112.601 158.937 113.338 158.937Z" fill="black"/>
<path opacity="0.2" d="M122.016 172.488H158.749C159.479 172.488 160.072 171.895 160.072 171.157C160.072 170.427 159.479 169.834 158.749 169.834H122.016C121.285 169.834 120.685 170.427 120.685 171.157C120.685 171.888 121.278 172.488 122.016 172.488Z" fill="black"/>
<path opacity="0.2" d="M158.872 177.202H113.338C112.608 177.202 112.008 177.795 112.008 178.533C112.008 179.27 112.601 179.856 113.338 179.856H158.872C159.602 179.856 160.195 179.263 160.195 178.533C160.195 177.803 159.609 177.202 158.872 177.202Z" fill="black"/>
<path opacity="0.2" d="M113.338 186.031H158.749C159.479 186.031 160.072 185.438 160.072 184.708C160.072 183.978 159.479 183.385 158.749 183.385H113.338C112.608 183.385 112.008 183.978 112.008 184.708C112.008 185.438 112.601 186.031 113.338 186.031Z" fill="black"/>
<path opacity="0.2" d="M149.472 190.746H113.338C112.608 190.746 112.008 191.339 112.008 192.069C112.008 192.799 112.601 193.392 113.338 193.392H149.472C150.202 193.392 150.795 192.799 150.795 192.069C150.802 191.339 150.209 190.746 149.472 190.746Z" fill="black"/>
<path opacity="0.2" d="M158.872 204.297H113.338C112.608 204.297 112.008 204.89 112.008 205.62C112.008 206.35 112.601 206.943 113.338 206.943H158.872C159.602 206.943 160.195 206.35 160.195 205.62C160.202 204.89 159.609 204.297 158.872 204.297Z" fill="black"/>
</g>
<g opacity="0.3">
<path opacity="0.3" d="M79.9312 112.116H60.4292C59.6989 112.116 59.106 111.523 59.106 110.793C59.106 110.063 59.6989 109.47 60.4292 109.47H79.9312C80.6615 109.47 81.2544 110.063 81.2544 110.793C81.2617 111.523 80.6687 112.116 79.9312 112.116Z" fill="white"/>
<path opacity="0.3" d="M69.6849 118.299H60.4292C59.6989 118.299 59.106 117.706 59.106 116.976C59.106 116.245 59.6989 115.645 60.4292 115.645H69.6849C70.4152 115.645 71.0081 116.238 71.0081 116.976C71.0154 117.706 70.4224 118.299 69.6849 118.299Z" fill="white"/>
</g>
<path d="M235.795 74.9418L237.559 71.7384L242.1 65.1365L242.954 59.6699C242.954 59.6699 246.931 61.1523 247.581 62.2948C248.239 63.4373 247.929 69.3088 247.581 70.0175C247.234 70.7333 243.134 73.5462 243.134 73.5462L240.943 77.7329L235.795 74.9418Z" fill="#EBB376"/>
<path d="M215.664 51.969C215.664 51.969 230.357 75.043 232.078 77.1111C233.792 79.1792 235.701 71.7385 235.701 71.7385L243.142 74.978C243.142 74.978 241.045 89.0856 235.325 89.6568C229.605 90.2353 217.399 75.166 217.399 75.166L215.664 51.969Z" fill="#263238"/>
<path opacity="0.1" d="M243.134 74.978C243.134 74.978 241.037 89.0856 235.318 89.6641C232.461 89.9461 227.978 86.3306 224.218 82.6356C220.451 78.9405 217.392 75.1732 217.392 75.1732L216.799 67.2553L215.664 51.969C215.664 51.969 230.357 75.043 232.078 77.1111C233.792 79.1792 235.701 71.7385 235.701 71.7385L243.134 74.978Z" fill="white"/>
<path opacity="0.2" d="M224.218 82.6356C220.451 78.9406 217.392 75.1733 217.392 75.1733L216.799 67.2554C218.498 68.81 223.611 74.1682 224.218 82.6356Z" fill="black"/>
<path d="M187.225 175.72L187.261 168.561C187.261 168.323 187.094 168.113 186.856 168.055L181.613 166.869C181.143 166.768 180.68 167.064 180.579 167.534C180.565 167.6 180.558 167.665 180.558 167.722C180.586 170.036 180.717 171.728 180.702 174.635C180.695 176.429 180.478 181.83 180.471 184.303C180.456 186.776 182.9 187.109 183.132 186.096C184.144 181.563 185.532 178.15 186.841 176.703C187.094 176.443 187.232 176.089 187.225 175.72Z" fill="#263238"/>
<path d="M219.185 109.81L221.499 121.936C221.499 121.936 239.772 151.511 239.764 168.583C239.75 188.982 186.544 177.21 186.544 177.21V167.816C186.544 167.816 218.346 170.55 221.217 167.361C224.695 163.485 203.248 133.52 203.248 133.52L219.185 109.81Z" fill="#263238"/>
<path opacity="0.2" d="M239.758 168.59C239.75 179.834 223.575 181.302 209.062 180.355C199.387 179.726 190.45 178.019 187.535 177.426C186.892 177.296 186.538 177.217 186.538 177.217V167.824C186.538 167.824 186.957 167.86 187.709 167.918C191.325 168.207 202.583 169.024 211.101 168.901C216.163 168.829 220.263 168.417 221.21 167.368C222.917 165.466 218.607 157.259 213.784 149.406C213.784 149.399 213.784 149.399 213.784 149.399C208.787 141.279 203.241 133.527 203.241 133.527L210.226 123.129L219.178 109.81L221.492 121.936C221.492 121.936 239.765 151.511 239.758 168.59Z" fill="white"/>
<path opacity="0.2" d="M211.101 168.901L209.062 180.355C199.387 179.726 190.449 178.019 187.535 177.426L187.709 167.918C191.324 168.207 202.583 169.024 211.101 168.901Z" fill="black"/>
<path opacity="0.2" d="M210.255 136.102C210.255 136.102 213.227 143.094 213.784 149.399C208.787 141.279 203.241 133.527 203.241 133.527L210.226 123.129L213.907 121.936C213.907 121.936 214.724 126.708 210.255 136.102Z" fill="black"/>
<path d="M205.504 238.767H198.346C198.107 238.767 197.897 238.933 197.847 239.172L196.683 244.421C196.581 244.892 196.885 245.354 197.355 245.456C197.42 245.47 197.485 245.477 197.543 245.477C199.857 245.441 201.549 245.296 204.456 245.296C206.249 245.296 211.651 245.484 214.124 245.484C216.597 245.484 216.922 243.04 215.91 242.816C211.369 241.826 207.948 240.452 206.495 239.15C206.22 238.89 205.866 238.76 205.504 238.767Z" fill="#263238"/>
<path d="M187.304 110.2C187.304 110.2 185.713 116.137 187.304 143.354C189.741 185.142 197.492 240.777 197.492 240.777L206.495 239.143C206.495 239.143 205.345 155.922 206.553 132.963C206.553 132.963 219.279 121.553 219.185 109.817C219.084 98.081 187.304 110.2 187.304 110.2Z" fill="#263238"/>
<path opacity="0.2" d="M187.304 110.2C187.304 110.2 185.713 116.137 187.304 143.354C189.741 185.142 197.492 240.777 197.492 240.777L206.495 239.143C206.495 239.143 205.345 155.922 206.553 132.963C206.553 132.963 219.279 121.553 219.185 109.817C219.084 98.081 187.304 110.2 187.304 110.2Z" fill="white"/>
<path d="M218.78 106.447H187.304V110.2L219.185 109.809L218.78 106.447Z" fill="#263238"/>
<path d="M197.422 111.417H198.543V104.765H197.422V111.417Z" fill="#263238"/>
<path d="M213.348 111.417H214.469V104.765H213.348V111.417Z" fill="#263238"/>
<path d="M204.433 109.988H210.254V105.794H204.433V109.988Z" fill="white"/>
<path opacity="0.2" d="M197.422 111.417H198.543V104.765H197.422V111.417Z" fill="white"/>
<path opacity="0.2" d="M213.348 111.417H214.469V104.765H213.348V111.417Z" fill="white"/>
<path d="M215.664 51.969C215.664 51.969 195.772 51.029 180.948 54.7746C180.948 54.7746 187.492 87.7189 187.239 106.454H218.773C218.78 106.447 220.834 71.3046 215.664 51.969Z" fill="#407BFF"/>
<path opacity="0.6" d="M218.78 106.447H187.253C187.282 104.408 187.224 102.21 187.108 99.8959C186.834 94.4871 186.219 88.4927 185.474 82.6934C185.402 82.1294 185.33 81.5654 185.257 81.0014C184.751 77.234 184.209 73.5896 183.681 70.2634C182.256 61.3331 180.955 54.7674 180.955 54.7674C195.771 51.029 215.664 51.9618 215.664 51.9618C220.826 71.3046 218.78 106.447 218.78 106.447Z" fill="white"/>
<path d="M192.568 53.2779C195.424 55.8738 202.424 54.9121 202.424 54.9121C202.424 54.9121 206.791 53.7189 205.873 52.3523C203.299 51.9257 202.055 50.7253 201.542 49.1923C201.245 48.2957 201.202 47.2906 201.281 46.2566C201.318 45.7143 201.397 45.1575 201.498 44.6151L192.85 38.2085C193.978 42.4314 195.367 50.2119 192.568 53.2779Z" fill="#EBB376"/>
<path opacity="0.2" d="M194.839 42.2795C195.178 47.4714 199.445 48.9031 201.535 49.1924C201.238 48.2957 201.195 47.2906 201.274 46.2566L194.839 42.2795Z" fill="black"/>
<path d="M189.958 24.7515C189.958 24.7515 187.543 32.5609 191.324 36.2704C195.106 39.9799 197.333 25.1058 197.333 25.1058L189.958 24.7515Z" fill="#263238"/>
<path d="M202.684 44.4631C200.182 47.1096 196.712 47.3844 193.935 46.025C192.149 45.1573 190.652 43.6026 189.885 41.5779C189.784 41.3104 189.697 41.0356 189.618 40.7536C188.266 35.5545 188.88 26.9135 194.528 24.4911C198.541 22.734 203.227 24.5635 204.984 28.5766C205.49 29.7191 205.714 30.9629 205.642 32.2138C205.425 38.0203 205.562 41.4478 202.684 44.4631Z" fill="#EBB376"/>
<path d="M196.863 34.0217C196.907 34.4917 196.632 34.8822 196.321 34.8894C196.01 34.8966 195.757 34.5134 195.743 34.0434C195.728 33.5733 195.981 33.1829 196.285 33.1756C196.596 33.1684 196.849 33.5444 196.863 34.0217Z" fill="#263238"/>
<path d="M191.52 34.1301C191.563 34.6001 191.281 34.9905 190.977 34.9978C190.674 35.005 190.413 34.6218 190.399 34.1517C190.385 33.6817 190.638 33.2913 190.941 33.284C191.252 33.2768 191.513 33.6817 191.52 34.1301Z" fill="#263238"/>
<path d="M193.226 34.3254C192.691 35.7861 191.961 37.16 191.05 38.4182C191.715 38.8737 192.554 39.0111 193.327 38.7942L193.226 34.3254Z" fill="#D58745"/>
<path d="M198.49 32.2572C198.389 32.2717 198.288 32.2355 198.215 32.156C197.789 31.592 197.124 31.2594 196.422 31.2594C196.27 31.2738 196.133 31.1654 196.118 31.0135C196.104 30.8617 196.212 30.7243 196.364 30.7098C197.254 30.6881 198.107 31.0931 198.642 31.8089C198.743 31.9246 198.722 32.0982 198.606 32.1994C198.606 32.1994 198.606 32.1994 198.599 32.2066C198.57 32.2211 198.534 32.2428 198.49 32.2572Z" fill="#263238"/>
<path d="M189.184 32.3296C189.133 32.3512 189.076 32.3585 189.018 32.344C188.88 32.2789 188.815 32.1199 188.88 31.9825V31.9752C189.235 31.1509 189.972 30.558 190.847 30.3772C190.999 30.3555 191.136 30.4567 191.158 30.6086C191.173 30.7604 191.071 30.8978 190.927 30.9195C190.24 31.0858 189.669 31.5631 189.387 32.2139C189.343 32.2789 189.271 32.3223 189.184 32.3296Z" fill="#263238"/>
<path d="M201.238 25.0625L200.855 27.615C201.679 28.085 202.164 29.0468 201.744 30.0446C200.862 32.1778 201.99 35.5474 203.603 36.9213C203.603 36.9213 203.682 35.9885 204.463 36.2344C205.244 36.4802 204.89 41.325 203.292 43.6027C203.292 43.6027 206.069 41.1153 207.515 36.0536C208.86 31.3751 208.722 27.9043 207.797 26.0531L201.238 25.0625Z" fill="#263238"/>
<path d="M208.281 36.9285C207.666 38.2518 206.546 39.2858 205.172 39.7847C203.35 40.4355 202.301 38.8375 202.684 37.0442C203.046 35.4534 204.413 33.1395 206.307 33.2768C208.194 33.4142 209.011 35.2871 208.281 36.9285Z" fill="#EBB376"/>
<path d="M192.901 40.2114C193.197 40.9345 193.472 42.2723 193.472 42.2723C193.595 42.2723 193.725 42.265 193.848 42.2578C195.555 42.1783 196.321 41.5781 196.654 40.9345C196.835 40.5802 196.878 40.2114 196.878 39.915C196.878 39.5679 196.798 39.322 196.798 39.322C195.916 39.9005 194.333 40.103 193.487 40.168C193.125 40.2114 192.901 40.2114 192.901 40.2114Z" fill="#263238"/>
<path d="M193.479 40.1753L193.66 40.7754C195.266 40.6959 196.386 40.4284 196.871 39.915C196.871 39.5679 196.791 39.322 196.791 39.322C195.916 39.915 194.333 40.1102 193.479 40.1753Z" fill="white"/>
<path d="M193.841 42.2578C195.547 42.1783 196.314 41.5781 196.646 40.9346C196.068 40.9852 195.374 41.1081 194.766 41.3974C194.311 41.6215 194.029 41.9397 193.841 42.2578Z" fill="#DE5753"/>
<path d="M200.855 27.6151C200.855 27.6151 194.759 30.2761 190.963 27.2246C187.167 24.1731 190.963 19.4224 190.963 19.4224C190.963 19.4224 192.315 20.7384 194.318 20.7384C196.321 20.7384 200.848 19.2127 204.687 20.8324C208.527 22.4521 210.298 27.7018 207.081 30.3701L200.855 27.6151Z" fill="#263238"/>
<path d="M205.273 54.4926L204.434 58.6071C204.434 58.6071 209.228 78.5935 210.255 88.9627L208.513 90.7126L205.765 88.9627C205.765 88.9627 205.519 67.8483 203.097 58.9831L198.751 55.4254L202.171 54.3191L205.273 54.4926Z" fill="#407BFF"/>
<path d="M193.544 49.3586L201.853 53.1043L202.337 50.1034L205.396 51.1808C206.495 51.5641 207.182 52.656 207.059 53.8129L206.712 57.1103L202.496 54.8036L200.392 57.7755L190.406 52.9669L193.544 49.3586Z" fill="#407BFF"/>
<path opacity="0.7" d="M193.544 49.3586L201.853 53.1043L202.337 50.1034L205.396 51.1808C206.495 51.5641 207.182 52.656 207.059 53.8129L206.712 57.1103L202.496 54.8036L200.392 57.7755L190.406 52.9669L193.544 49.3586Z" fill="white"/>
<path d="M190.645 52.4463C190.645 52.4463 198.483 58.8312 207.341 79.1575C207.341 79.1575 207.666 59.2868 205.996 51.499L215.657 51.969C215.657 51.969 222.729 67.5952 219.178 101.349L221.629 118.226L210.971 122.681L208.512 114.835L205.989 122.551L185.438 119.803L186.523 98.4932C186.523 98.4932 181.591 63.2711 180.941 54.7819L190.645 52.4463Z" fill="#263238"/>
<path opacity="0.1" d="M221.637 118.226L210.978 122.681L208.52 114.835L205.996 122.543L198.056 121.48L185.446 119.796L185.988 109.209L186.537 98.4859C186.537 98.4859 185.655 92.1444 184.578 84.1975C184.021 80.0758 183.421 75.5276 182.857 71.2034C181.96 64.2039 181.186 57.7972 180.955 54.7747L189.972 52.6054L190.645 52.4463C190.645 52.4463 198.483 58.8312 207.341 79.1575C207.341 79.1575 207.666 59.2868 205.996 51.499L215.664 51.969C215.664 51.969 222.736 67.588 219.185 101.349L221.637 118.226Z" fill="white"/>
<path opacity="0.2" d="M210.906 60.5811L213.147 64.5365C213.147 64.5365 210.819 79.7504 207.073 85.0435V81.898L192.568 65.1728L195.171 61.1524L188.642 62.4395C188.642 62.4395 188.034 56.3293 189.972 52.6054L190.645 52.4463C190.645 52.4463 198.483 58.8312 207.341 79.1575C207.341 79.1575 207.666 59.2868 205.996 51.499C205.996 51.499 210.617 54.0009 213.907 60.5811H210.906Z" fill="white"/>
<path opacity="0.2" d="M184.578 84.1974C184.021 80.0757 183.421 75.5274 182.857 71.2033L185.164 70.0247C185.164 70.0247 187.232 77.957 184.578 84.1974Z" fill="black"/>
<path opacity="0.2" d="M198.057 121.48L185.446 119.796L185.988 109.209C189.842 111.082 196.111 115.016 198.057 121.48Z" fill="black"/>
<path d="M180.955 54.7747C180.955 54.7747 165.517 77.8342 167.043 90.7126C168.569 103.591 187.297 124.554 187.297 124.554L193.262 120.844C193.262 120.844 178.294 97.8713 176.957 90.7126C176.241 86.8585 185.156 70.0248 185.156 70.0248C185.156 70.0248 184.571 58.4046 180.955 54.7747Z" fill="#263238"/>
<path opacity="0.1" d="M180.955 54.7747C180.955 54.7747 165.517 77.8342 167.043 90.7126C168.569 103.591 187.297 124.554 187.297 124.554L193.262 120.844C193.262 120.844 178.294 97.8713 176.957 90.7126C176.241 86.8585 185.156 70.0248 185.156 70.0248C185.156 70.0248 184.571 58.4046 180.955 54.7747Z" fill="white"/>
<path d="M229.403 70.8201L230.791 51.8605L243.134 52.7138L244.595 46.647L247.582 47.8907L241.334 70.0247L229.403 70.8201Z" fill="#407BFF"/>
<path opacity="0.7" d="M229.403 70.8201L230.791 51.8605L243.134 52.7138L244.595 46.647L247.582 47.8907L241.334 70.0247L229.403 70.8201Z" fill="white"/>
<path d="M226.879 73.5533L231.456 53.914H243.857L248.239 46.8276L244.617 67.8481L240.228 72.4398L226.879 73.5533Z" fill="#407BFF"/>
<path opacity="0.2" d="M243.857 53.914L240.228 72.4398L244.617 67.8481L248.239 46.8276L243.857 53.914Z" fill="black"/>
<path d="M245.803 60.95C245.803 60.95 243.706 61.6441 243.424 62.8879C243.134 64.1244 242.664 71.753 242.664 71.753C242.664 71.753 245.904 70.9938 246.381 69.2728C246.858 67.5591 245.803 60.95 245.803 60.95Z" fill="#EBB376"/>
</g>
<defs>
<clipPath id="clip0">
<rect width="248.239" height="245.47" fill="white"/>
</clipPath>
</defs>
</svg>
