<svg width="288" height="253" viewBox="0 0 288 253" fill="none" xmlns="http://www.w3.org/2000/svg">
<path d="M259.909 224.92H246.51V225.951H259.909V224.92Z" fill="#EBEBEB"/>
<path d="M123.863 229.043H56.8701V230.074H123.863V229.043Z" fill="#EBEBEB"/>
<path d="M67.7934 154.65H16.8V218.392H67.7934C72.728 218.392 76.7603 214.36 76.7603 209.425V163.617C76.7603 158.683 72.728 154.65 67.7934 154.65Z" fill="#F0F0F0"/>
<path d="M17.2223 154.65H16.3772C11.4426 154.65 7.4104 158.683 7.4104 163.617V209.425C7.4104 214.36 11.4426 218.392 16.3772 218.392H17.2223C22.1569 218.392 26.1891 214.36 26.1891 209.425V163.617C26.1891 158.683 22.1498 154.65 17.2223 154.65Z" fill="#F5F5F5"/>
<path d="M23.6272 218.387H90.1836V178.159H23.6272V218.387Z" fill="#F0F0F0"/>
<path d="M18.1605 220.405H138.117C139.134 220.405 139.957 219.581 139.957 218.564V218.392H67.8217L16.3198 218.564C16.3198 219.581 17.1435 220.405 18.1605 220.405Z" fill="#E0E0E0"/>
<path d="M70.7008 128.201H132.631C139.535 128.201 144.648 133.802 144.04 140.706L139.957 187.252H53.0178L57.1002 140.706C57.7018 133.802 63.7895 128.201 70.7008 128.201Z" fill="#E0E0E0"/>
<path d="M60.9175 128.201H124.05C130.625 128.201 135.488 133.53 134.908 140.104L130.776 187.252H43.8362L47.9686 140.104C48.5416 133.537 54.3428 128.201 60.9175 128.201Z" fill="#F5F5F5"/>
<path d="M28.9609 174.489H81.6803C84.7958 174.489 87.324 177.017 87.324 180.133V185.225C87.324 188.34 84.7958 190.869 81.6803 190.869H28.9609C24.4345 190.869 20.7676 187.202 20.7676 182.675C20.7676 178.156 24.4345 174.489 28.9609 174.489Z" fill="#E0E0E0"/>
<path d="M141.468 154.65H90.4751V218.392H141.468C146.403 218.392 150.435 214.36 150.435 209.425V163.617C150.435 158.683 146.403 154.65 141.468 154.65Z" fill="#F0F0F0"/>
<path d="M90.8979 154.65H90.0528C85.1181 154.65 81.0859 158.683 81.0859 163.617V209.425C81.0859 214.36 85.1181 218.392 90.0528 218.392H90.8979C95.8325 218.392 99.8647 214.36 99.8647 209.425V163.617C99.8647 158.683 95.8253 154.65 90.8979 154.65Z" fill="#F5F5F5"/>
<path d="M231.194 119.607H182.17V220.397H231.194V119.607Z" fill="#F0F0F0"/>
<path d="M189.5 212.552L189.5 127.46H188.368L188.368 212.552H189.5Z" fill="#E6E6E6"/>
<path d="M223.96 127.463H188.365V128.896H223.96V127.463Z" fill="#E6E6E6"/>
<path d="M281.35 119.607H232.326V220.397H281.35V119.607Z" fill="#F0F0F0"/>
<path d="M281.353 220.404H287.842V119.614H281.353V220.404Z" fill="#E0E0E0"/>
<path d="M239.657 212.55L239.657 127.458H238.526L238.526 212.55H239.657Z" fill="#E6E6E6"/>
<path d="M232.328 220.401L232.328 120.757H231.196L231.196 220.401H232.328Z" fill="#E6E6E6"/>
<path d="M274.123 127.463H238.528V128.896H274.123V127.463Z" fill="#E6E6E6"/>
<path d="M229.046 141.909H226.611V164.183H229.046V141.909Z" fill="#E0E0E0"/>
<path d="M236.909 141.909H234.474V164.183H236.909V141.909Z" fill="#E0E0E0"/>
<path d="M267.792 14.5116H17.824V103.671H267.792V14.5116Z" fill="#E0E0E0"/>
<path d="M265.5 14.5116H15.532V103.671H265.5V14.5116Z" fill="#F0F0F0"/>
<path d="M258.002 96.1729V22.0104L23.0311 22.0104V96.1729L258.002 96.1729Z" fill="#FAFAFA"/>
<path d="M61.175 96.1655L76.7452 22.0102H111.116L95.5455 96.1655H61.175Z" fill="white"/>
<path d="M110.049 96.1655L125.619 22.0102H142.808L127.238 96.1655H110.049Z" fill="white"/>
<path d="M214.979 96.1655L230.557 22.0102H247.738L232.168 96.1655H214.979Z" fill="white"/>
<path d="M141.899 252.748C218.458 252.748 280.522 249.057 280.522 244.503C280.522 239.949 218.458 236.258 141.899 236.258C65.3395 236.258 3.27588 239.949 3.27588 244.503C3.27588 249.057 65.3395 252.748 141.899 252.748Z" fill="#F5F5F5"/>
<path d="M81.5082 29.3513C83.313 25.2116 67.3274 21.4516 62.4931 34.1999C58.11 45.7594 50.8334 48.703 54.2568 56.7029C57.9595 65.3689 78.9155 66.4074 88.0113 56.8032C95.3881 49.0181 87.3738 45.7451 88.4123 38.4184C89.4365 31.106 87.2664 28.7139 81.5082 29.3513Z" fill="#263238"/>
<path d="M52.3804 54.1389C51.5496 49.6269 53.2255 47.7648 55.3383 45.4085C57.272 43.2599 59.6785 40.5813 60.9963 34.8374C62.0634 30.1749 65.2505 27.1239 69.9702 26.2501C74.6972 25.3764 79.7034 26.9162 81.0212 28.8858C81.4581 29.5303 81.4796 30.2179 81.0928 30.8267L80.4912 30.4399C80.7204 30.0746 80.6989 29.7022 80.4267 29.2868C79.2522 27.5393 74.4823 26.1427 70.0992 26.9592C66.9694 27.5393 62.973 29.4086 61.691 35.0021C60.3302 40.9322 57.8593 43.6824 55.8683 45.8955C53.8056 48.1945 52.3088 49.8489 53.0823 54.0172L52.3804 54.1389Z" fill="#263238"/>
<path d="M42.5328 50.7155L42.0888 49.2903C41.788 48.3162 41.2294 47.4425 40.4845 46.7478L39.0736 45.4443C38.1425 44.5777 36.7245 44.5061 35.7075 45.2652L34.1676 46.4111C32.9931 47.2921 32.7567 48.9608 33.652 50.1282L34.6403 51.4174C34.6403 51.4174 36.9536 55.335 40.3126 56.7029L41.0861 56.044C41.1004 56.0369 41.1148 56.0225 41.1219 56.0082C42.626 54.7119 43.1273 52.5991 42.5328 50.7155Z" fill="#FFC3BD"/>
<path d="M70.3715 75.5748L69.9131 75.9257L69.5407 76.1979L68.8173 76.6992C68.3375 77.0143 67.8576 77.3151 67.3706 77.5945C66.3966 78.1603 65.3939 78.6616 64.3626 79.12C62.2928 80.0152 60.0797 80.7171 57.7377 81.0895C55.4029 81.4906 52.9177 81.5192 50.454 81.1325C49.2221 80.932 48.0046 80.6311 46.83 80.1943C46.5364 80.094 46.2427 79.9794 45.9562 79.8577L45.5265 79.6786L45.3117 79.5855L45.0753 79.4781L44.7745 79.3348C44.0225 78.9481 43.4639 78.504 43.0556 78.1244C42.6259 77.7234 42.3251 77.3653 42.0458 77.0215C41.0145 75.6607 40.5561 74.5506 40.0977 73.4763C39.668 72.4092 39.3386 71.3993 39.0449 70.4038C38.4935 68.4056 38.0709 66.479 37.7486 64.5525C37.0969 60.6922 36.7244 56.9178 36.6528 53.0217C36.6242 51.4245 37.899 50.0996 39.4961 50.0709C40.7638 50.0494 41.8596 50.8444 42.275 51.976L42.3036 52.0548C43.5498 55.4854 44.7459 58.9948 46.0135 62.3394C46.6581 64.001 47.2955 65.6554 48.0117 67.1594C48.3555 67.9114 48.7136 68.6348 49.0717 69.2507C49.4155 69.8595 49.8452 70.4038 49.9813 70.4898C50.0028 70.4969 50.0099 70.4826 49.9383 70.3967C49.8739 70.3322 49.702 70.1603 49.3654 69.9813L49.2293 69.9096C49.1935 69.8882 49.1004 69.8595 49.1505 69.8738L49.2651 69.9025L49.4943 69.9598C49.6447 70.0027 49.7951 70.0457 49.9455 70.0672C50.5471 70.2104 51.163 70.2391 51.7789 70.2892C53.0108 70.3537 54.2928 70.1961 55.6106 69.8882C56.9213 69.5659 58.2749 69.1003 59.607 68.4701C60.2731 68.1693 60.932 67.8183 61.5765 67.4674C61.8988 67.2884 62.214 67.1021 62.5148 66.9159L63.2596 66.4504L63.8183 66.1066C66.5255 64.4236 70.0778 65.2615 71.7609 67.9687C73.3365 70.4969 72.6848 73.7914 70.3715 75.5748Z" fill="#FFC3BD"/>
<path d="M82.9624 241.511C87.4959 240.021 91.3204 236.956 90.5469 231.577C90.2175 229.271 97.6087 228.369 97.6087 228.369C96.7635 235.695 97.6874 236.927 98.5684 238.618C99.4564 240.315 99.3992 242.292 97.8665 242.478C96.033 242.693 95.6248 242.492 93.3473 242.793C90.6902 243.144 88.957 244.541 83.6356 244.541C80.7207 244.541 81.5085 241.991 82.9624 241.511Z" fill="#407BFF"/>
<path d="M96.7204 163.259C97.2432 126.561 93.8413 106.558 93.8413 106.558L66.6902 107.911C66.6902 107.911 70.7081 141.487 77.8342 166.217C79.7393 179.488 84.0294 201.934 87.0016 217.01C91.6927 216.537 96.3981 215.728 100.015 214.546C101.075 201.296 101.261 182.138 96.7204 163.259Z" fill="#407BFF"/>
<path d="M97.3075 231.964C97.3075 231.964 98.3675 225.031 99.0837 214.546C95.9897 215.728 91.9647 216.537 87.9468 217.01C89.4938 226.17 90.5967 231.993 90.5967 231.993C91.9432 232.652 95.3666 232.881 97.3075 231.964Z" fill="#FFC3BD"/>
<path d="M85.5403 212.62C85.7838 213.88 86.4356 217.038 87.0873 218.149C87.1661 218.277 87.295 218.371 87.4526 218.385C92.5161 219.022 97.5724 218.005 99.6638 217.089C99.7783 217.038 99.8715 216.945 99.9144 216.824C100.48 215.312 100.695 212.111 100.752 210.765C100.767 210.449 100.487 210.206 100.179 210.27C98.5178 210.6 93.4615 211.509 85.9772 212.047C85.6907 212.068 85.483 212.333 85.5403 212.62Z" fill="#263238"/>
<path d="M67.0625 64.7602C63.0374 65.505 56.8996 68.8783 56.8996 68.8783C56.8996 68.8783 53.6695 76.6133 57.537 82.1853C61.3472 83.0805 63.2881 82.35 63.2881 82.35L67.0625 64.7602Z" fill="#263238"/>
<path opacity="0.2" d="M57.5369 82.1853C61.347 83.0805 63.288 82.35 63.288 82.35L63.1519 71.9078C60.5449 75.3957 58.3891 78.8478 57.5369 82.1853Z" fill="black"/>
<path opacity="0.2" d="M96.5771 141.608C93.5404 134.181 90.2746 128.065 89.0212 122.479C86.887 137.669 88.5629 151.642 96.7347 161.655C96.8278 154.264 96.749 147.574 96.5771 141.608Z" fill="black"/>
<path d="M138.059 199.85L127.223 207.556C118.378 196.032 105.114 178.428 101.906 170.765C93.7553 151.32 77.3687 108.477 77.3687 108.477L98.6398 103.535C98.6398 103.535 112.061 115.997 120.72 163.023C127.99 173.3 134.092 188.455 138.059 199.85Z" fill="#407BFF"/>
<path d="M137.457 236.376C140.158 231.097 140.193 225.282 137.278 220.698C136.025 218.736 142.392 214.861 142.392 214.861C144.641 221.887 146.474 222.295 148.036 223.377C149.647 224.494 149.755 226.815 148.437 227.61C146.854 228.562 146.245 229.185 144.849 231.004C143.216 233.131 142.299 236.111 139.957 237.944C138.467 239.119 136.269 238.689 137.457 236.376Z" fill="#407BFF"/>
<path d="M143.574 218.077C143.574 218.077 141.705 211.502 138.03 201.654C135.703 204.004 132.365 206.396 128.899 208.487C134.077 216.193 137.866 221.73 137.866 221.73C140.172 221.006 142.184 219.71 143.574 218.077Z" fill="#FFC3BD"/>
<path d="M124.903 205.486C125.64 206.532 127.538 209.146 128.591 209.884C128.72 209.97 128.878 209.998 129.021 209.955C133.898 208.451 138.081 205.436 139.613 203.739C139.699 203.645 139.742 203.524 139.735 203.395C139.628 201.783 138.503 198.782 138.002 197.529C137.887 197.236 137.529 197.128 137.279 197.314C135.903 198.295 131.671 201.21 125.075 204.784C124.817 204.92 124.731 205.25 124.903 205.486Z" fill="#263238"/>
<path d="M60.9174 75.4745C61.8915 81.8057 58.1099 86.726 63.9183 89.6481C62.9515 94.461 64.3839 104.094 66.69 107.911C69.9129 109.666 85.7194 107.073 98.6325 103.535C98.4463 98.0205 93.9056 87.17 95.1661 69.1075C95.4597 64.9177 92.0578 61.4012 87.8609 61.5516C86.7364 61.5946 85.5547 61.659 84.3515 61.7665C79.6604 62.1818 75.8216 62.5543 71.775 63.4925C70.4357 63.8005 69.0535 64.1657 67.7357 64.5381C62.9944 65.8774 60.1726 70.6044 60.9174 75.4745Z" fill="#263238"/>
<path d="M70.0491 70.6258C70.0491 70.6258 74.0884 69.1433 76.2155 72.7816C79.7392 70.7977 84.7097 62.411 84.3516 61.7736C78.4429 63.3851 70.0491 70.6258 70.0491 70.6258Z" fill="white"/>
<path d="M70.0492 70.6258C70.0492 70.6258 66.9767 70.2606 66.1101 72.975C66.1388 67.6035 69.7341 64.2302 71.3169 63.5999C70.7869 64.9965 70.0492 70.6258 70.0492 70.6258Z" fill="white"/>
<path d="M82.8048 47.5499C82.3536 51.7325 82.282 58.4719 84.3589 61.7665C84.3589 61.7665 76.5165 67.1666 70.0493 70.6258C68.0224 65.9347 71.3169 63.5999 71.3169 63.5999C74.3894 62.4182 74.3608 58.4934 73.9454 55.4782L82.8048 47.5499Z" fill="#FFC3BD"/>
<path opacity="0.2" d="M73.9451 55.4782L78.9799 50.9662C79.1662 51.6466 79.0874 52.6421 78.8224 53.4944C78.0346 55.9724 75.9576 57.9634 74.1098 59.0449C74.2029 57.8632 74.1026 56.6098 73.9451 55.4782Z" fill="black"/>
<path d="M84.4232 39.7648C83.7428 46.5615 83.5996 49.455 80.0902 52.8211C74.8047 57.8847 66.7689 55.5642 65.4368 48.6958C64.2407 42.515 65.5514 32.4381 72.1977 29.9815C78.7437 27.5608 85.0964 32.9681 84.4232 39.7648Z" fill="#FFC3BD"/>
<path d="M82.9049 44.7424C80.4555 42.558 80.8781 38.7908 82.6686 36.9716C84.4591 35.1597 86.9801 38.9054 86.9801 38.9054L82.9049 44.7424Z" fill="#263238"/>
<path d="M74.6329 41.6484C74.6114 42.1999 74.2963 42.6439 73.9382 42.6296C73.5729 42.6153 73.3007 42.1569 73.3222 41.5983C73.3437 41.0468 73.6588 40.6028 74.0169 40.6171C74.375 40.6314 74.6544 41.0898 74.6329 41.6484Z" fill="#263238"/>
<path d="M67.8001 41.4765C67.7786 42.028 67.4635 42.472 67.1054 42.4577C66.7401 42.4434 66.468 41.985 66.4895 41.4264C66.511 40.8749 66.8261 40.4309 67.1842 40.4452C67.5494 40.4595 67.8216 40.9251 67.8001 41.4765Z" fill="#263238"/>
<path d="M67.3417 40.4882L66.0239 40.0513C66.0239 40.0513 66.6685 41.1184 67.3417 40.4882Z" fill="#263238"/>
<path d="M69.4835 41.6986C69.4835 41.6986 68.445 44.0477 67.3635 45.165C68.0726 45.874 69.3259 45.6162 69.3259 45.6162L69.4835 41.6986Z" fill="#ED847E"/>
<path d="M72.4414 47.7862C72.1549 47.8292 71.8398 47.8435 71.5103 47.8292C71.4172 47.8292 71.3528 47.7504 71.3528 47.6573C71.3599 47.5714 71.4316 47.4998 71.5247 47.4998C73.9598 47.6 75.163 45.9385 75.1773 45.9241C75.2274 45.8525 75.3349 45.831 75.4065 45.8883C75.4781 45.9385 75.4996 46.0459 75.4423 46.1175C75.3921 46.182 74.4181 47.5141 72.4414 47.7862Z" fill="#263238"/>
<path d="M85.5546 45.4658C84.9101 46.7549 83.8214 47.5427 82.8044 47.8006C81.2789 48.1802 80.5699 46.5043 81.0426 44.8283C81.4651 43.3172 82.7686 41.3046 84.2798 41.6771C85.7695 42.0352 86.2923 43.9904 85.5546 45.4658Z" fill="#FFC3BD"/>
<path d="M80.8995 30.0818C75.4994 33.4838 69.7411 35.1525 65.0429 35.7541C64.9999 30.8625 74.597 25.3692 80.8995 30.0818Z" fill="#263238"/>
<path d="M77.2111 30.6834C76.0938 34.9806 87.1949 42.8373 85.1108 50.4362C88.749 44.7639 86.1278 32.0227 86.1278 32.0227C86.1278 32.0227 76.7169 26.0854 77.2111 30.6834Z" fill="#263238"/>
<path d="M76.0578 37.9958C75.9719 37.9815 75.8931 37.9313 75.843 37.8597C75.0265 36.6565 73.8233 36.6637 73.8089 36.6637C73.6299 36.6637 73.4795 36.5276 73.4795 36.3414C73.4795 36.1623 73.6156 36.0119 73.8018 36.0119C73.8662 36.0119 75.3703 35.9976 76.3873 37.4945C76.4875 37.6449 76.4517 37.8454 76.3013 37.9457C76.2225 37.9958 76.1366 38.0101 76.0578 37.9958Z" fill="#263238"/>
<path d="M64.7779 37.7523C64.6992 37.7523 64.6132 37.7165 64.5559 37.6592C64.427 37.5303 64.427 37.3226 64.5559 37.2008C65.8307 35.926 67.3061 36.2196 67.3706 36.2268C67.5496 36.2626 67.6571 36.4345 67.6212 36.6135C67.5854 36.7926 67.4136 36.9 67.2345 36.8642C67.1772 36.8499 66.0313 36.6422 65.0143 37.6592C64.9498 37.7236 64.8639 37.7595 64.7779 37.7523Z" fill="#263238"/>
<path d="M74.1743 40.6529L72.8564 40.216C72.8564 40.216 73.4939 41.2832 74.1743 40.6529Z" fill="#263238"/>
<path opacity="0.2" d="M95.0013 72.6026C94.8653 76.8425 95.0443 80.6526 95.3809 84.0474C91.7784 80.2659 87.3022 73.1254 87.0085 69.5444L95.0013 72.6026Z" fill="black"/>
<path d="M118.385 59.1308L119.173 54.583L126.235 57.3117C126.235 57.3117 124.602 61.5444 121.58 63.4137L120.742 62.8837C119.374 62.0171 118.507 60.6349 118.385 59.1308Z" fill="#FFC3BD"/>
<path d="M123.578 52.0476L125.898 53.3081C126.958 53.8811 127.352 55.2061 126.786 56.266L126.235 57.3045L119.173 54.5758L120.849 52.5633C121.515 51.7683 122.661 51.5463 123.578 52.0476Z" fill="#FFC3BD"/>
<path d="M93.7409 64.3233L94.6361 65.2543L95.6173 66.2499C96.2834 66.9016 96.9494 67.5677 97.637 68.1979C98.9978 69.4799 100.409 70.6688 101.812 71.7789C103.223 72.8604 104.663 73.8344 106.038 74.5721C107.42 75.3026 108.724 75.7538 109.683 75.8756L107.757 76.2337C107.284 76.4629 107.313 76.5631 107.413 76.4843C107.521 76.4199 107.721 76.2552 107.943 76.0331C108.387 75.5891 108.896 74.9588 109.375 74.2784C110.35 72.8962 111.338 71.3277 112.262 69.7019C113.214 68.0833 114.131 66.4003 115.048 64.71L117.805 59.6107L117.827 59.5677C118.586 58.1568 120.348 57.634 121.759 58.3932C122.869 58.9948 123.434 60.2266 123.241 61.4083C122.912 63.471 122.46 65.4191 121.959 67.4029C121.451 69.3796 120.856 71.3349 120.183 73.3044C119.474 75.2596 118.729 77.2364 117.691 79.2417C117.168 80.2516 116.595 81.2686 115.807 82.3643C115.413 82.9158 114.955 83.4816 114.339 84.0832C113.716 84.6705 112.942 85.3652 111.553 85.9668C111.03 86.196 110.486 86.3106 109.941 86.3178L109.626 86.3249C106.453 86.3822 103.746 85.5944 101.411 84.606C100.237 84.1047 99.1267 83.5532 98.0739 82.966C97.0282 82.3643 96.0327 81.7269 95.073 81.068C93.1536 79.7502 91.3989 78.3106 89.7302 76.8066C88.9065 76.0475 88.0901 75.2811 87.3094 74.479C86.9155 74.0779 86.5288 73.6697 86.1492 73.2543C85.7553 72.8174 85.4186 72.4378 84.9674 71.9078C82.9048 69.4728 83.2056 65.8201 85.6407 63.7575C87.9755 61.7808 91.4275 61.9741 93.526 64.1442L93.7409 64.3233Z" fill="#FFC3BD"/>
<path d="M88.183 61.5659C93.4328 61.7235 98.6539 68.0332 98.6539 68.0332C98.6539 68.0332 96.627 76.3769 90.876 79.9722C87.6459 77.4512 84.8957 75.4315 84.8957 75.4315C80.3263 68.6993 81.8518 64.2373 88.183 61.5659Z" fill="#263238"/>
<path d="M65.6443 107.41C66.031 109.659 66.4966 111.413 66.647 111.958C66.6756 112.072 66.7544 112.165 66.8618 112.223C67.6282 112.652 71.1232 114.343 77.5332 113.999C84.731 113.605 95.2018 109.716 100.659 105.533C100.824 105.412 100.881 105.19 100.803 104.996C100.344 103.922 99.6566 102.812 99.3343 102.303C99.2269 102.131 99.0192 102.06 98.8258 102.117C96.4767 102.826 81.6872 107.066 66.1098 106.88C65.8162 106.88 65.5942 107.131 65.6443 107.41Z" fill="#407BFF"/>
<path opacity="0.3" d="M65.6443 107.41C66.031 109.659 66.4966 111.413 66.647 111.958C66.6756 112.072 66.7544 112.165 66.8618 112.223C67.6282 112.652 71.1232 114.343 77.5332 113.999C84.731 113.605 95.2018 109.716 100.659 105.533C100.824 105.412 100.881 105.19 100.803 104.996C100.344 103.922 99.6566 102.812 99.3343 102.303C99.2269 102.131 99.0192 102.06 98.8258 102.117C96.4767 102.826 81.6872 107.066 66.1098 106.88C65.8162 106.88 65.5942 107.131 65.6443 107.41Z" fill="white"/>
<path d="M209.178 223.277H114.883C107.449 223.277 101.72 217.196 102.156 209.755L113.651 13.7596C114.088 6.32547 120.527 0.237778 127.961 0.237778H222.256C229.69 0.237778 235.42 6.31831 234.983 13.7596L223.488 209.755C223.051 217.189 216.612 223.277 209.178 223.277Z" fill="#407BFF"/>
<path opacity="0.8" d="M209.178 223.277H114.883C107.449 223.277 101.72 217.196 102.156 209.755L113.651 13.7596C114.088 6.32547 120.527 0.237778 127.961 0.237778H222.256C229.69 0.237778 235.42 6.31831 234.983 13.7596L223.488 209.755C223.051 217.189 216.612 223.277 209.178 223.277Z" fill="white"/>
<path d="M208.596 219.767H117.326C112.12 219.767 108.113 215.487 108.419 210.253L119.815 14.9053C120.121 9.67141 124.628 5.39105 129.827 5.39105H221.097C226.303 5.39105 230.31 9.67141 230.004 14.9053L218.608 210.253C218.302 215.487 213.795 219.767 208.596 219.767Z" fill="#407BFF"/>
<path d="M207.566 218.737H116.295C111.09 218.737 107.082 214.456 107.389 209.222L118.784 13.8747C119.091 8.64075 123.598 4.3604 128.796 4.3604H220.066C225.272 4.3604 229.28 8.64075 228.973 13.8747L217.578 209.222C217.271 214.456 212.764 218.737 207.566 218.737Z" fill="white"/>
<path opacity="0.1" d="M204.584 211.522H119.096C115.865 211.522 113.379 208.861 113.566 205.608L118.344 123.646C118.53 120.394 121.331 117.732 124.562 117.732H210.05C213.281 117.732 215.767 120.394 215.581 123.646L210.802 205.608C210.616 208.861 207.815 211.522 204.584 211.522Z" fill="#407BFF"/>
<path opacity="0.1" d="M195.886 97.1887C211.229 82.2883 212.276 58.4795 198.224 44.0104C184.173 29.5412 160.343 29.8908 145 44.7913C129.657 59.6917 128.61 83.5005 142.662 97.9696C156.713 112.439 180.543 112.089 195.886 97.1887Z" fill="#407BFF"/>
<path d="M143.966 96.0886C137.813 89.4788 134.722 80.6916 135.26 71.3529L135.957 71.3954C135.427 80.536 138.455 89.1324 144.476 95.6009L143.966 96.0886Z" fill="#407BFF"/>
<path d="M205.241 71.3529L204.755 71.3069C204.881 67.8739 204.716 64.4793 204.254 61.2153L204.73 61.0464C205.202 64.3872 205.373 67.8509 205.241 71.3529Z" fill="#407BFF"/>
<path d="M202.537 55.8931C201.009 52.4598 198.929 49.3127 196.35 46.5495C192.78 42.7247 188.501 39.8636 183.641 38.0491L183.902 37.3413C188.874 39.1935 193.242 42.1223 196.894 46.03C199.533 48.8534 201.658 52.0683 203.223 55.5844L202.537 55.8931Z" fill="#407BFF"/>
<path d="M192.612 93.8175C205.983 80.8323 206.897 60.0852 194.653 47.4775C182.409 34.8699 161.644 35.1759 148.273 48.1611C134.902 61.1463 133.988 81.8934 146.232 94.501C158.476 107.109 179.241 106.803 192.612 93.8175Z" fill="#407BFF"/>
<path d="M166.958 74.9971C166.965 74.9971 166.971 74.99 166.978 74.99C168.493 74.6472 169.202 73.2976 169.519 71.7694C169.553 71.6123 169.581 71.4552 169.608 71.291C169.615 71.241 169.622 71.1981 169.629 71.1482C169.718 70.5055 169.76 69.8414 169.766 69.2272C166.896 68.8988 164.486 66.5851 164.356 63.1289C164.252 60.5153 164.831 57.1162 166.194 54.3955C165.918 54.4312 165.595 54.5455 165.264 54.7954C165.209 54.8383 165.14 54.8525 165.078 54.8383C165.023 54.824 164.968 54.7954 164.927 54.7383C164.851 54.6312 164.872 54.4741 164.975 54.3955C165.519 53.9742 166.063 53.8814 166.462 53.8814C166.558 53.71 166.655 53.5315 166.758 53.3672C166.324 53.3744 165.898 53.3815 165.485 53.3672C165.939 50.0681 172.059 47.2974 176.23 49.8253C178.089 50.2109 181.153 52.9602 181.153 52.9602C181.153 52.9602 181.27 55.3453 181.008 58.2302C180.733 61.208 180.051 64.7213 178.399 66.6708C178.833 65.6568 178.943 64.5928 178.84 63.5002C178.399 63.9429 177.896 64.2143 177.408 64.3428C177.208 64.7927 176.988 65.2069 176.733 65.5996C176.086 68.6631 175.625 72.7477 176.609 75.0899C177.497 75.1471 178.358 75.2328 179.177 75.3256C179.246 75.3327 179.308 75.347 179.376 75.3613C179.913 75.0328 180.437 74.6686 180.932 74.2616C187.121 69.2558 180.547 63.4002 182.103 58.0231C183.651 52.646 182.343 50.6037 178.11 50.4252C179.872 47.5259 168.713 42.8772 163.812 51.9033C159.372 60.0797 157.94 64.1572 159.537 70.5555C160.039 72.5763 161.43 74.2616 163.33 75.4756C163.64 75.3899 163.956 75.3185 164.28 75.2756C165.154 75.1756 166.063 75.0757 166.958 74.9971Z" fill="#263238"/>
<path d="M156.388 88.2653C156.074 87.7179 155.824 87.2215 155.646 86.8128C155.16 88.2872 154.681 89.7617 154.21 91.2142C153.774 92.5281 153.346 93.8419 152.903 95.0974L152.238 96.8711L151.945 97.5718C151.845 97.7689 151.945 97.6594 151.931 97.7105C151.803 97.9076 151.36 98.3237 150.924 98.7105C150.838 98.7835 150.745 98.8565 150.66 98.9368C152.617 100.28 154.731 101.411 156.996 102.273C157.046 98.9368 157.446 95.4697 157.874 94.5427C155.36 92.7032 155.746 90.7178 156.388 88.2653Z" fill="#FFC3BD"/>
<path d="M157.648 82.9832C157.648 81.3488 158.109 79.822 158.905 78.5675C157.234 81.098 155.813 85.442 155.813 85.442C155.813 85.442 155.931 85.8291 156.181 86.4169C156.346 86.8112 156.576 87.3058 156.866 87.8434C157.214 86.4097 157.648 84.8112 157.648 82.9832Z" fill="#263238"/>
<path d="M182.53 93.2979C181.758 92.2284 180.957 90.8775 180.237 89.4492C180.018 89.5618 179.793 89.6743 179.56 89.7729C177.376 87.5424 175.512 85.7412 175.512 85.7412C172.79 80.253 174.471 77.122 179.633 75.8555C180.419 75.9962 181.176 76.3128 181.889 76.735C181.227 76.2847 180.455 75.9751 179.603 75.8485C179.531 75.8344 179.465 75.8203 179.392 75.8133C178.526 75.7148 177.616 75.6374 176.677 75.5811C176.873 76.0947 172.2 82.582 169.273 83.6515C168.072 80.7245 164.702 80.5274 164.702 80.5274C164.702 80.5274 161.557 79.9012 160.581 81.8151C161.222 77.8608 165.16 75.7781 166.471 75.4755C165.531 75.5529 164.571 75.6514 163.646 75.764C163.297 75.8062 162.969 75.8766 162.641 75.961C161.105 76.3621 159.802 77.2275 158.849 78.3814C158.783 78.4588 158.718 78.5362 158.659 78.6207C158.623 78.6629 158.587 78.7121 158.557 78.7544C157.669 79.9857 157.16 81.4844 157.167 83.0886C157.174 84.8828 156.686 86.4518 156.301 87.8661C155.645 90.2302 155.252 92.151 157.822 93.9101C157.393 94.8036 156.978 98.1458 156.927 101.361C160.414 102.621 164.221 103.303 168.232 103.303C173.285 103.303 178.133 102.213 182.544 100.264C182.443 98.0121 182.413 95.3876 182.61 92.4043C182.574 92.6999 182.544 93.0094 182.53 93.2979Z" fill="#263238"/>
<path d="M165.089 80.5291C165.089 80.5291 168.278 80.7375 169.415 83.7208C172.184 82.6281 176.606 76.0003 176.42 75.4755C176.42 75.4755 170.152 78.6529 165.089 80.5291Z" fill="white"/>
<path d="M167.15 75.4755C167.142 75.4755 167.135 75.4824 167.127 75.4824C165.764 75.7772 161.644 77.8065 160.966 81.6595C161.987 79.7947 165.277 80.4049 165.277 80.4049C164.233 76.7987 167.15 75.4755 167.15 75.4755Z" fill="white"/>
<path d="M177.457 66.1997C176.88 67.0305 176.142 67.7548 175.09 68.472C174.689 68.7489 174.272 68.969 173.849 69.1608C172.906 70.7514 171.219 71.8875 169.773 72.4485C169.78 72.4059 169.788 72.3633 169.795 72.3278C169.452 73.8474 168.699 75.1895 167.1 75.5303C167.1 75.5303 164.295 76.9008 165.31 80.6288C170.679 78.7826 177.325 75.6368 177.325 75.6368C176.281 73.3077 176.77 69.2389 177.457 66.1997Z" fill="#FFC3BD"/>
<path d="M173.334 69.2916C172.061 69.8326 170.743 70.0129 169.5 69.8927C169.492 70.467 169.448 71.088 169.352 71.6891C169.344 71.7358 169.337 71.7759 169.33 71.8226C169.3 71.9695 169.27 72.1231 169.233 72.2701C169.226 72.3101 169.219 72.3502 169.211 72.3836C170.677 71.8493 172.379 70.7808 173.334 69.2916Z" fill="#FFC3BD"/>
<path opacity="0.2" d="M173.334 69.2916C172.061 69.8326 170.743 70.0129 169.5 69.8927C169.492 70.467 169.448 71.088 169.352 71.6891C169.344 71.7358 169.337 71.7759 169.33 71.8226C169.3 71.9695 169.27 72.1231 169.233 72.2701C169.226 72.3101 169.219 72.3502 169.211 72.3836C170.677 71.8493 172.379 70.7808 173.334 69.2916Z" fill="black"/>
<path d="M173.279 68.6414C173.681 68.457 174.084 68.2454 174.479 67.9791C175.488 67.2895 176.208 66.5931 176.765 65.7942C177.026 65.4187 177.252 65.0227 177.457 64.5926C177.323 64.6267 177.188 64.6608 177.061 64.6745C175.883 64.7837 175.551 63.5001 176.088 62.3462C176.25 61.998 176.497 61.6157 176.793 61.2811C176.462 60.2911 176.589 59.2192 177.005 58.3316C175.932 56.2013 174.796 54.2486 174.69 52.8012C171.818 53.6614 169.01 54.037 166.547 54.0916C166.441 54.2486 166.342 54.4193 166.244 54.5832C166.632 54.5832 166.893 54.6788 166.914 54.6856C167.041 54.7334 167.105 54.8699 167.055 54.9928C167.006 55.1157 166.865 55.1772 166.738 55.1294C166.709 55.1226 166.392 55.0133 165.954 55.0748C164.55 57.6829 163.964 60.9261 164.07 63.425C164.211 66.7296 166.674 68.9418 169.617 69.2559C170.809 69.3788 172.065 69.1876 173.279 68.6414ZM171.705 55.225C171.755 55.2318 172.87 55.3888 173.456 56.57C173.512 56.6861 173.463 56.8295 173.343 56.8841C173.286 56.9114 173.223 56.9114 173.159 56.8978C173.096 56.8773 173.046 56.8363 173.011 56.7749C172.538 55.8258 171.649 55.6961 171.642 55.6961C171.508 55.6756 171.416 55.5595 171.43 55.4298C171.451 55.3001 171.571 55.2113 171.705 55.225ZM171.458 58.6047C171.451 58.6115 171.451 58.6047 171.444 58.6115C171.649 58.7276 171.755 59.028 171.691 59.3694C171.614 59.7654 171.331 60.0453 171.063 59.9975C170.795 59.9497 170.64 59.5879 170.725 59.1919C170.767 58.9665 170.887 58.7822 171.021 58.673C170.718 58.5637 170.534 58.1541 170.534 58.1541L171.458 58.6047ZM165.672 58.3179C165.714 58.0926 165.834 57.9083 165.968 57.799C165.665 57.6898 165.482 57.2801 165.482 57.2801L166.413 57.7376C166.406 57.7376 166.406 57.7376 166.399 57.7444C166.604 57.8605 166.709 58.1609 166.646 58.5023C166.568 58.8983 166.286 59.1782 166.018 59.1304C165.75 59.0758 165.594 58.7139 165.672 58.3179ZM167.309 61.6293C167.309 61.6293 166.349 61.684 165.905 61.09C166.829 60.4072 167.867 58.8368 167.867 58.8368L167.309 61.6293ZM168.671 63.4592C168.608 63.4455 168.558 63.3841 168.572 63.3226C168.586 63.2612 168.65 63.2202 168.713 63.227C170.506 63.5616 171.586 62.5033 171.6 62.4896C171.649 62.4418 171.727 62.4418 171.776 62.4896C171.825 62.5374 171.825 62.6125 171.776 62.6603C171.734 62.7013 170.866 63.5547 169.363 63.5343C169.151 63.5274 168.918 63.507 168.671 63.4592Z" fill="#FFC3BD"/>
<path d="M178.487 60.1446C178.043 59.4002 177.535 58.6702 177.026 57.9544C176.402 58.8849 176.211 60.0086 176.709 61.0464C177.217 60.6313 177.841 60.2877 178.487 60.1446Z" fill="#263238"/>
<path d="M171.596 59.0306C171.452 59.1115 171.336 59.2481 171.293 59.415C171.214 59.7083 171.373 59.9764 171.64 60.0118C171.914 60.0472 172.202 59.8398 172.282 59.5465C172.354 59.2936 172.239 59.0711 172.029 58.9851C171.863 59.061 171.719 59.066 171.596 59.0306Z" fill="#263238"/>
<path d="M167.129 58.5158C167.2 58.263 167.086 58.0404 166.878 57.9544C166.713 58.0303 166.57 58.0303 166.441 57.9999C166.297 58.0809 166.183 58.2174 166.14 58.3843C166.061 58.6777 166.219 58.9457 166.484 58.9811C166.763 59.0166 167.043 58.8092 167.129 58.5158Z" fill="#263238"/>
<path d="M166.104 57.7941C166.112 57.7941 166.112 57.7941 166.12 57.7813L165.089 56.9238C165.089 56.9238 165.292 57.6917 165.628 57.8965C165.768 57.986 165.924 57.986 166.104 57.7941Z" fill="#263238"/>
<path d="M166.119 61.479C166.588 62.1289 167.6 62.076 167.6 62.076L168.181 58.9851C168.188 58.9776 167.094 60.7233 166.119 61.479Z" fill="#ED847E"/>
<path d="M172.258 62.1458C172.195 62.0541 172.097 62.0541 172.034 62.1458C172.016 62.172 170.643 64.2032 168.364 63.5611C168.274 63.5349 168.193 63.6135 168.184 63.7445C168.166 63.8625 168.22 63.9935 168.31 64.0066C168.624 64.0983 168.92 64.1377 169.198 64.1377C171.11 64.177 172.213 62.539 172.267 62.4603C172.321 62.3817 172.312 62.2376 172.258 62.1458Z" fill="#263238"/>
<path d="M178.577 60.0157C178.146 60.1812 177.729 60.5782 177.382 61.0498C177.086 61.4551 176.838 61.9184 176.675 62.3402C176.138 63.7383 176.47 65.2935 177.651 65.1611C177.778 65.1446 177.913 65.1032 178.047 65.0618C178.549 64.9129 179.065 64.5986 179.518 64.0857C179.405 62.7373 179.044 61.3641 178.577 60.0157Z" fill="#FFC3BD"/>
<path d="M174.974 51.6174C175.017 50.6815 175.613 50.4541 176.426 50.6035C172.025 48.303 165.568 50.8245 165.089 53.8269C165.525 53.8334 165.975 53.8334 166.432 53.8269C168.974 53.775 171.865 53.4175 174.814 52.5987C174.792 52.2282 174.836 51.9033 174.974 51.6174Z" fill="#263238"/>
<path d="M174.535 50.9133C174.389 51.2392 174.343 51.617 174.374 52.0243C174.489 53.5946 175.725 55.7055 176.891 58.0238C177.267 58.7644 177.636 59.5273 177.95 60.2902C178.457 61.4975 178.849 62.7344 178.971 63.9417C179.086 65.075 178.964 66.1786 178.48 67.2303C180.33 65.2083 181.09 61.5642 181.389 58.4756C181.681 55.4907 181.55 53.0094 181.55 53.0094C181.55 53.0094 178.127 50.1578 176.062 49.7579C175.21 49.5875 174.581 49.8393 174.535 50.9133Z" fill="#263238"/>
<path d="M171.487 55.4401C171.494 55.4401 172.394 55.5904 172.861 56.759C172.89 56.8341 172.946 56.8842 173.01 56.9092C173.067 56.9343 173.13 56.9259 173.194 56.8925C173.315 56.8257 173.371 56.6505 173.308 56.5086C172.719 55.0645 171.6 54.8725 171.55 54.8642C171.416 54.8475 171.295 54.956 171.274 55.1146C171.26 55.2732 171.352 55.4234 171.487 55.4401Z" fill="#263238"/>
<path d="M166.869 54.4437C166.976 54.4972 167.095 54.4284 167.136 54.2907C167.178 54.1531 167.124 54.0001 167.017 53.9465C167 53.9389 166.78 53.8395 166.454 53.8318C166.11 53.8318 165.647 53.9312 165.172 54.3825C165.083 54.4666 165.059 54.6349 165.131 54.7496C165.166 54.8032 165.208 54.8414 165.261 54.8567C165.315 54.872 165.374 54.8567 165.421 54.8108C165.706 54.5355 165.985 54.4208 166.222 54.3825C166.578 54.3137 166.845 54.4284 166.869 54.4437Z" fill="#263238"/>
<path d="M170.781 58.9319C170.914 59.0208 171.078 59.0081 171.257 58.8177C171.265 58.8177 171.265 58.8177 171.273 58.805L170.242 57.9544C170.242 57.9671 170.437 58.7288 170.781 58.9319Z" fill="#263238"/>
<path d="M182.559 94.0273C182.572 93.7287 182.597 93.4155 182.61 93.1096C182.253 92.4613 181.882 91.8058 181.512 91.1502C181.27 90.7351 181.021 90.3199 180.778 89.9047C180.702 89.9557 180.625 89.9921 180.549 90.0431C181.18 91.5144 181.882 92.9202 182.559 94.0273Z" fill="#263238"/>
<path opacity="0.2" d="M182.559 94.0273C182.572 93.7287 182.597 93.4155 182.61 93.1096C182.253 92.4613 181.882 91.8058 181.512 91.1502C181.27 90.7351 181.021 90.3199 180.778 89.9047C180.702 89.9557 180.625 89.9921 180.549 90.0431C181.18 91.5144 181.882 92.9202 182.559 94.0273Z" fill="black"/>
<path d="M184.832 99.0698L184.81 99.1806C187.772 97.6852 190.504 95.823 192.916 93.6422C192.493 92.4723 192.011 91.4061 191.491 90.3677C190.756 88.8793 189.947 87.4947 189.086 86.1378C188.351 84.947 187.557 83.8117 186.747 82.6901C185.99 84.137 183.897 87.6193 180.549 89.4123C180.838 89.8069 181.12 90.2015 181.402 90.5961C181.84 91.2192 182.271 91.8354 182.679 92.4584C183.043 93.0053 183.399 93.5453 183.733 94.0853C184.298 95.0199 184.839 95.9614 185.248 96.8199L185.174 97.2906C185.077 97.8722 184.966 98.4675 184.832 99.0698Z" fill="#FFC3BD"/>
<path d="M175.624 85.7248C175.624 85.7248 177.442 87.5923 179.573 89.9047C179.8 89.8026 180.021 89.6859 180.234 89.5691C180.319 89.5254 180.404 89.4816 180.489 89.4306C183.693 87.5412 185.696 83.8719 186.42 82.3473C186.626 81.9169 186.733 81.6543 186.733 81.6543C186.733 81.6543 184.68 78.1527 181.853 76.3874C181.157 75.957 180.418 75.6214 179.651 75.4755C174.608 76.7886 172.968 80.0348 175.624 85.7248Z" fill="#263238"/>
<path d="M209.362 20.8509H219.64C220.217 20.8509 220.713 20.3896 220.742 19.8202C220.778 19.2508 220.333 18.7896 219.757 18.7896H209.479C208.903 18.7896 208.407 19.2508 208.378 19.8202C208.348 20.3896 208.786 20.8509 209.362 20.8509Z" fill="#407BFF"/>
<path d="M195.96 149.683H135.246C130.41 149.683 126.685 145.743 126.97 140.922C127.255 136.102 131.443 132.162 136.279 132.162H196.993C201.829 132.162 205.554 136.102 205.269 140.922C204.984 145.743 200.796 149.683 195.96 149.683Z" fill="white"/>
<path d="M194.929 173.388H134.216C129.379 173.388 125.654 169.448 125.939 164.627C126.224 159.807 130.412 155.867 135.248 155.867H195.962C200.798 155.867 204.523 159.807 204.238 164.627C203.953 169.441 199.765 173.388 194.929 173.388Z" fill="white"/>
<path d="M193.776 197.093H132.264C127.364 197.093 123.59 193.153 123.878 188.332C124.167 183.512 128.41 179.572 133.31 179.572H194.822C199.722 179.572 203.496 183.512 203.208 188.332C202.919 193.146 198.676 197.093 193.776 197.093Z" fill="white"/>
<path d="M140.05 143.892C141.909 142.087 142.037 139.204 140.337 137.454C138.637 135.703 135.751 135.747 133.893 137.552C132.034 139.357 131.906 142.239 133.606 143.99C135.306 145.741 138.191 145.697 140.05 143.892Z" fill="#407BFF"/>
<path d="M136.468 160.414L137.031 162.632C137.098 162.884 137.312 163.059 137.567 163.059H139.798C140.368 163.059 140.562 163.821 140.08 164.171L138.197 165.542C137.982 165.696 137.882 165.976 137.942 166.235L138.505 168.452C138.652 169.019 138.002 169.495 137.56 169.145L135.831 167.774C135.63 167.62 135.355 167.62 135.134 167.774L133.251 169.145C132.769 169.495 132.172 169.026 132.38 168.452L133.198 166.235C133.292 165.983 133.218 165.703 133.024 165.542L131.295 164.171C130.852 163.821 131.134 163.059 131.703 163.059H133.935C134.19 163.059 134.424 162.884 134.518 162.632L135.335 160.414C135.55 159.848 136.32 159.848 136.468 160.414Z" fill="#407BFF"/>
<path d="M138.103 185.827L137.73 192.201C137.702 192.745 137.229 193.196 136.677 193.196H131.098C130.554 193.196 130.131 192.752 130.167 192.201L130.633 184.265C130.661 183.714 131.134 183.27 131.686 183.27H135.696L138.103 185.827Z" fill="#407BFF"/>
<path d="M135.689 183.27L138.096 185.827H136.527C135.976 185.827 135.56 185.382 135.596 184.831L135.689 183.27ZM135.052 181.515L134.952 183.227L134.858 184.795C134.83 185.268 134.995 185.712 135.31 186.049C135.625 186.385 136.062 186.571 136.534 186.571H138.103H139.815L138.64 185.325L136.234 182.768L135.052 181.515Z" fill="white"/>
<path opacity="0.2" d="M194.484 139.376H148.921C148.128 139.376 147.521 138.915 147.571 138.345C147.614 137.776 148.299 137.315 149.092 137.315H194.656C195.449 137.315 196.056 137.776 196.006 138.345C195.956 138.915 195.27 139.376 194.484 139.376Z" fill="#407BFF"/>
<path opacity="0.2" d="M185.204 144.529H147.894C147.099 144.529 146.49 143.837 146.54 142.983C146.583 142.13 147.271 141.437 148.066 141.437H185.376C186.171 141.437 186.78 142.13 186.73 142.983C186.68 143.837 185.992 144.529 185.204 144.529Z" fill="#407BFF"/>
<path opacity="0.2" d="M192.594 165.143H180.012C179.219 165.143 178.539 165.835 178.489 166.688C178.447 167.542 179.054 168.234 179.841 168.234H192.422C193.216 168.234 193.895 167.542 193.945 166.688C193.988 165.835 193.38 165.143 192.594 165.143Z" fill="#407BFF"/>
<path opacity="0.2" d="M172.996 165.143H147.048C146.246 165.143 145.559 165.835 145.509 166.688C145.465 167.542 146.08 168.234 146.875 168.234H172.822C173.625 168.234 174.311 167.542 174.362 166.688C174.412 165.835 173.798 165.143 172.996 165.143Z" fill="#407BFF"/>
<path opacity="0.2" d="M184.346 161.02H147.034C146.239 161.02 145.559 161.481 145.508 162.051C145.466 162.62 146.074 163.081 146.863 163.081H184.174C184.969 163.081 185.65 162.62 185.7 162.051C185.743 161.487 185.134 161.02 184.346 161.02Z" fill="#407BFF"/>
<path opacity="0.2" d="M191.563 188.848H145.999C145.206 188.848 144.528 189.54 144.478 190.394C144.435 191.247 145.042 191.94 145.828 191.94H191.392C192.185 191.94 192.863 191.247 192.913 190.394C192.963 189.547 192.356 188.848 191.563 188.848Z" fill="#407BFF"/>
<path opacity="0.2" d="M183.314 184.725H146.004C145.208 184.725 144.528 185.186 144.478 185.756C144.435 186.325 145.044 186.786 145.832 186.786H183.142C183.937 186.786 184.618 186.325 184.668 185.756C184.718 185.186 184.109 184.725 183.314 184.725Z" fill="#407BFF"/>
</svg>
