<svg width="279" height="236" viewBox="0 0 279 236" fill="none" xmlns="http://www.w3.org/2000/svg">
<g clip-path="url(#clip0)">
<path d="M213.598 99.3113C210.17 106.806 208.242 113.898 210.767 117.062C210.917 117.248 211.079 117.42 211.256 117.576C213.201 119.291 217.027 119.331 223.485 116.776C240.673 109.975 241.489 98.2412 244.965 86.7823C248.392 75.4659 260.364 77.3787 260.669 77.4294C232.776 67.6983 219.417 86.6056 213.598 99.3113Z" fill="url(#paint0_linear)"/>
<path d="M210.767 117.061C210.917 117.247 211.079 117.418 211.256 117.575C214.485 115.627 220.668 111.496 223.582 106.861C224.957 104.673 226.112 102.212 227.337 99.61C229.65 94.6869 232.047 89.5966 236.227 85.6916L235.76 85.1887C231.483 89.1856 229.061 94.3361 226.719 99.3195C225.504 101.905 224.358 104.345 223.002 106.497C220.161 111.018 213.914 115.164 210.767 117.061Z" fill="url(#paint1_linear)"/>
<path d="M216.585 102.374C216.787 102.873 216.917 103.155 216.932 103.186C216.986 102.911 217.036 102.638 217.088 102.374C219.382 90.608 222.448 89.3789 231.642 79.086C241.044 68.5589 235.637 58.7524 235.637 58.7524C204.137 67.8656 214.445 97.1136 216.585 102.374Z" fill="url(#paint2_linear)"/>
<path d="M216.585 102.374C216.788 102.873 216.917 103.155 216.933 103.186C216.986 102.911 217.037 102.638 217.089 102.374C216.068 92.2016 222.196 80.2659 224.121 78.1243C226.113 75.9059 227.34 72.8559 227.804 71.7063C227.882 71.5158 227.956 71.3336 227.979 71.2925L227.535 71.0417C227.496 71.1103 227.444 71.2377 227.331 71.5158C226.878 72.6421 225.672 75.6305 223.739 77.7803C221.301 80.496 215.649 92.4893 216.585 102.374Z" fill="url(#paint3_linear)"/>
<path d="M37.9342 54.0058L41.8171 47.6399C42.1359 47.1179 41.9717 46.4369 41.4504 46.1177C40.9291 45.7984 40.2491 45.9642 39.9304 46.4849L37.1844 50.9859L29.8865 46.6603C29.3611 46.3492 28.6825 46.5232 28.3719 47.0494C28.0613 47.5755 28.2351 48.2552 28.7605 48.5662L37.9342 54.0058Z" fill="#EEF0F7"/>
<path d="M35.3279 63.8193C43.0266 63.8193 49.2888 57.5465 49.2888 49.8379C49.2888 42.1278 43.0253 35.8564 35.3279 35.8564C27.6304 35.8564 21.3669 42.1292 21.3669 49.8379C21.3669 57.5465 27.6291 63.8193 35.3279 63.8193ZM35.3279 37.8528C41.9266 37.8528 47.2954 43.2294 47.2954 49.8379C47.2954 56.4463 41.9266 61.8229 35.3279 61.8229C28.7291 61.8229 23.3603 56.4463 23.3603 49.8379C23.3603 43.2281 28.7291 37.8528 35.3279 37.8528Z" fill="#EEF0F7"/>
<path d="M81.1716 33.4421L83.5714 29.5083C83.7684 29.1863 83.6658 28.7642 83.3443 28.5669C83.0227 28.3696 82.6013 28.4724 82.4043 28.7944L80.7078 31.5759L76.1982 28.9026C75.8726 28.7094 75.4539 28.8177 75.2624 29.1424C75.0709 29.4672 75.1776 29.8878 75.5018 30.0796L81.1716 33.4421Z" fill="#F0F0F0"/>
<path d="M79.5612 39.5052C84.3184 39.5052 88.189 35.6289 88.189 30.8648C88.189 26.1006 84.3184 22.2244 79.5612 22.2244C74.804 22.2244 70.9334 26.1006 70.9334 30.8648C70.9334 35.6289 74.804 39.5052 79.5612 39.5052ZM79.5612 23.4589C83.6384 23.4589 86.9562 26.7816 86.9562 30.8648C86.9562 34.9479 83.6384 38.2707 79.5612 38.2707C75.484 38.2707 72.1662 34.9479 72.1662 30.8648C72.1662 26.7816 75.4827 23.4589 79.5612 23.4589Z" fill="#F0F0F0"/>
<path d="M125.539 18.9221L129.22 12.8878C129.522 12.3932 129.366 11.7464 128.872 11.445C128.378 11.1422 127.732 11.2984 127.431 11.793L124.829 16.0598L117.91 11.9588C117.412 11.6628 116.769 11.8286 116.474 12.3274C116.178 12.8261 116.344 13.4701 116.842 13.7661L125.539 18.9221Z" fill="#F0F0F0"/>
<path d="M123.068 28.2245C130.366 28.2245 136.303 22.2792 136.303 14.9706C136.303 7.66205 130.365 1.7168 123.068 1.7168C115.77 1.7168 109.834 7.66205 109.834 14.9706C109.832 22.2779 115.77 28.2245 123.068 28.2245ZM123.068 3.60903C129.324 3.60903 134.413 8.70613 134.413 14.9706C134.413 21.2351 129.324 26.3322 123.068 26.3322C116.813 26.3322 111.723 21.2351 111.723 14.9706C111.723 8.70613 116.813 3.60903 123.068 3.60903Z" fill="#F0F0F0"/>
<path d="M164.465 33.3862L166.897 29.399C167.096 29.0715 166.992 28.6454 166.667 28.4453C166.34 28.2453 165.914 28.3494 165.715 28.6755L163.995 31.4954L159.424 28.7851C159.094 28.5906 158.67 28.6988 158.474 29.029C158.28 29.3592 158.388 29.784 158.718 29.9799L164.465 33.3862Z" fill="#F0C141"/>
<path d="M162.832 39.5328C167.655 39.5328 171.577 35.6045 171.577 30.7746C171.577 25.9447 167.655 22.0164 162.832 22.0164C158.009 22.0164 154.086 25.9447 154.086 30.7746C154.086 35.6045 158.01 39.5328 162.832 39.5328ZM162.832 23.2673C166.965 23.2673 170.328 26.6353 170.328 30.7746C170.328 34.9139 166.965 38.2819 162.832 38.2819C158.698 38.2819 155.335 34.9139 155.335 30.7746C155.335 26.6353 158.698 23.2673 162.832 23.2673Z" fill="#F0C141"/>
<path d="M198.629 14.2335L201.673 9.24188C201.923 8.8322 201.793 8.29782 201.386 8.04845C200.977 7.79907 200.443 7.92787 200.194 8.33756L198.042 11.8672L192.319 8.47458C191.907 8.23068 191.375 8.36633 191.131 8.78013C190.888 9.19256 191.023 9.72556 191.436 9.96945L198.629 14.2335Z" fill="#F0C141"/>
<path d="M196.585 21.9285C202.621 21.9285 207.533 17.0095 207.533 10.9643C207.533 4.91898 202.623 0 196.585 0C190.548 0 185.637 4.91898 185.637 10.9643C185.638 17.0095 190.548 21.9285 196.585 21.9285ZM196.585 1.56613C201.759 1.56613 205.969 5.7822 205.969 10.9643C205.969 16.1463 201.759 20.3624 196.585 20.3624C191.41 20.3624 187.2 16.1463 187.2 10.9643C187.202 5.7822 191.412 1.56613 196.585 1.56613Z" fill="#F0C141"/>
<path d="M237.407 39.0476L240.783 33.5134C241.059 33.0599 240.917 32.4666 240.464 32.1898C240.011 31.913 239.419 32.0555 239.142 32.509L236.756 36.4223L230.412 32.6611C229.955 32.3898 229.365 32.5419 229.094 32.9996C228.823 33.4572 228.975 34.0478 229.432 34.3191L237.407 39.0476Z" fill="#F0C141"/>
<path d="M235.142 47.5784C241.835 47.5784 247.279 42.1251 247.279 35.4235C247.279 28.7205 241.833 23.2686 235.142 23.2686C228.448 23.2686 223.004 28.7219 223.004 35.4235C223.004 42.1251 228.45 47.5784 235.142 47.5784ZM235.142 25.0046C240.878 25.0046 245.545 29.6783 245.545 35.4235C245.545 41.1687 240.878 45.8424 235.142 45.8424C229.405 45.8424 224.738 41.1687 224.738 35.4235C224.739 29.6783 229.406 25.0046 235.142 25.0046Z" fill="#F0C141"/>
<path d="M52.244 16.2942L54.1636 13.1483C54.3209 12.8907 54.2402 12.5536 53.9816 12.396C53.7244 12.2385 53.3878 12.3207 53.2305 12.5783L51.8732 14.8035L48.2653 12.6646C48.0054 12.5111 47.6702 12.5961 47.517 12.8564C47.3623 13.1167 47.4485 13.4524 47.7085 13.6059L52.244 16.2942Z" fill="#F0C141"/>
<path d="M50.9553 21.1447C54.7602 21.1447 57.8564 18.044 57.8564 14.2335C57.8564 10.423 54.7602 7.32227 50.9553 7.32227C47.1504 7.32227 44.0542 10.423 44.0542 14.2335C44.0542 18.044 47.1504 21.1447 50.9553 21.1447ZM50.9553 8.3088C54.2171 8.3088 56.8713 10.967 56.8713 14.2335C56.8713 17.5 54.2171 20.1582 50.9553 20.1582C47.6936 20.1582 45.0393 17.5 45.0393 14.2335C45.0407 10.967 47.6936 8.3088 50.9553 8.3088Z" fill="#F0C141"/>
<path d="M148.825 208.069H129.79V150.167H148.825V208.069Z" fill="#8F8F8F"/>
<path d="M213.132 178.059H65.4813C60.8637 178.059 57.1217 174.31 57.1217 169.687V70.3072C57.1217 65.6828 60.8651 61.9353 65.4813 61.9353H213.132C217.749 61.9353 221.491 65.6841 221.491 70.3072V169.687C221.493 174.31 217.749 178.059 213.132 178.059Z" fill="#F0F0F0"/>
<path d="M215.055 159.861L63.5586 159.861L63.5586 49.5741L215.055 49.5741V159.861Z" fill="white"/>
<path d="M215.055 62.8943H63.5592V49.5747H215.055V62.8943Z" fill="url(#paint4_linear)"/>
<path d="M81.9954 168.188C81.9954 171.12 79.2043 173.497 75.7606 173.497C72.3168 173.497 69.5257 171.12 69.5257 168.188C69.5257 165.256 72.3168 162.878 75.7606 162.878C79.2043 162.878 81.9954 165.256 81.9954 168.188Z" fill="#CCCCCC"/>
<path d="M96.4884 205.883H182.126V210.254H96.4884V205.883Z" fill="#CCCCCC"/>
<path d="M188.927 58.7511H206.92C207.918 58.7511 208.728 57.9413 208.728 56.9411V55.5271C208.728 54.5282 207.919 53.717 206.92 53.717H188.926C187.928 53.717 187.118 54.5268 187.118 55.5271V56.9411C187.12 57.9413 187.928 58.7511 188.927 58.7511Z" fill="#F5F7FF"/>
<path d="M124.637 109.308H203.955V112.039H124.637V109.308Z" fill="#E6E6E6"/>
<path d="M145.126 114.226H203.955V116.957H145.126V114.226Z" fill="#E6E6E6"/>
<path d="M166.653 124.911H203.955V127.641H166.653V124.911Z" fill="#E6E6E6"/>
<path d="M136.939 129.828H203.955V132.559H136.939V129.828Z" fill="#E6E6E6"/>
<path d="M141.175 141.579H203.955V144.31H141.175V141.579Z" fill="#E6E6E6"/>
<path d="M127.294 146.497H203.955V149.227H127.294V146.497Z" fill="#E6E6E6"/>
<path d="M205.832 109.308H207.826V116.957H205.832V109.308Z" fill="#78C2FF"/>
<path d="M205.832 124.911H207.826V132.559H205.832V124.911Z" fill="#78C2FF"/>
<path d="M205.832 141.579H207.826V149.227H205.832V141.579Z" fill="#78C2FF"/>
<path d="M98.2959 152.67H104.648C105.911 152.67 106.935 151.646 106.935 150.381V144.019C106.935 142.754 105.911 141.729 104.648 141.729H98.2959C97.033 141.729 96.0096 142.754 96.0096 144.019V150.381C96.0096 151.646 97.033 152.67 98.2959 152.67Z" fill="#78C2FF"/>
<path d="M101.817 149.611L104.58 147.199C104.807 147.002 104.83 146.657 104.632 146.431C104.435 146.203 104.091 146.18 103.864 146.379L101.912 148.085L99.1262 144.973C98.9251 144.75 98.5817 144.73 98.3587 144.93C98.1343 145.132 98.1165 145.476 98.3163 145.7L101.817 149.611Z" fill="#F3F3F3"/>
<path d="M98.4943 136.008H104.45C105.822 136.008 106.939 134.89 106.939 133.514V127.551C106.939 126.177 105.822 125.057 104.45 125.057H98.4943C97.1207 125.057 96.0056 126.175 96.0056 127.551V133.515C96.0042 134.89 97.1207 136.008 98.4943 136.008ZM104.45 125.75C105.441 125.75 106.246 126.557 106.246 127.549V133.514C106.246 134.506 105.441 135.313 104.45 135.313H98.4943C97.5038 135.313 96.6979 134.506 96.6979 133.514V127.551C96.6979 126.559 97.5038 125.752 98.4943 125.752H104.45V125.75Z" fill="#78C2FF"/>
<path d="M82.0446 152.676H88.0016C89.3739 152.676 90.4917 151.558 90.4917 150.182V144.218C90.4917 142.842 89.3753 141.724 88.0016 141.724H82.0459C80.6737 141.724 79.5572 142.842 79.5572 144.218V150.182C79.5559 151.558 80.6723 152.676 82.0446 152.676ZM88.0016 142.419C88.9922 142.419 89.798 143.226 89.798 144.218V150.182C89.798 151.174 88.9922 151.981 88.0016 151.981H82.0459C81.0554 151.981 80.2495 151.174 80.2495 150.182V144.218C80.2495 143.226 81.0554 142.419 82.0459 142.419H88.0016Z" fill="#78C2FF"/>
<path d="M81.8476 136.004H88.2001C89.4629 136.004 90.4863 134.979 90.4863 133.714V127.352C90.4863 126.088 89.4629 125.063 88.2001 125.063H81.8476C80.5848 125.063 79.5614 126.088 79.5614 127.352V133.714C79.5614 134.979 80.5848 136.004 81.8476 136.004Z" fill="#78C2FF"/>
<path d="M85.3695 132.943L88.1318 130.531C88.3589 130.334 88.3822 129.989 88.1838 129.763C87.9868 129.537 87.6434 129.512 87.4162 129.711L85.4639 131.415L82.6783 128.303C82.4771 128.08 82.1337 128.061 81.9107 128.261C81.6863 128.462 81.6686 128.806 81.8683 129.031L85.3695 132.943Z" fill="#F3F3F3"/>
<path d="M82.0446 119.341H88.0016C89.3739 119.341 90.4917 118.223 90.4917 116.847V110.883C90.4917 109.508 89.3753 108.389 88.0016 108.389H82.0459C80.6737 108.389 79.5572 109.507 79.5572 110.883V116.847C79.5559 118.223 80.6723 119.341 82.0446 119.341ZM88.0016 109.084C88.9922 109.084 89.798 109.891 89.798 110.883V116.847C89.798 117.839 88.9922 118.646 88.0016 118.646H82.0459C81.0554 118.646 80.2495 117.839 80.2495 116.847V110.883C80.2495 109.891 81.0554 109.084 82.0459 109.084H88.0016Z" fill="#78C2FF"/>
<path d="M98.2959 119.335H104.648C105.911 119.335 106.935 118.31 106.935 117.046V110.684C106.935 109.419 105.911 108.394 104.648 108.394H98.2959C97.033 108.394 96.0096 109.419 96.0096 110.684V117.046C96.0096 118.31 97.033 119.335 98.2959 119.335Z" fill="#78C2FF"/>
<path d="M101.817 116.274L104.58 113.863C104.807 113.665 104.83 113.32 104.632 113.094C104.435 112.867 104.091 112.843 103.864 113.042L101.912 114.746L99.1262 111.636C98.9251 111.411 98.5817 111.394 98.3587 111.594C98.1343 111.795 98.1165 112.139 98.3163 112.362L101.817 116.274Z" fill="#F3F3F3"/>
<path d="M232.624 123.405C235.203 122.169 237.77 130.391 237.77 130.391C242.154 136.193 248.279 128.474 247.681 137.146C246.633 152.32 265.121 141.919 256.592 157.759C248.063 173.6 264.124 166.716 258.822 179.491C253.522 192.265 260.392 207.5 252.416 201.238C252.416 201.238 245.394 185.815 238.152 181.044C230.91 176.273 242.49 170.612 240.225 164.131C236.933 154.718 229.004 155.088 234.722 144.971C240.438 134.855 223.857 127.603 232.624 123.405Z" fill="url(#paint5_linear)"/>
<path d="M254.942 195.435C251.485 193.001 247.439 176.032 247.198 165.926C247.075 160.749 245.547 158.592 244.198 156.689C242.909 154.871 241.796 153.299 242.445 149.693C243.685 142.8 240.427 139.825 240.393 139.795L240.77 139.365C240.915 139.492 244.308 142.561 243.007 149.794C242.401 153.165 243.4 154.574 244.664 156.359C245.991 158.231 247.641 160.561 247.77 165.913C248.029 176.76 252.166 192.78 255.272 194.968L254.942 195.435Z" fill="white"/>
<path d="M262.188 190.486C262.515 189.745 262.851 188.979 263.235 188.172C265.209 183.997 266.959 183.309 269.857 182.171C270.565 181.892 271.367 181.577 272.248 181.18C276.401 179.311 275.596 176.558 274.887 174.128C274.789 173.788 274.689 173.449 274.604 173.114C274.239 171.685 274.941 170.968 276.002 169.883C276.792 169.077 277.774 168.073 278.531 166.487C279.36 164.753 278.937 163.822 278.436 163.347C277.383 162.347 274.954 162.532 272.661 163.785C271.949 164.175 271.363 164.79 270.742 165.441C269.281 166.974 267.461 168.881 262.86 168.903C260.237 168.915 258.799 169.279 258.055 170.116C257.21 171.067 257.369 172.489 257.589 174.458C257.666 175.139 257.752 175.912 257.804 176.745C258.118 181.721 255.184 185.311 255.155 185.347C253.403 187.436 251.244 191.773 252.176 194.442C252.565 195.562 253.44 196.264 254.772 196.534C255.303 196.641 255.788 196.693 256.234 196.693C259.453 196.693 260.631 194.02 262.188 190.486ZM272.936 164.288C274.985 163.169 277.18 162.943 278.044 163.763C278.701 164.387 278.391 165.454 278.015 166.241C277.298 167.74 276.392 168.666 275.593 169.483C274.482 170.619 273.604 171.515 274.05 173.256C274.138 173.597 274.237 173.943 274.339 174.289C275.045 176.709 275.712 178.993 272.014 180.658C271.145 181.048 270.35 181.362 269.647 181.638C266.722 182.787 264.789 183.548 262.717 187.927C262.332 188.742 261.992 189.512 261.665 190.256C259.877 194.316 258.798 196.766 254.887 195.974C253.767 195.746 253.036 195.168 252.717 194.254C251.896 191.902 253.861 187.784 255.596 185.715C255.723 185.563 258.706 181.921 258.378 176.71C258.324 175.862 258.237 175.083 258.16 174.395C257.956 172.572 257.808 171.256 258.484 170.497C259.101 169.802 260.453 169.487 262.865 169.476C267.709 169.453 269.621 167.448 271.158 165.837C271.771 165.191 272.302 164.635 272.936 164.288Z" fill="url(#paint6_linear)"/>
<path d="M254.835 199.998L254.265 199.968C254.294 199.431 255.013 186.768 260.091 183.063C265.661 178.997 267.416 174.628 268.253 171.694C269.238 168.238 274.254 167.315 274.468 167.277L274.567 167.841C274.518 167.849 269.69 168.741 268.803 171.852C267.944 174.866 266.141 179.355 260.429 183.526C255.567 187.072 254.842 199.869 254.835 199.998Z" fill="url(#paint7_linear)"/>
<path d="M266.443 136.183C262.835 134.945 263.585 141.909 262.059 147.063C260.535 152.216 245.097 149.311 251.578 162.215C258.057 175.12 243.382 166.532 247.766 177.792C252.15 189.053 248.148 201.097 252.912 198.034C257.677 194.97 255.588 180.79 260.543 179.104C265.499 177.419 266.307 175.454 261.401 170.874C256.495 166.293 274.257 161.745 269.874 152.495C265.489 143.245 270.612 137.615 266.443 136.183Z" fill="url(#paint8_linear)"/>
<path d="M255.123 197.494C254.668 195.566 250.794 178.6 254.41 176.55C257.596 174.743 257.518 167.713 257.022 161.074C256.581 155.197 264.117 152.451 264.439 152.338L264.63 152.877C264.556 152.904 257.184 155.593 257.592 161.031C258.103 167.85 258.157 175.083 254.692 177.049C251.946 178.607 254.474 192.24 255.679 197.363L255.123 197.494Z" fill="white"/>
<path d="M241.508 191.452L246.659 211.027H258.172L263.325 191.452H241.508Z" fill="url(#paint9_linear)"/>
<path d="M241.508 191.452C241.508 191.452 252.85 193.586 252.85 211.027H258.174L263.326 191.452H241.508Z" fill="url(#paint10_linear)"/>
<path d="M151.277 178.462C151.277 178.462 150.881 179.112 150.831 179.643C150.792 180.063 150.439 180.691 150.287 181.038C150.134 181.384 149.642 182.954 149.625 183.363C149.618 183.53 149.99 184.584 149.937 184.919C149.883 185.256 149.692 185.924 149.994 185.967C150.296 186.011 150.638 185.465 150.638 185.465C150.638 185.465 150.61 185.774 150.866 185.893C151.362 186.124 151.625 185.921 151.625 185.921C151.625 185.921 151.808 186.262 152.038 186.307C152.546 186.409 152.793 186.204 152.793 186.204C152.793 186.204 153.016 186.396 153.368 186.389C153.817 186.381 154.004 185.993 154.004 185.993C154.004 185.993 154.572 186.109 154.736 185.843C154.9 185.577 154.873 185.295 154.94 185.054C155.008 184.814 154.956 182.642 154.22 181.079C153.484 179.515 154.408 177.99 154.408 177.99L151.277 178.462Z" fill="#EEA886"/>
<path d="M150.559 185.263C150.559 185.263 150.508 183.315 151.02 182.901C151.532 182.486 151.591 183.19 151.591 183.19C151.591 183.19 151.521 182.495 152.08 182.401C152.64 182.308 152.663 183.133 152.663 183.133C152.663 183.133 152.755 182.597 153.343 182.706C153.932 182.816 153.791 183.5 153.791 183.5C153.791 183.5 154.352 182.83 154.716 183.474C155.33 184.562 154.737 185.846 154.737 185.846C154.737 185.846 154.564 186.14 154.005 185.996C154.005 185.996 153.632 186.751 152.795 186.209C152.795 186.209 151.938 186.681 151.625 185.924C151.625 185.924 150.681 186.372 150.559 185.263Z" fill="#DB9C7C"/>
<path d="M144.68 150.4C144.68 150.4 148.01 161.515 149.135 165.615C149.488 166.9 150.342 179.18 150.492 179.674C150.643 180.169 154.866 180.846 154.866 180.846C154.866 180.846 154.355 165.484 154.307 164.646C154.259 163.809 149.647 146.654 148.304 146.041C147.299 145.582 146.769 145.962 145.502 146.903C143.726 148.226 144.68 150.4 144.68 150.4Z" fill="#323657"/>
<path d="M104.578 129.839L112.2 134.835L111.83 135.402L104.208 130.405L104.578 129.839Z" fill="#4DA8F2"/>
<path d="M103.399 132.707C103.399 132.707 103.472 133.138 103.596 133.311C103.596 133.311 103.845 133.608 104.009 133.832C104.061 133.903 104.105 133.964 104.128 134.008C104.228 134.191 104.395 134.619 104.758 134.988C105.12 135.357 106.535 136.529 106.535 136.529L107.746 135.5L109.003 134.936C109.003 134.936 108.299 131.871 108 131.487C107.972 131.45 107.94 131.415 107.91 131.383C107.625 131.083 107.289 130.98 107.122 130.84C107.06 130.79 106.413 130.323 106.183 130.383C105.863 130.466 105.674 130.654 105.602 130.869C105.602 130.869 104.982 131.06 104.741 131.424C104.741 131.424 104.164 131.582 103.993 132.12C103.993 132.119 103.425 132.345 103.399 132.707Z" fill="#EFAA88"/>
<path d="M147.381 226.289C147.381 226.289 147.684 228.399 147.723 228.716C147.761 229.032 151.099 228.53 151.099 228.53L151.37 226.018C151.37 226.018 147.798 225.992 147.381 226.289Z" fill="#424773"/>
<path d="M147.687 228.447C147.687 228.447 146.63 229.719 145.606 230.272C144.583 230.826 142.975 231.047 142.37 231.619C141.934 232.033 140.779 233.816 145.029 233.78C149.278 233.744 151.327 234.032 151.782 233.348C152.238 232.665 151.124 228.303 151.124 228.303C151.124 228.303 150.117 228.668 147.687 228.447Z" fill="#292C47"/>
<path d="M123.458 226.289C123.458 226.289 123.762 228.399 123.8 228.716C123.838 229.032 127.177 228.53 127.177 228.53L127.448 226.018C127.448 226.018 123.875 225.992 123.458 226.289Z" fill="#424773"/>
<path d="M123.765 228.447C123.765 228.447 122.707 229.719 121.684 230.272C120.66 230.826 116.895 231.282 116.29 231.855C115.854 232.269 115.127 233.936 121.106 233.78C125.354 233.669 127.404 234.032 127.86 233.349C128.315 232.665 127.2 228.303 127.2 228.303C127.2 228.303 126.253 228.693 123.765 228.447Z" fill="#292C47"/>
<path d="M144.617 172.071C144.617 172.071 147.754 177.063 147.52 181.575C147.286 186.087 148.657 191.013 149.129 195.726C149.655 200.981 151.804 213.421 151.883 216.231C151.961 219.041 151.55 228.017 151.55 228.017L147.245 228.116C147.245 228.116 143.631 206.368 142.695 204.149C141.759 201.929 137.117 186.109 136.959 184.334C136.802 182.56 144.617 172.071 144.617 172.071Z" fill="#292C47"/>
<path d="M128.102 172.748C128.102 172.748 125.737 185.115 125.425 187.876C125.113 190.637 124.906 201.241 124.75 202.966C124.594 204.692 123.292 225.5 122.877 228.117H128.379C128.379 228.117 132.603 212.952 132.603 205.778C132.603 198.603 135.866 190.179 137.973 185.445C140.079 180.711 144.902 180.599 146.196 171.816C146.196 171.816 129.854 169.962 128.102 172.748Z" fill="#292C47"/>
<path d="M139.381 130.105C139.381 130.105 135.17 128.529 133.228 131.739C131.287 134.95 131.474 141.376 133.596 142.167C135.718 142.957 138.908 142.543 139.994 140.535C141.08 138.526 142.061 135.622 142.015 133.681C141.968 131.741 140.487 130.665 139.381 130.105Z" fill="#EEA886"/>
<path d="M134.055 142.313C134.055 142.313 134.23 143.452 133.94 144.012C133.65 144.573 139.395 144.588 139.395 144.588C139.395 144.588 139.861 141.536 140.745 138.959C141.63 136.382 134.055 142.313 134.055 142.313Z" fill="#EEA886"/>
<path d="M140.745 138.959C140.745 138.959 140.348 139.614 138.73 139.36C137.111 139.107 135.137 136.95 134.461 136.713C133.785 136.476 133.778 136.079 133.778 136.079L133.355 136.698L132.637 136.743C132.637 136.743 133.292 134.814 132.305 134.028C131.317 133.241 133.329 127.784 138.52 129.601C138.52 129.601 142.507 130.701 142.362 132.971C142.218 135.242 141.637 137.829 140.745 138.959Z" fill="#D88A51"/>
<path d="M133.599 143.945C133.599 143.945 133.617 142.874 134.102 142.771C134.588 142.668 139.456 142.199 140.051 142.434V143.682C140.051 143.682 138.903 144.389 133.599 143.945Z" fill="#E2D2CA"/>
<path d="M133.886 135.252C133.977 134.872 134.944 133.784 135.315 134.948C135.686 136.113 134.755 137.682 134.237 137.548C133.718 137.413 133.657 136.218 133.886 135.252Z" fill="#EEA886"/>
<path d="M125.546 145.568C128.884 145.128 133.599 143.945 133.599 143.945L140.051 143.682C140.051 143.682 145.973 144.988 148.306 146.043C148.527 146.143 148.527 151.333 149.135 152.695L147.202 156.78C147.202 156.78 146.085 164.872 145.852 168.472C145.746 170.124 148.157 183.964 148.157 183.964C148.157 183.964 145.575 184.726 141.171 185.211C136.766 185.698 125.763 185.036 125.695 184.515C125.625 183.994 127.825 165.12 127.924 164.142C128.073 162.641 127.408 154.67 127.408 154.67C126.391 153.88 117.464 149.73 115.029 147.568C114.377 146.99 111.626 144.307 110.843 143.381C108.074 140.102 105.804 137.289 105.528 136.682C105.215 136.337 108.537 134.528 108.838 134.428C109.102 134.34 112.845 139.198 114.286 140.76C114.929 141.457 117.598 143.401 117.598 143.401C117.598 143.401 123.458 145.688 125.546 145.568Z" fill="#323657"/>
<path d="M140.581 130.483C140.581 130.483 145.95 130.904 140.746 138.959L140.581 130.483Z" fill="#D88A51"/>
<path d="M104.212 130.401L103.771 129.728L104.583 129.834L104.212 130.401Z" fill="#DFE1E8"/>
<path d="M211.709 169.078C211.709 169.078 209.097 169.236 208.365 169.644C207.633 170.053 202.694 168.493 202.604 168.133C202.512 167.773 202.604 167.596 202.604 167.596H212.299L211.709 169.078Z" fill="#DE9673"/>
<path d="M223.435 157.543C223.435 157.543 224.269 164.101 223.435 164.96C220.253 168.243 208.455 167.983 208.455 167.983L208.459 169.317C208.459 169.317 226.392 171.557 228.057 168.074C230.059 163.888 229.282 157.063 229.282 157.063L223.435 157.543Z" fill="#DE9673"/>
<path d="M229.353 226.645L228.289 225.429L230.211 223.415L231.835 224.554L229.353 226.645Z" fill="#2F4563"/>
<path d="M231.835 224.553C231.835 224.553 229.64 226.209 229.03 226.276C228.42 226.343 228.131 226.616 228.204 227.546C228.276 228.478 227.312 232.401 226.64 232.464C225.968 232.527 223.679 232.539 223.265 234.049C222.849 235.559 230.524 235.242 230.999 234.004C231.474 232.765 234.778 226.759 234.387 226.276C233.997 225.793 232.962 224.708 231.835 224.553Z" fill="#1E2D40"/>
<path d="M217.752 177.62C217.752 177.62 203.414 202.635 209.234 207.81C211.516 209.839 213.713 211.675 216.872 214.391C218.551 215.835 220.579 217.507 222.981 220.013L223.081 220.117C224.796 221.906 226.209 223.418 226.645 223.885C226.66 223.9 226.674 223.915 226.686 223.929L226.734 223.981L228.331 225.506L230.672 223.445C230.672 223.445 228.018 219.767 226.521 216.942C224.421 212.977 220.891 208.317 219.257 207.016C216.459 204.79 215.69 204.351 215.69 202.222C215.69 199.938 228.833 187.179 228.833 187.179C228.833 187.179 230.74 179.193 226.186 177.104C221.749 175.066 217.752 177.62 217.752 177.62Z" fill="#23344A"/>
<path d="M228.687 230.519C228.687 230.519 228.777 229.367 228.583 228.631C228.388 227.894 231.552 228.317 231.552 228.317C231.552 228.317 231.959 231.393 231.842 232.099C231.724 232.802 228.687 230.519 228.687 230.519Z" fill="#41608A"/>
<path d="M228.097 228.635L232.362 229.405C232.362 229.405 232.669 223.955 232.613 219.78C232.553 215.292 232.779 211.763 231.411 208.191C230.13 204.849 230.421 203.576 230.309 201.296C230.197 199.015 231.402 187.268 231.402 187.268C231.402 187.268 232.86 182.009 229.487 178.299C226.202 174.683 217.701 178.284 217.701 178.284C217.701 178.284 219.472 194.331 223.724 204.257C224.928 207.066 224.277 208.773 225.812 213.114C225.811 213.113 228.142 222.579 228.097 228.635Z" fill="#2F4563"/>
<path d="M224.384 146.554C224.607 146.931 224.771 147.414 224.889 147.927C225.002 148.411 225.075 148.92 225.122 149.393C225.226 150.417 225.209 151.259 225.209 151.259C225.209 151.259 230.898 150.019 229.964 148.69C229.031 147.361 229.58 143.334 229.58 143.334C229.58 143.334 223.648 145.311 224.384 146.554Z" fill="#EEA987"/>
<path d="M221.182 135.579C221.182 135.579 219.727 136.846 220.376 140.495C220.376 140.495 220.055 143.401 219.61 143.908C219.166 144.415 220.803 144.603 220.976 144.967C221.148 145.333 221.474 147.04 222.615 148.071C223.756 149.101 229.406 145.996 229.683 144.243C229.958 142.489 233.874 134.972 227.676 134.628C221.479 134.284 221.182 135.579 221.182 135.579Z" fill="#EEA886"/>
<path d="M217.284 162.503C217.399 162.869 216.965 168.484 217.005 168.968C217.223 171.623 216.537 175.658 216.268 177.104C216.203 177.446 216.168 177.62 216.168 177.62C222.311 180.629 230.855 180.366 230.855 180.366C230.825 180.133 229.632 177.242 229.602 177.022C229.096 173.41 228.349 171.761 228.552 169.318C228.666 167.945 229.015 166.511 229.737 164.734C231.824 159.601 231.71 156.184 231.37 153.363C231.03 150.543 230.186 148.934 230.186 148.934L224.997 149.492C223.895 150.714 222.914 151.365 219.784 154.149C216.45 157.11 215.867 158.009 217.284 162.503Z" fill="#EB4747"/>
<path d="M232.032 231.299C232.032 231.299 229.03 230.444 228.941 230.36C228.852 230.277 228.832 230.094 228.418 230.26C228.004 230.426 227.833 231.055 227.426 231.254C227.02 231.452 224.542 232.178 223.185 232.847C222.694 233.088 220.62 233.882 220.32 234.543C220.02 235.205 220.114 236.2 223.68 235.964C227.246 235.729 231.147 236.233 231.928 235.841C232.709 235.45 232.237 232.333 232.032 231.299Z" fill="#23344A"/>
<path d="M220.223 139.182C220.223 139.182 219.527 131.605 226.861 132.959C234.198 134.311 230.416 142.593 229.428 145.292C229.428 145.292 229.548 141.099 226.016 140.964C222.483 140.827 221.754 140.009 220.223 139.182Z" fill="#464240"/>
<path d="M226.589 139.9C227.031 139.13 228.546 139.541 228.372 140.713C228.2 141.884 226.985 143.055 226.583 142.487C226.182 141.92 225.941 141.031 226.589 139.9Z" fill="#EEA987"/>
<path d="M226.422 154.786C226.422 154.786 227.027 161.277 226.194 162.137C223.011 165.42 210.451 165.483 210.451 165.483L209.852 167.37C209.852 167.37 228.521 168.643 230.188 165.16C232.189 160.974 231.412 154.149 231.412 154.149L226.422 154.786Z" fill="#EEA987"/>
<path d="M229.186 134.824C229.186 134.824 232.011 132.109 234.02 135.184C236.028 138.259 231.634 142.548 229.852 140.002C228.071 137.456 229.186 134.824 229.186 134.824Z" fill="#464240"/>
<path d="M224.889 147.927C225.002 148.411 225.075 148.92 225.122 149.393C227.012 148.53 228.425 145.895 228.425 145.895C227.058 147.076 224.89 147.927 224.889 147.927C224.89 147.927 224.89 147.927 224.889 147.927Z" fill="#A77860"/>
<path d="M197.885 167.37H215.69V168.366H197.885V167.37Z" fill="#6E6760"/>
<path d="M190.747 151.999L198.769 167.919L197.881 168.367L189.859 152.447L190.747 151.999Z" fill="#6E6760"/>
<path d="M213.073 165.482C213.073 165.482 210.461 165.281 209.729 164.763C208.997 164.243 204.058 166.229 203.968 166.686C203.876 167.144 203.968 167.37 203.968 167.37H213.663L213.073 165.482Z" fill="#EEA987"/>
<path d="M230.183 148.933L229.818 147.939L224.834 148.934V149.817L230.183 148.933Z" fill="#EB4747"/>
<path d="M226.43 154.871C226.43 154.871 225.895 151.109 228.511 150.779C231.127 150.448 231.413 154.162 231.413 154.162L226.43 154.871Z" fill="#EEA987"/>
<path d="M56.0393 225.8C56.0393 225.8 55.7356 227.93 55.6973 228.25C55.659 228.571 52.3206 228.061 52.3206 228.061L52.0497 225.525C52.0524 225.525 55.622 225.499 56.0393 225.8Z" fill="#5C544D"/>
<path d="M55.7341 227.979C55.7341 227.979 56.7917 229.263 57.8151 229.822C58.8385 230.381 60.4462 230.603 61.0509 231.183C61.4873 231.6 62.6407 233.4 58.3925 233.364C54.1443 233.327 52.0961 233.619 51.6405 232.928C51.1849 232.238 52.2986 227.835 52.2986 227.835C52.2986 227.835 53.3042 228.201 55.7341 227.979Z" fill="#3C4145"/>
<path d="M79.9592 225.8C79.9592 225.8 79.6555 227.93 79.6172 228.25C79.5789 228.571 76.2405 228.061 76.2405 228.061L75.9696 225.525C75.971 225.525 79.5419 225.499 79.9592 225.8Z" fill="#5C544D"/>
<path d="M79.6527 227.979C79.6527 227.979 80.7103 229.263 81.7337 229.822C82.7572 230.381 86.521 230.841 87.1258 231.42C87.5622 231.837 88.2887 233.52 82.3111 233.362C78.0643 233.25 76.0134 233.617 75.5591 232.927C75.1035 232.236 76.2172 227.834 76.2172 227.834C76.2172 227.834 77.1654 228.226 79.6527 227.979Z" fill="#3C4145"/>
<path d="M57.2258 170.813C57.2258 170.813 55.4485 176.098 55.6824 180.653C55.9164 185.207 54.7644 190.192 54.2924 194.949C53.767 200.253 51.6176 212.811 51.5396 215.647C51.4616 218.485 51.8734 227.545 51.8734 227.545L56.1764 227.645C56.1764 227.645 59.7911 205.691 60.7269 203.451C61.6628 201.211 66.305 185.241 66.461 183.45C66.6169 181.66 57.2258 170.813 57.2258 170.813Z" fill="#33373B"/>
<path d="M75.317 171.753C75.317 171.753 77.6813 184.237 77.9932 187.024C78.3052 189.811 78.5131 200.515 78.6691 202.256C78.8251 203.998 79.7089 225.055 80.5408 227.645H75.0393C75.0393 227.645 70.8157 212.337 70.8157 205.094C70.8157 197.851 67.5526 189.349 65.447 184.57C63.3413 179.791 58.5198 179.679 57.2255 170.812C57.2255 170.813 73.563 168.942 75.317 171.753Z" fill="#3C4145"/>
<path d="M64.1363 129.091C64.1363 129.091 68.4734 127.469 70.4723 130.775C72.4726 134.081 72.2797 140.699 70.0933 141.513C67.907 142.327 64.6233 141.901 63.5042 139.833C62.385 137.764 61.3753 134.775 61.4232 132.776C61.4724 130.776 62.9966 129.668 64.1363 129.091Z" fill="#EEA886"/>
<path d="M69.3657 141.309C69.3657 141.309 69.1905 142.448 69.4806 143.008C69.7706 143.568 64.0256 143.584 64.0256 143.584C64.0256 143.584 63.5591 140.534 62.6752 137.956C61.79 135.38 69.3657 141.309 69.3657 141.309Z" fill="#EEA886"/>
<path d="M62.6752 137.956C62.6752 137.956 63.072 138.611 64.6905 138.358C66.3091 138.103 68.2834 135.947 68.9592 135.71C69.6351 135.473 69.642 135.076 69.642 135.076L70.0648 135.695L70.783 135.741C70.783 135.741 70.1277 133.811 71.1155 133.025C72.1033 132.238 70.0907 126.782 64.9012 128.599C64.9012 128.599 60.9157 129.699 61.0594 131.97C61.2017 134.24 61.7831 136.826 62.6752 137.956Z" fill="#FCCCA2"/>
<path d="M69.8198 142.941C69.8198 142.941 69.802 141.869 69.3163 141.767C68.832 141.664 63.964 141.195 63.3688 141.43V142.678C63.3688 142.678 64.5167 143.385 69.8198 142.941Z" fill="#E2D2CA"/>
<path d="M69.5325 134.25C69.4422 133.869 68.4748 132.781 68.1041 133.946C67.7333 135.11 68.6637 136.678 69.1822 136.544C69.7007 136.411 69.7623 135.216 69.5325 134.25Z" fill="#EEA886"/>
<path d="M69.8198 142.941C69.8198 142.941 72.4891 143.901 75.5798 145.217C75.5798 145.217 79.1358 146.546 79.5202 150.478C79.7241 152.565 81.9433 163.645 82.3592 164.582C82.7751 165.519 87.6965 180.577 87.8702 180.891C88.044 181.204 83.8532 182.945 83.5769 182.807C83.2991 182.668 78.8115 169.072 78.3614 168.065C78.3614 168.065 75.7782 159.912 75.7085 158.697C75.7085 158.697 75.6346 162.161 75.495 163.133C75.3568 164.105 77.7922 182.982 77.7224 183.503C77.6526 184.023 66.6525 184.685 62.2497 184.199C57.8468 183.712 54.2937 182.698 54.2937 182.698C54.2937 182.698 57.7579 167.802 57.6512 166.149C57.42 162.551 56.2187 155.773 56.2187 155.773L52.6286 162.551L57.2243 174.391L56.1722 177.989C56.1722 177.989 47.6334 165.067 47.3556 163.886C47.0779 162.705 47.7743 161.201 48.2244 160.23C48.6745 159.257 51.6353 151.858 52.329 150.817C53.0226 149.775 54.1938 145.605 57.0259 144.443C59.3942 143.473 63.3674 142.677 63.3674 142.677L69.8198 142.941Z" fill="#EB4747"/>
<path d="M72.0865 173.67L92.2041 168.503L95.8028 182.558L75.6852 187.724L72.0865 173.67Z" fill="#D6D6D6"/>
<path d="M89.6229 183.964C89.6229 183.964 90.1975 184.895 90.4082 185.161C90.6176 185.426 89.8924 185.592 89.5805 185.324C89.2699 185.055 89.6229 183.964 89.6229 183.964Z" fill="#C98462"/>
<path d="M85.4335 187.142C85.4335 187.142 85.0942 186.787 85.0203 186.56C85.0203 186.56 84.9191 186.135 84.8288 185.837C84.8 185.743 84.7727 185.662 84.7494 185.611C84.6536 185.399 84.3786 184.962 84.2897 184.388C84.2008 183.814 83.9504 181.236 83.9504 181.236L85.5087 180.843L86.7606 180.579C86.7606 180.579 89.4655 183.281 89.6092 183.805C89.6229 183.857 89.6352 183.908 89.642 183.957C89.7214 184.414 89.5887 184.788 89.6023 185.032C89.6064 185.122 89.5941 186.018 89.3848 186.185C89.0961 186.418 88.8006 186.462 88.5584 186.384C88.5584 186.384 87.9728 186.816 87.483 186.79C87.483 186.79 86.9549 187.205 86.3556 186.999C86.3584 187.001 85.7755 187.361 85.4335 187.142Z" fill="#DE9D7D"/>
<path d="M79.3504 170.841C79.3504 170.841 82.9214 181.669 83.5768 182.807C83.5768 182.807 86.1955 182.256 87.8701 180.891L83.9503 169.205L79.3504 170.841Z" fill="#EB4747"/>
<path d="M3.04422 183.77C3.04422 183.77 3.18925 181.276 3.84871 180.888C4.50817 180.501 4.12643 181.273 4.12643 181.273C4.12643 181.273 3.75567 183.083 3.67358 183.816C3.67084 183.852 3.04422 183.77 3.04422 183.77Z" fill="#1D3B54"/>
<path d="M20.591 131.327C20.591 131.327 14.3999 130.812 14.5682 137.334C14.7379 143.856 15.7695 144.839 14.5641 149.448C13.3587 154.057 20.6006 146.831 20.6006 146.831L20.591 131.327Z" fill="#434343"/>
<path d="M25.7999 148.952C25.7999 148.952 34.5699 154.433 35.3128 153.849C36.3499 153.034 39.1684 146.081 39.1684 146.081L41.3752 147.134C41.3752 147.134 38.7429 159.156 35.1952 158.271C31.6488 157.385 23.5068 152.343 23.5068 152.343L25.7999 148.952Z" fill="#EEA987"/>
<path d="M13.8445 171.634C13.8445 171.634 11.5651 174.544 10.7593 176.469C9.9534 178.394 8.61397 182.615 8.79183 185.883C8.97107 189.15 10.0437 195.285 9.7304 196.673C9.41709 198.061 9.10514 200.926 8.76994 201.911C8.43473 202.896 7.09392 205.761 6.95984 208.717C6.82575 211.672 8.83697 224.656 8.74804 225.865C8.65911 227.073 11.0274 226.357 11.0274 226.357C11.0274 226.357 11.8319 214.626 12.2793 212.612C12.7267 210.598 13.263 203.747 13.6653 203.255C14.0675 202.763 15.1676 197.659 14.9979 196.852C14.8282 196.047 19.3884 183.957 19.6565 181.54C19.9247 179.122 26.6479 171.634 26.6479 171.634C26.6479 171.634 20.7744 169.384 13.8445 171.634Z" fill="#EEA987"/>
<path d="M24.727 171.634C24.727 171.634 24.8433 172.854 24.9774 173.302C25.1115 173.75 28.1967 185.166 28.5087 189.553C28.8206 193.941 29.6265 197.662 29.7606 198.601C29.8946 199.538 29.6265 202.672 29.3583 203.479C29.0902 204.284 30.6991 223.312 30.8332 223.76C30.9673 224.208 29.7606 224.343 28.9109 224.208C28.0613 224.074 23.7693 210.239 24.0375 207.911C24.3056 205.583 24.5738 200.619 23.8144 198.601C23.0551 196.584 16.2142 181.987 16.1691 181.093C16.1253 180.196 13.2097 164.772 24.727 171.634Z" fill="#EEA987"/>
<path d="M10.9863 224.929C10.9863 224.929 11.2066 226.474 11.4474 226.896C11.6882 227.319 12.3491 229.466 12.6501 229.867C12.9511 230.269 13.6119 233.279 12.6501 233.641C11.6882 234.002 9.42248 234.604 8.66176 233.399C7.89968 232.195 7.79979 230.991 7.9202 230.067C8.0406 229.144 8.95456 224.906 8.94225 224.486C8.92857 224.068 10.9863 224.929 10.9863 224.929Z" fill="#EEA987"/>
<path d="M12.2657 229.033C12.2657 229.033 12.3683 231.373 10.6047 231.373C8.84116 231.373 8.05992 229.244 8.05992 229.244C8.05992 229.244 7.45929 230.289 8.05992 232.517C8.66054 234.745 11.1671 234.283 11.728 234.204C12.289 234.124 14.9487 233.417 12.2657 229.033Z" fill="#EB4747"/>
<path d="M30.6432 222.827C30.6432 222.827 31.8896 225.061 32.6312 225.513C33.5547 226.076 35.3443 227.886 35.9709 227.969C36.5962 228.053 38.8455 228.453 38.4104 229.723C38.0547 230.765 32.6914 230.615 32.0866 230.093C31.4819 229.571 29.6732 227.697 28.9425 227.739C28.2133 227.78 28.4842 230.443 28.4842 230.443H27.692C27.692 230.443 27.4157 227.853 27.3815 227.408C27.283 226.09 28.2215 225.121 28.2626 224.369C28.3036 223.616 28.3474 223.056 28.3474 223.056L30.6432 222.827Z" fill="#EB4747"/>
<path d="M35.7903 227.909C35.7903 227.909 34.0226 228.52 32.6612 227.738C31.2999 226.954 28.6894 225.765 27.7659 225.757C27.7659 225.757 28.2694 224.214 28.2803 224.041C28.2913 223.869 28.346 223.056 28.346 223.056L30.6295 222.69C30.6295 222.69 32.1099 224.867 32.7625 225.38C33.4151 225.894 35.087 227.172 35.7903 227.909Z" fill="#EEA987"/>
<path d="M26.6878 171.433C26.6878 171.433 27.3254 174.085 27.5594 174.858C27.7947 175.631 29.3011 187.612 29.6719 195.107C29.6719 195.107 20.6528 198.532 8.24605 197.961C8.24605 197.961 7.94368 184.193 9.08475 180.298C10.2244 176.402 12.289 172.758 13.846 171.634C15.2306 170.634 26.6878 171.433 26.6878 171.433Z" fill="#EB4747"/>
<path d="M6.09653 178.155C6.09653 178.155 6.28125 179.273 6.61919 180.351C6.95713 181.429 7.26906 181.773 7.13361 182.39C7.031 182.856 6.50425 183.207 6.37154 183.057C6.23883 182.908 6.17451 181.095 5.42475 181.103C4.67498 181.112 5.64913 183.348 5.2031 183.183C4.75707 183.019 3.03864 182.076 3.14673 181.162C3.25481 180.248 3.94164 179.588 3.89786 178.223C3.85818 176.985 4.24265 176.468 4.24265 176.468L6.09653 178.155Z" fill="#EEA987"/>
<path d="M41.9705 146.598C41.9705 146.598 40.9238 147.96 40.2794 148.104C39.6336 148.248 38.9413 146.676 38.9413 146.676L39.3135 145.324L41.9705 146.598Z" fill="#EEA886"/>
<path d="M39.3858 146.143C39.3858 146.143 38.885 144.572 38.8152 144.329C38.7468 144.087 38.9917 143.375 39.4364 142.699C39.8687 142.041 40.4133 141.316 40.6021 141.127C40.7006 141.028 40.7553 140.917 41.0823 141.065C41.4093 141.213 41.6036 141.517 41.6036 141.517C41.6036 141.517 42.092 141.511 42.3041 141.904C42.3041 141.904 42.7638 141.918 42.9307 142.404C42.9307 142.404 43.3795 142.43 43.4712 142.793C43.4712 142.793 43.255 143.464 43.2468 143.736C43.2386 144.007 42.6927 145.372 41.9689 146.599C41.9703 146.598 40.8935 147.527 39.3858 146.143Z" fill="#EEA886"/>
<path d="M40.535 144.103C40.535 144.103 41.0755 144.73 41.1371 144.984C41.2 145.237 42.7761 144.296 42.7761 144.296C42.7761 144.296 41.3149 143.466 40.535 144.103Z" fill="#CF8C6C"/>
<path d="M40.5201 141.286C40.5201 141.286 39.6472 143.137 39.94 143.296C40.2328 143.456 40.4366 143.337 40.4366 143.337L40.4831 144.265C40.4831 144.265 40.8594 144.862 41.3998 144.277C41.3998 144.277 41.694 144.872 42.1469 144.244C42.1469 144.244 42.5163 144.55 42.7762 144.296C43.0376 144.043 43.4727 142.793 43.4727 142.793C43.4727 142.793 43.4453 142.487 42.9322 142.404C42.9322 142.404 42.7995 141.928 42.3056 141.904C42.3056 141.904 42.0265 141.416 41.4915 141.394C41.4915 141.394 41.1864 140.957 40.6022 141.127C40.6035 141.127 40.5515 141.205 40.5201 141.286Z" fill="#DB9C7C"/>
<path d="M38.8329 144.267C38.8329 144.267 39.8905 143.336 40.6923 143.082C40.8729 143.024 41.059 143.003 41.1808 143.149C41.3025 143.296 41.2451 143.659 40.8072 144.085C40.3694 144.513 39.9986 145.263 39.9986 145.263C39.9986 145.263 39.4199 145.57 38.8329 144.267Z" fill="#EEA886"/>
<path d="M41.4915 141.392C41.4915 141.392 40.4119 143.316 40.4243 143.542C40.4366 143.768 39.7169 143.383 39.7196 143.19C39.7224 142.997 40.5022 141.284 40.6035 141.127C40.7034 140.968 41.2972 140.853 41.4915 141.392Z" fill="#EEA886"/>
<path d="M40.3819 141.497C40.3819 141.497 42.1031 138.282 42.3562 138.399C42.7242 138.569 42.6257 139.459 41.1741 141.859C39.7621 144.193 40.3819 141.497 40.3819 141.497Z" fill="#EEA886"/>
<path d="M26.2703 155.615L29.8125 150.91C29.8125 150.91 23.4819 145.999 21.5268 149.122C21.5268 149.122 21.3872 154.267 26.2703 155.615Z" fill="#323657"/>
<path d="M28.3966 155.448C28.2954 157.026 27.4909 158.336 27.3568 158.906C27.2227 159.476 27.3568 160.786 27.1885 162.096C27.0203 163.406 26.5181 169.651 26.685 171.431C26.8533 173.211 14.4877 172.407 13.5491 171.87C13.5491 171.87 15.6315 168.14 15.6876 166.596C15.7067 166.066 16.0228 164.413 15.1512 163.205C14.6915 162.566 13.8378 160.536 12.9854 159.05C12.9854 159.05 13.1427 158.742 12.9854 159.05C12.6543 158.473 12.3095 157.899 12.0673 157.473C11.7527 156.915 11.5775 156.254 11.5775 156.254C11.5775 156.254 11.0275 149.403 12.5366 148.631C14.0457 147.858 14.8502 147.724 16.3251 147.657C17.8 147.59 18.7728 147.287 18.7728 147.287L22.2261 147.657C22.2261 147.657 24.4385 148.43 25.3114 148.497C26.1829 148.564 27.2898 150.444 27.1885 151.654C27.09 152.862 28.4979 153.871 28.3966 155.448Z" fill="#323657"/>
<path d="M5.49727 181.027C5.49727 181.027 6.49603 181.282 6.4372 184.666L5.30572 184.477C5.30572 184.477 5.32625 182.607 4.98831 181.589C4.98831 181.589 5.04714 180.927 5.49727 181.027Z" fill="#1D3B54"/>
<path d="M9.64429 185.429L0.83728 182.927L0.863268 193.79L9.62787 199.05L9.64429 185.429Z" fill="#1D3B54"/>
<path d="M9.62793 199.05L8.5238 199.254L9.15527e-05 193.945L0.105427 182.978L0.837413 182.927L9.62793 199.05Z" fill="#1D3B54"/>
<path d="M14.0059 148.004C14.0059 148.004 11.2641 147.994 10.0232 150.411C8.78221 152.828 8.64813 155.381 8.34713 156.288C8.04476 157.195 7.25668 162.529 6.95431 163.3C6.65194 164.073 4.85962 169.316 4.42317 172.271C3.98672 175.227 3.89505 178.225 3.89505 178.225L6.09509 178.155C6.09509 178.155 8.27872 170.114 9.03122 168.202C9.67427 166.566 9.92054 163.709 10.2899 162.702C10.6594 161.695 12.9388 154.609 13.408 154.105C13.8787 153.602 16.3455 148.45 14.0059 148.004Z" fill="#EEA886"/>
<path d="M13.1072 157.802L7.51813 156.04C7.51813 156.04 9.2311 147.784 14.0047 148.005C17.8356 148.18 13.1072 157.802 13.1072 157.802Z" fill="#323657"/>
<path d="M19.9864 131.988C21.5215 131.736 25.0323 132.122 26.0283 136.157C26.0283 136.157 26.031 137.275 25.8628 138.174C25.6945 139.073 26.763 141.542 26.5742 141.691C26.3854 141.841 25.5672 142.098 25.5672 142.098C25.5672 142.098 24.9858 144.996 24.0034 145.084C23.021 145.172 19.2257 144.83 17.0818 141.554C14.9378 138.276 13.7885 133.003 19.9864 131.988Z" fill="#EEA886"/>
<path d="M22.5338 143.959C22.5338 143.959 22.4586 144.365 22.3874 144.962C22.3519 145.267 22.3163 145.621 22.2944 145.998C22.2328 147.038 22.2643 148.241 22.6187 149.005C22.6187 149.005 20.6964 150.199 18.6345 147.33C18.6345 147.33 18.8356 143.749 17.6522 141.856C16.4687 139.961 22.5338 143.959 22.5338 143.959Z" fill="#EEA886"/>
<path d="M26.0269 136.157C26.0269 136.157 23.7174 138.155 21.2697 138.785C18.8234 139.416 17.5277 142.167 17.5277 142.167C17.5277 142.167 13.1988 137.843 15.8106 133.646C18.4252 129.449 26.0228 131.32 26.0269 136.157Z" fill="#434343"/>
<path d="M22.3875 144.962C22.3519 145.267 22.3163 145.621 22.2944 145.998C20.1368 144.95 18.9479 143.512 18.9479 143.512C20.2162 144.421 22.3875 144.962 22.3875 144.962Z" fill="#A77860"/>
<path d="M20.821 138.928C20.821 138.928 18.3186 145.666 18.6183 147.289C18.6183 147.289 17.2939 147.06 14.9351 147.783C14.9351 147.783 16.0748 135.76 20.821 138.928Z" fill="#434343"/>
<path d="M17.7821 147.506C17.7821 147.506 18.6071 152.561 21.6582 151.99C24.7092 151.418 22.3956 147.715 22.3956 147.715C22.3956 147.715 21.2026 146.644 17.7821 147.506Z" fill="#EEA886"/>
<path d="M77.3229 84.6696C77.3229 88.6198 78.7417 92.2358 81.095 95.0392C84.0434 98.5482 88.4627 100.788 93.4182 100.788C98.538 100.788 103.184 98.3797 106.156 94.5254C108.262 91.8001 109.515 88.3814 109.515 84.6696C109.515 75.7661 102.309 68.5493 93.4182 68.5493C84.5291 68.5507 77.3229 75.7675 77.3229 84.6696Z" fill="#EEF0F7"/>
<path d="M81.9064 93.3128C81.9653 93.2539 82.0994 93.2046 82.176 93.1539C82.1815 93.1498 82.1856 93.147 82.191 93.1443L82.1924 93.1456C82.8984 92.7551 84.9698 91.7248 89.0538 90.5505C89.0552 90.5505 89.0566 90.5491 89.0566 90.5491C89.7981 90.323 90.3577 90.1751 90.5506 90.1271L90.8968 89.5749C90.9529 89.0186 90.9419 88.1897 90.9242 87.6347C90.3495 86.9661 89.831 85.922 89.5382 84.2915C89.4451 84.3614 89.3726 84.2079 89.3726 84.2079C89.4246 84.1161 88.5955 82.091 88.7446 81.6347C88.8295 81.3757 89.0019 81.4086 89.1359 81.484C89.1154 81.3661 89.0949 81.2428 89.0744 81.1126C89.0744 81.1126 88.746 78.0078 90.3153 76.2772C90.4768 76.121 91.0555 76.0827 91.0555 76.0827C93.5757 75.3099 95.0875 75.6552 96.0343 76.0608C97.4381 77.2117 97.5448 79.1711 97.4805 80.2508C97.4531 80.5056 97.423 80.7632 97.3943 81.014C97.3943 81.0195 97.3929 81.0222 97.3929 81.0222C97.3806 81.1222 97.3697 81.2195 97.3574 81.3154C97.4887 81.2346 97.6597 81.1935 97.7555 81.4497C97.9238 81.9005 97.3108 83.9215 97.2342 84.0476C97.2342 84.0476 97.1029 84.2545 96.9989 84.1613L96.9975 84.1572C96.7075 85.9343 96.1862 87.0319 95.6376 87.706C95.6772 88.4267 95.7812 89.2749 95.8551 89.8161L96.479 90.4683C96.5118 90.4793 96.5447 90.4902 96.5775 90.5012C96.5775 90.4984 96.5775 90.4971 96.5775 90.4971C103.622 92.3797 105.614 93.691 105.614 93.691C105.791 93.7992 105.973 94.0924 106.155 94.5268C103.172 98.3962 98.5203 100.79 93.417 100.79C88.4587 100.79 84.0395 98.5483 81.0938 95.0406C81.3989 94.298 81.6164 93.6019 81.9064 93.3128Z" fill="#78C2FF"/>
<path d="M206.496 71.9678H206.785V99.2071H206.496V71.9678Z" fill="#E0E0E0"/>
<path d="M186.001 71.9678H186.289V99.2071H186.001V71.9678Z" fill="#E0E0E0"/>
<path d="M165.505 71.9678H165.794V99.2071H165.505V71.9678Z" fill="#E0E0E0"/>
<path d="M145.01 71.9678H145.298V99.2071H145.01V71.9678Z" fill="#E0E0E0"/>
<path d="M124.514 71.9678H124.803V99.2071H124.514V71.9678Z" fill="#E0E0E0"/>
<path d="M203.379 100.821H206.64V101.768H203.379V100.821Z" fill="#B8B8B8"/>
<path d="M201.731 68.6108H206.64V69.3206H201.731V68.6108Z" fill="#D9D9D9"/>
<path d="M199.677 69.9236H206.64V70.6333H199.677V69.9236Z" fill="#D9D9D9"/>
<path d="M180.603 68.6108H186.366V69.3206H180.603V68.6108Z" fill="#D9D9D9"/>
<path d="M182.681 69.9236H186.366V70.6333H182.681V69.9236Z" fill="#D9D9D9"/>
<path d="M161.934 68.6108H165.505V69.3206H161.934V68.6108Z" fill="#D9D9D9"/>
<path d="M161.343 69.9236H165.505V70.6333H161.343V69.9236Z" fill="#D9D9D9"/>
<path d="M139.808 68.6108H145.01V69.3206H139.808V68.6108Z" fill="#D9D9D9"/>
<path d="M140.848 69.9236H145.01V70.6333H140.848V69.9236Z" fill="#D9D9D9"/>
<path d="M121.552 68.6108H124.659V69.3206H121.552V68.6108Z" fill="#D9D9D9"/>
<path d="M122.173 69.9236H124.659V70.6333H122.173V69.9236Z" fill="#D9D9D9"/>
<path d="M182.884 100.821H186.144V101.768H182.884V100.821Z" fill="#B8B8B8"/>
<path d="M162.245 100.821H165.505V101.768H162.245V100.821Z" fill="#B8B8B8"/>
<path d="M141.749 100.821H145.01V101.768H141.749V100.821Z" fill="#B8B8B8"/>
<path d="M121.254 100.821H124.514V101.768H121.254V100.821Z" fill="#B8B8B8"/>
<path d="M131.762 91.1134C138.154 91.1134 143.711 88.6238 149.504 86.0287C156.656 82.8252 164.052 79.5134 173.904 80.4205C180.197 81.0001 184.145 83.3075 187.63 85.3436C190.785 87.1878 193.768 88.8088 197.808 88.9472C204.337 89.1705 206.601 86.6631 206.64 86.5096V84.8996C206.631 84.927 205.206 87.7428 197.815 87.7085C194.175 87.6921 191.488 86.1218 188.379 84.305C184.764 82.1921 180.666 79.7984 174.045 79.1887C163.796 78.2446 156.221 81.6386 148.893 84.9202C141.225 88.3539 133.91 91.5752 124.659 88.78V90.1036C127.296 90.9011 129.406 91.1134 131.762 91.1134Z" fill="url(#paint11_linear)"/>
<path d="M170.132 90.8052C174.851 90.8052 178.593 87.947 182.257 85.1491C185.035 83.028 187.917 80.859 191.245 79.7889C201.398 76.5237 206.593 82.4868 206.64 82.5389V80.7247C206.585 80.6631 205.659 79.5792 202.977 78.5448C200.536 77.6021 196.441 76.8512 190.793 78.6201C187.216 79.7409 184.242 82.0113 181.369 84.205C175.539 88.6568 170.505 92.5029 161.761 86.4795C155.137 81.9182 148.894 77.5705 142.751 75.9825C136.743 74.4287 130.478 75.566 124.616 80.848L124.659 82.495C137.114 71.2266 147.719 78.3666 160.926 87.462C164.424 89.8721 167.438 90.8052 170.132 90.8052Z" fill="url(#paint12_linear)"/>
</g>
<defs>
<linearGradient id="paint0_linear" x1="208.788" y1="97.9292" x2="261.62" y2="95.087" gradientUnits="userSpaceOnUse">
<stop stop-color="#40D5E6"/>
<stop offset="1" stop-color="#5577FF"/>
</linearGradient>
<linearGradient id="paint1_linear" x1="207.188" y1="121.602" x2="231.855" y2="93.7144" gradientUnits="userSpaceOnUse">
<stop stop-color="#40D5E6"/>
<stop offset="1" stop-color="#5577FF"/>
</linearGradient>
<linearGradient id="paint2_linear" x1="212.985" y1="81.6863" x2="237.994" y2="80.3409" gradientUnits="userSpaceOnUse">
<stop stop-color="#40D5E6"/>
<stop offset="1" stop-color="#5577FF"/>
</linearGradient>
<linearGradient id="paint3_linear" x1="214.102" y1="101.295" x2="232.103" y2="69.4657" gradientUnits="userSpaceOnUse">
<stop stop-color="#40D5E6"/>
<stop offset="1" stop-color="#5577FF"/>
</linearGradient>
<linearGradient id="paint4_linear" x1="215.055" y1="56.2346" x2="63.5591" y2="56.2346" gradientUnits="userSpaceOnUse">
<stop stop-color="#40D5E6"/>
<stop offset="1" stop-color="#5577FF"/>
</linearGradient>
<linearGradient id="paint5_linear" x1="230.011" y1="162.985" x2="259.921" y2="162.985" gradientUnits="userSpaceOnUse">
<stop stop-color="#40D5E6"/>
<stop offset="1" stop-color="#5577FF"/>
</linearGradient>
<linearGradient id="paint6_linear" x1="251.952" y1="179.699" x2="279" y2="179.699" gradientUnits="userSpaceOnUse">
<stop stop-color="#40D5E6"/>
<stop offset="1" stop-color="#5577FF"/>
</linearGradient>
<linearGradient id="paint7_linear" x1="254.264" y1="183.638" x2="274.566" y2="183.638" gradientUnits="userSpaceOnUse">
<stop stop-color="#40D5E6"/>
<stop offset="1" stop-color="#5577FF"/>
</linearGradient>
<linearGradient id="paint8_linear" x1="246.933" y1="167.278" x2="270.576" y2="167.278" gradientUnits="userSpaceOnUse">
<stop stop-color="#40D5E6"/>
<stop offset="1" stop-color="#5577FF"/>
</linearGradient>
<linearGradient id="paint9_linear" x1="263.325" y1="201.24" x2="241.508" y2="201.24" gradientUnits="userSpaceOnUse">
<stop stop-color="#FF9340"/>
<stop offset="1" stop-color="#FFCE45"/>
</linearGradient>
<linearGradient id="paint10_linear" x1="263.325" y1="201.24" x2="241.508" y2="201.24" gradientUnits="userSpaceOnUse">
<stop stop-color="#C97332"/>
<stop offset="1" stop-color="#FFCE45"/>
</linearGradient>
<linearGradient id="paint11_linear" x1="115.64" y1="85.0714" x2="199.285" y2="85.0714" gradientUnits="userSpaceOnUse">
<stop stop-color="#40D5E6"/>
<stop offset="1" stop-color="#5577FF"/>
</linearGradient>
<linearGradient id="paint12_linear" x1="206.64" y1="83.0733" x2="124.616" y2="83.0733" gradientUnits="userSpaceOnUse">
<stop stop-color="#40D5E6"/>
<stop offset="1" stop-color="#5577FF"/>
</linearGradient>
<clipPath id="clip0">
<rect width="279" height="236" fill="white" transform="matrix(-1 0 0 1 279 0)"/>
</clipPath>
</defs>
</svg>
