<svg width="280" height="220" viewBox="0 0 280 220" fill="none" xmlns="http://www.w3.org/2000/svg">
<g clip-path="url(#clip0)">
<path opacity="0.2" d="M256.793 217.148H256.486C256.489 217.148 256.395 217.11 256.395 217.058V210.262H226.888V89.8738C226.888 86.6423 224.379 84.1606 221.153 84.1606H40.4845C37.2589 84.1606 34.7137 86.6416 34.7137 89.8738V210.262H4.02686V217.058C4.02686 217.467 4.12822 217.871 4.36913 218.253C4.95787 219.388 6.20687 220.001 7.64263 220.001H7.64401H253.369H253.37C253.371 220.001 253.372 219.972 253.373 219.972C255.199 219.971 256.611 219.096 256.793 217.148Z" fill="black"/>
<path d="M222.792 209.234C222.792 212.453 220.193 215.062 216.986 215.062H36.4229C33.2168 215.062 30.6174 212.453 30.6174 209.234V85.8146C30.6174 82.5963 33.2168 79.9873 36.4229 79.9873H216.986C220.193 79.9873 222.792 82.5963 222.792 85.8146V209.234Z" fill="#1C1C1C"/>
<path d="M0 206.298V213.064C0 214.517 1.6968 216.105 3.65743 216.105H249.383C251.344 216.105 252.437 214.517 252.437 213.064V206.298H0Z" fill="#D1D1D1"/>
<path d="M0.0258789 213.323C0.232078 214.992 1.82752 216.105 3.65623 216.105H249.383C251.211 216.105 252.625 214.992 252.807 213.323H0.0258789Z" fill="#9B9B9B"/>
<path d="M105.983 206.298C106.994 207.758 108.713 209.08 110.666 209.08H142.374C144.327 209.08 146.046 207.758 147.057 206.298H105.983Z" fill="#7F7F7F"/>
<path d="M216.335 88.2643H37.6296V196.978H216.335V88.2643Z" fill="#FF6700"/>
<path d="M86.2981 87.9861H37.0742V196.978H86.2981V87.9861Z" fill="#3F3F3F"/>
<path d="M80.258 132.57H62.2764V135.979H80.258V132.57Z" fill="white"/>
<path d="M80.2579 140.639H54.2227V143.977H80.2579V140.639Z" fill="white"/>
<path d="M80.2579 148.568H58.2495V151.976H80.2579V148.568Z" fill="white"/>
<path d="M80.2578 156.636H51.5149V159.836H80.2578V156.636Z" fill="white"/>
<path d="M80.258 164.565H62.2764V167.834H80.258V164.565Z" fill="white"/>
<path opacity="0.2" d="M184.637 99.2281C184.237 99.2281 183.913 99.2546 183.566 99.3018V99.1843H167.389V6.12077H95.4624V92.9328V132.54V139.885C95.4624 145.679 100.173 150.306 105.957 150.306H116.43H134.342V168.738H193.563C193.563 168.736 193.563 168.734 193.563 168.732V107.626C193.563 102.988 189.626 99.2281 184.637 99.2281Z" fill="#1C1C1C"/>
<path d="M172.18 0H100.461V126.31H172.18V0Z" fill="#F2F2F2"/>
<path d="M139.549 130.136H110.945V144.116H139.549V130.136Z" fill="#D3D3D3"/>
<path d="M121.498 133.657C121.498 139.452 116.829 144.116 111.045 144.116H110.944C105.16 144.116 100.461 139.452 100.461 133.657V86.7216C100.461 80.927 105.159 76.2314 110.944 76.2314H111.045C116.829 76.2314 121.498 80.927 121.498 86.7216V133.657Z" fill="#F2F2F2"/>
<path d="M198.631 162.548C198.631 162.548 198.631 162.599 198.631 162.597V101.491C198.631 96.8522 194.625 93.0921 189.636 93.0921C189.236 93.0921 188.911 93.1185 188.495 93.1658V93.0635H139.132V162.548H198.631Z" fill="white"/>
<path d="M154.962 93.0635H130.246V107.879H154.962V93.0635Z" fill="white"/>
<path d="M139.549 144.116V101.491C139.549 96.8529 135.407 93.0928 130.419 93.0928C125.43 93.0928 121.289 96.8529 121.289 101.491V144.116H139.549Z" fill="#D3D3D3"/>
<path d="M162.182 23.9962H110.945V27.1261H162.182V23.9962Z" fill="#D3D3D3"/>
<path d="M136.563 31.4385H110.945V34.8467H136.563V31.4385Z" fill="#D3D3D3"/>
<path d="M138.229 45.4189H110.945V48.8271H138.229V45.4189Z" fill="#D3D3D3"/>
<path d="M138.229 52.7221H110.945V56.1998H138.229V52.7221Z" fill="#D3D3D3"/>
<path d="M146.075 60.2339H110.945V63.6421H146.075V60.2339Z" fill="#D3D3D3"/>
<path d="M146.075 67.7458H110.945V70.9453H146.075V67.7458Z" fill="#D3D3D3"/>
<path d="M162.182 75.1881H110.945V78.6658H162.182V75.1881Z" fill="#D3D3D3"/>
<path d="M162.182 82.5609H110.945V86.0386H162.182V82.5609Z" fill="#D3D3D3"/>
<path d="M121.289 90.2118H111.153V93.62H121.289V90.2118Z" fill="#D3D3D3"/>
<path d="M117.262 97.5846H111.153V100.993H117.262V97.5846Z" fill="#D3D3D3"/>
<path d="M117.262 104.192H111.153V107.461H117.262V104.192Z" fill="#D3D3D3"/>
<path d="M117.262 111.495H111.153V114.973H117.262V111.495Z" fill="#D3D3D3"/>
<path d="M117.262 119.007H111.153V122.416H117.262V119.007Z" fill="#D3D3D3"/>
<path d="M117.262 126.31H111.153V129.788H117.262V126.31Z" fill="#D3D3D3"/>
<path d="M193.702 100.715H147.394V104.192H193.702V100.715Z" fill="#D3D3D3"/>
<path d="M193.702 108.296H147.394V111.704H193.702V108.296Z" fill="#D3D3D3"/>
<path d="M193.702 115.53H147.394V119.007H193.702V115.53Z" fill="#D3D3D3"/>
<path d="M193.702 123.25H147.394V126.728H193.702V123.25Z" fill="#D3D3D3"/>
<path d="M172.18 130.553H147.394V133.961H172.18V130.553Z" fill="#D3D3D3"/>
<path opacity="0.2" d="M275.765 36.6551H156.35V192.457H275.765V36.6551Z" fill="#1C1C1C"/>
<path d="M254.495 39.7155H161.002V162.592V188.144H186.481H280V65.2516V39.7155H254.495Z" fill="white"/>
<path d="M207.726 66.4243H174.332V68.9282H207.726V66.4243Z" fill="#3EB1BA"/>
<path d="M265.42 76.1619H174.332V77.4834H265.42V76.1619Z" fill="#EFEFEF"/>
<path d="M265.42 78.6658H174.332V79.8482H265.42V78.6658Z" fill="#EFEFEF"/>
<path d="M265.42 81.0307H174.332V82.2826H265.42V81.0307Z" fill="#EFEFEF"/>
<path d="M265.42 83.5346H174.332V84.717H265.42V83.5346Z" fill="#EFEFEF"/>
<path d="M236.886 85.969H174.332V87.1514H236.886V85.969Z" fill="#EFEFEF"/>
<path d="M266.67 152.254H175.582V153.437H266.67V152.254Z" fill="#EFEFEF"/>
<path d="M266.67 154.689H175.582V155.941H266.67V154.689Z" fill="#EFEFEF"/>
<path d="M266.67 157.123H175.582V158.305H266.67V157.123Z" fill="#EFEFEF"/>
<path d="M266.67 159.488H175.582V160.809H266.67V159.488Z" fill="#EFEFEF"/>
<path d="M266.67 161.992H175.582V163.174H266.67V161.992Z" fill="#EFEFEF"/>
<path d="M266.67 164.426H175.582V165.678H266.67V164.426Z" fill="#EFEFEF"/>
<path d="M266.67 166.861H175.582V168.043H266.67V166.861Z" fill="#EFEFEF"/>
<path d="M238.066 169.295H175.582V170.477H238.066V169.295Z" fill="#EFEFEF"/>
<path d="M221.751 148.637H175.582V150.376H221.751V148.637Z" fill="#89E542"/>
<path d="M241.121 70.7366H174.332V72.6146H241.121V70.7366Z" fill="#89E542"/>
<path d="M229.526 137.022H227.166V143.769H229.526V137.022Z" fill="#92D4D6"/>
<path d="M245.981 137.022H243.62V143.769H245.981V137.022Z" fill="#92D4D6"/>
<path d="M258.755 137.022H256.325V143.769H258.755V137.022Z" fill="#92D4D6"/>
<path d="M238.066 135.213H235.705V143.769H238.066V135.213Z" fill="#92D4D6"/>
<path d="M254.451 133.336H252.09V143.769H254.451V133.336Z" fill="#92D4D6"/>
<path d="M250.216 131.527H247.855V143.769H250.216V131.527Z" fill="#92D4D6"/>
<path d="M242.301 132.153H239.94V143.769H242.301V132.153Z" fill="#92D4D6"/>
<path d="M233.831 134.031H231.401V143.769H233.831V134.031Z" fill="#92D4D6"/>
<path d="M187.106 137.022H184.677V143.769H187.106V137.022Z" fill="#3EB1BA"/>
<path d="M203.422 137.022H201.061V143.769H203.422V137.022Z" fill="#3EB1BA"/>
<path d="M216.196 137.022H213.836V143.769H216.196V137.022Z" fill="#3EB1BA"/>
<path d="M195.646 135.213H193.146V143.769H195.646V135.213Z" fill="#3EB1BA"/>
<path d="M211.961 133.336H209.601V143.769H211.961V133.336Z" fill="#3EB1BA"/>
<path d="M207.726 131.527H205.296V143.769H207.726V131.527Z" fill="#3EB1BA"/>
<path d="M199.881 132.153H197.382V143.769H199.881V132.153Z" fill="#3EB1BA"/>
<path d="M191.341 134.031H188.911V143.769H191.341V134.031Z" fill="#3EB1BA"/>
<path d="M265.42 90.2118H174.332V118.798H265.42V90.2118Z" fill="#DEF4CB"/>
<path d="M200.245 114.226C194.944 114.226 190.63 109.905 190.63 104.594C190.63 99.2824 194.944 94.961 200.245 94.961C205.547 94.961 209.86 99.2824 209.86 104.594C209.86 109.905 205.547 114.226 200.245 114.226ZM200.245 98.0026C196.618 98.0026 193.667 100.959 193.667 104.594C193.667 108.228 196.618 111.184 200.245 111.184C203.873 111.184 206.824 108.228 206.824 104.594C206.824 100.959 203.873 98.0026 200.245 98.0026Z" fill="#AEDB7B"/>
<path d="M200.436 94.9714V98.013C203.63 98.1111 206.258 100.436 206.738 103.636H209.805C209.304 98.8365 205.296 95.073 200.436 94.9714Z" fill="#5FA31D"/>
<path d="M193.989 106.627H190.849C191.48 109.548 193.448 111.995 196.078 113.27L197.492 110.576C195.84 109.809 194.557 108.365 193.989 106.627Z" fill="#3EB1BA"/>
<path d="M240.566 94.9839V104.818H230.829C231.014 109.826 235.163 113.933 240.269 113.933C245.493 113.933 249.747 109.685 249.747 104.452C249.747 99.306 245.634 95.1223 240.566 94.9839Z" fill="#81DFE2"/>
<path d="M239.316 93.7674C239.246 93.7653 239.144 93.7542 239.055 93.7542C233.832 93.7542 229.597 98.0248 229.597 103.258C229.597 103.376 229.609 103.427 229.614 103.636H239.316V93.7674Z" fill="#3EB1BA"/>
<g opacity="0.2">
<path opacity="0.2" d="M131.902 107.865L145.054 121.042L147.067 123.058L183.663 86.3947L183.852 86.5846L185.375 85.0593L184.216 83.8977C183.355 81.8549 183.646 79.3475 183.646 76.9354C183.646 74.0356 184.516 71.3425 186.001 69.0931L185.69 68.7815L187.881 66.4403L186.002 63.7618L184.59 63.8126L182.656 65.7406L182.403 65.4874C179.987 67.387 176.951 68.5304 173.643 68.5304C171.441 68.5304 169.365 68.0136 167.505 67.1192L167.486 67.138L167.264 66.9147L165.742 68.4393L165.965 68.6626L129.368 105.326L131.902 107.865Z" fill="#1C1C1C"/>
<path opacity="0.2" d="M200.881 90.6973L204.561 94.3517V94.3524L204.578 94.3684L209.401 85.656L200.881 90.6973Z" fill="#1C1C1C"/>
<path opacity="0.2" d="M190.657 95.7608L119.132 167.416V167.416L118.688 167.861L117.627 168.924H117.626L113.686 172.872L122.557 181.76L124.289 180.025L124.536 179.777L126.498 177.812L127.241 177.068L127.859 176.449L199.528 104.648L204.561 94.3524L200.882 90.6973L190.657 95.7608Z" fill="#1C1C1C"/>
</g>
<path d="M183.646 72.4845C183.646 69.5848 184.516 66.8916 186.001 64.6423L182.402 61.0366C179.986 62.9361 176.949 64.0796 173.641 64.0796C171.44 64.0796 169.364 63.5628 167.504 62.6683L138.245 91.9806L155.944 109.713L184.589 80.1821C183.277 78.0252 183.646 75.1943 183.646 72.4845Z" fill="#111111"/>
<path d="M182.332 61.6105L184.589 59.3611L186.001 59.3103L187.881 61.9888L185.374 64.6673L182.332 61.888" fill="#0FB4DB"/>
<path d="M147.066 118.607L129.367 100.874L166.889 63.2839L184.589 81.0153L147.066 118.607Z" fill="#0FB4DB"/>
<path d="M145.053 116.59L131.901 103.414L169.424 65.8233L182.575 78.999L145.053 116.59Z" fill="#1FC2DD"/>
<path opacity="0.4" d="M143.201 105.841L139.972 102.606L160.273 82.2687L163.501 85.5044L143.201 105.841Z" fill="white"/>
<path opacity="0.2" d="M159.306 92.9379L144.813 107.457L146.379 109.026L160.872 94.5064L159.306 92.9379Z" fill="#111111"/>
<path d="M183.852 82.1331L165.74 63.9871L167.262 62.4625L185.374 80.6078L183.852 82.1331Z" fill="#111111"/>
<path d="M124.289 175.574L115.419 166.685L190.657 91.3094L199.528 100.197L124.289 175.574Z" fill="#18508C"/>
<path d="M122.159 173.441L117.901 169.174L193.141 93.798L197.399 98.0638L122.159 173.441Z" fill="#104172"/>
<path d="M122.557 177.308L113.686 168.421L117.626 164.473L126.498 173.36L122.557 177.308Z" fill="#111111"/>
<path d="M119.131 162.963L118.368 163.727L127.239 172.614L128.002 171.85L119.131 162.963Z" fill="white"/>
<path d="M209.401 81.2046L200.882 86.2458L204.578 89.9169L209.401 81.2046Z" fill="#333333"/>
<path d="M204.578 89.9169L204.611 89.823L204.561 89.9009L204.578 89.9169Z" fill="#E8C27E"/>
<path d="M190.657 91.3094L199.528 100.197L204.561 89.9009L200.882 86.2458L190.657 91.3094Z" fill="#E8C27E"/>
<path d="M57.2572 125.719C42.0061 109.537 42.7406 83.9401 58.8949 68.6618C75.0479 53.3829 100.598 54.1188 115.849 70.3019C131.1 86.4851 130.365 112.082 114.212 127.36C98.0574 142.638 72.5082 141.902 57.2572 125.719ZM112.828 73.1585C99.1495 58.6432 76.2344 57.9832 61.7456 71.6874C47.2582 85.3903 46.5994 108.348 60.2772 122.863C73.9558 137.378 96.8723 138.038 111.36 124.334C125.848 110.63 126.507 87.6731 112.828 73.1585Z" fill="#262626"/>
<path d="M18.3044 167.427L13.1716 161.981L54.8502 122.56L59.9829 128.007L18.3044 167.427Z" fill="#262626"/>
<path d="M58.0697 133.249L48.9456 123.567L53.1737 119.567L62.2978 129.25L58.0697 133.249Z" fill="#262626"/>
<path d="M41.8296 125.713L9.81738 155.993L24.0745 171.121L56.0867 140.841L41.8296 125.713Z" fill="#FF6700"/>
<path d="M20.6533 167.495L13.8105 160.233L45.8241 129.954L52.6669 137.215L20.6533 167.495Z" fill="#F2501D"/>
<path d="M22.2632 172.84L8.00635 157.711L12.2345 153.711L26.4913 168.841L22.2632 172.84Z" fill="#262626"/>
<path opacity="0.05" d="M68.7613 89.1838C79.7558 78.7834 97.0842 79.2821 107.465 90.2981C114.283 97.5324 116.407 107.505 113.946 116.444C122.564 103.945 121.616 86.6994 110.787 75.2097C98.3436 62.0049 77.571 61.4074 64.3909 73.8736C51.5406 86.0268 50.6568 106.108 62.1498 119.343C58.0848 109.19 60.3405 97.1471 68.7613 89.1838Z" fill="white"/>
<path opacity="0.1" d="M95.141 90.5561C89.8041 95.6044 81.3923 95.3623 76.3526 90.015C71.3136 84.6677 71.5552 76.2398 76.892 71.1923C82.2303 66.1426 90.6428 66.3861 95.6811 71.7327C100.721 77.08 100.479 85.5079 95.141 90.5561Z" fill="white"/>
</g>
<defs>
<clipPath id="clip0">
<rect width="280" height="220" fill="white"/>
</clipPath>
</defs>
</svg>
