<svg width="278" height="191" viewBox="0 0 278 191" fill="none" xmlns="http://www.w3.org/2000/svg">
<path d="M15.9608 189.661C15.9608 189.661 -16.034 144.68 10.5425 95.991C34.128 52.7774 61.6118 55.7484 81.7894 73.2793C90.3704 80.7435 115.157 74.1878 136.242 30.2376C165.001 -29.7211 264.663 6.64207 246.471 98.8882C237.669 143.526 273.244 145.146 255.126 189.784L15.9608 189.661Z" fill="#EBF3FA"/>
<path d="M138.473 141.685L141.684 142.225C141.93 142.274 142.175 142.372 142.346 142.519C142.542 142.667 142.665 142.888 142.714 143.109C142.739 143.182 142.739 143.256 142.739 143.33C142.739 143.403 142.739 143.452 142.739 143.526L135.359 188.335C135.261 188.925 134.672 189.293 134.01 189.219C133.986 189.219 133.961 189.219 133.937 189.219L130.725 188.679C130.701 188.679 130.676 188.679 130.652 188.679C130.014 188.532 129.573 187.992 129.646 187.402L137.026 142.593C137.026 142.519 137.051 142.47 137.075 142.397C137.1 142.323 137.124 142.274 137.173 142.2C137.296 142.004 137.492 141.856 137.713 141.758C137.958 141.684 138.203 141.66 138.473 141.685Z" fill="#FFB93E"/>
<path d="M139.282 164.421L135.335 188.434C135.261 188.949 134.648 189.293 134.011 189.219C133.986 189.219 133.962 189.219 133.937 189.219L130.726 188.679C130.701 188.679 130.677 188.679 130.652 188.679C130.015 188.556 129.549 188.041 129.647 187.525L133.128 166.459C134.844 166.385 137.296 165.968 139.282 164.421Z" fill="#FFA412"/>
<path d="M136.33 146.958L136.246 147.467L141.931 148.408L142.015 147.899L136.33 146.958Z" fill="#FFA412"/>
<path d="M136.043 148.66L135.959 149.169L141.644 150.107L141.728 149.598L136.043 148.66Z" fill="#FFA412"/>
<path d="M135.715 150.743L135.631 151.252L141.315 152.192L141.399 151.683L135.715 150.743Z" fill="#FFA412"/>
<path d="M135.205 153.887L135.121 154.396L140.806 155.335L140.89 154.827L135.205 153.887Z" fill="#FFA412"/>
<path d="M134.637 157.242L134.553 157.751L140.238 158.69L140.322 158.181L134.637 157.242Z" fill="#FFA412"/>
<path d="M133.783 162.375L133.699 162.884L139.384 163.822L139.468 163.313L133.783 162.375Z" fill="#FFA412"/>
<path d="M132.992 167.211L132.908 167.72L138.593 168.661L138.677 168.152L132.992 167.211Z" fill="#FFA412"/>
<path d="M132.293 171.496L132.209 172.005L137.894 172.944L137.978 172.436L132.293 171.496Z" fill="#FFA412"/>
<path d="M136.594 145.307L136.511 145.816L142.196 146.754L142.279 146.245L136.594 145.307Z" fill="#FFA412"/>
<path d="M136.783 144.197L136.699 144.706L142.384 145.645L142.468 145.136L136.783 144.197Z" fill="#FFA412"/>
<path d="M136.967 143.162L136.883 143.671L142.568 144.609L142.652 144.1L136.967 143.162Z" fill="#FFA412"/>
<path d="M137.002 142.887L142.69 143.82L142.739 143.501C142.739 143.428 142.763 143.378 142.739 143.305L137.1 142.372C137.075 142.421 137.051 142.495 137.051 142.568L137.002 142.887Z" fill="#FFA412"/>
<path d="M137.198 142.2L142.714 143.109C142.665 142.888 142.518 142.691 142.347 142.519L137.762 141.758C137.517 141.856 137.321 142.004 137.198 142.2Z" fill="#FFA412"/>
<path d="M144.283 141.685L147.495 142.225C147.74 142.274 147.985 142.372 148.157 142.519C148.353 142.667 148.476 142.888 148.525 143.109C148.549 143.182 148.549 143.256 148.549 143.33C148.549 143.403 148.549 143.452 148.549 143.526L141.17 188.335C141.072 188.925 140.483 189.293 139.821 189.219C139.797 189.219 139.772 189.219 139.748 189.219L136.536 188.679C136.511 188.679 136.487 188.679 136.462 188.679C135.825 188.532 135.384 187.992 135.457 187.402L142.837 142.593C142.837 142.519 142.861 142.47 142.886 142.397C142.91 142.323 142.935 142.274 142.984 142.2C143.107 142.004 143.303 141.856 143.523 141.758C143.793 141.684 144.038 141.66 144.283 141.685Z" fill="#FFB93E"/>
<path d="M145.117 164.421L141.146 188.434C141.072 188.949 140.459 189.293 139.822 189.219C139.797 189.219 139.773 189.219 139.748 189.219L136.536 188.679C136.512 188.679 136.487 188.679 136.463 188.679C135.825 188.556 135.36 188.041 135.458 187.525L138.939 166.459C140.68 166.385 143.107 165.968 145.117 164.421Z" fill="#FFA412"/>
<path d="M142.154 146.944L142.07 147.453L147.754 148.394L147.838 147.885L142.154 146.944Z" fill="#FFA412"/>
<path d="M141.866 148.676L141.782 149.185L147.467 150.123L147.551 149.614L141.866 148.676Z" fill="#FFA412"/>
<path d="M141.535 150.754L141.451 151.263L147.136 152.203L147.219 151.694L141.535 150.754Z" fill="#FFA412"/>
<path d="M141.022 153.892L140.938 154.401L146.623 155.34L146.706 154.831L141.022 153.892Z" fill="#FFA412"/>
<path d="M140.457 157.252L140.373 157.761L146.058 158.701L146.142 158.192L140.457 157.252Z" fill="#FFA412"/>
<path d="M139.598 162.399L139.514 162.908L145.198 163.848L145.282 163.339L139.598 162.399Z" fill="#FFA412"/>
<path d="M138.819 167.177L138.735 167.686L144.42 168.625L144.504 168.116L138.819 167.177Z" fill="#FFA412"/>
<path d="M138.114 171.476L138.03 171.985L143.715 172.924L143.798 172.415L138.114 171.476Z" fill="#FFA412"/>
<path d="M142.414 145.307L142.33 145.816L148.014 146.756L148.098 146.247L142.414 145.307Z" fill="#FFA412"/>
<path d="M142.604 144.225L142.52 144.734L148.205 145.672L148.289 145.163L142.604 144.225Z" fill="#FFA412"/>
<path d="M142.787 143.173L142.703 143.682L148.388 144.62L148.471 144.111L142.787 143.173Z" fill="#FFA412"/>
<path d="M142.813 142.887L148.501 143.82L148.55 143.501C148.55 143.428 148.575 143.378 148.55 143.305L142.911 142.372C142.887 142.421 142.862 142.495 142.862 142.568L142.813 142.887Z" fill="#FFA412"/>
<path d="M143.009 142.2L148.526 143.109C148.477 142.888 148.329 142.691 148.158 142.519L143.573 141.758C143.328 141.856 143.156 142.004 143.009 142.2Z" fill="#FFA412"/>
<path d="M123.002 184.702V187.967C123.002 188.237 122.929 188.458 122.806 188.679C122.684 188.9 122.512 189.048 122.292 189.146C122.218 189.17 122.169 189.195 122.095 189.22C122.022 189.244 121.973 189.244 121.899 189.244L76.5425 189.146C75.9541 189.146 75.4882 188.606 75.4392 187.943C75.4392 187.918 75.4392 187.894 75.4392 187.869V184.604C75.4392 184.579 75.4392 184.554 75.4392 184.53C75.4637 183.867 75.9541 183.351 76.5425 183.351L121.899 183.45C121.973 183.45 122.022 183.45 122.095 183.474C122.169 183.499 122.242 183.499 122.292 183.548C122.512 183.646 122.684 183.818 122.806 184.014C122.929 184.211 123.002 184.456 123.002 184.702Z" fill="#FFB93E"/>
<path d="M100.716 189.17L76.4199 189.121C75.905 189.121 75.4637 188.581 75.4392 187.918C75.4392 187.893 75.4392 187.869 75.4392 187.844V184.579C75.4392 184.554 75.4392 184.53 75.4392 184.505C75.4637 183.842 75.905 183.326 76.4199 183.326L97.7253 183.376C98.0931 185.094 98.8776 187.451 100.716 189.17Z" fill="#FFA412"/>
<path d="M116.98 183.431L116.966 189.201L117.481 189.203L117.495 183.433L116.98 183.431Z" fill="#FFA412"/>
<path d="M115.215 183.423L115.202 189.193L115.717 189.194L115.73 183.424L115.215 183.423Z" fill="#FFA412"/>
<path d="M113.128 183.434L113.113 189.204L113.628 189.206L113.643 183.436L113.128 183.434Z" fill="#FFA412"/>
<path d="M109.929 183.432L109.915 189.202L110.43 189.203L110.443 183.433L109.929 183.432Z" fill="#FFA412"/>
<path d="M106.546 183.417L106.532 189.187L107.047 189.188L107.06 183.418L106.546 183.417Z" fill="#FFA412"/>
<path d="M101.335 183.403L101.322 189.173L101.836 189.175L101.85 183.405L101.335 183.403Z" fill="#FFA412"/>
<path d="M96.479 183.379L96.4653 189.149L96.9802 189.15L96.9939 183.38L96.479 183.379Z" fill="#FFA412"/>
<path d="M92.1193 183.386L92.1042 189.156L92.6191 189.157L92.6342 183.387L92.1193 183.386Z" fill="#FFA412"/>
<path d="M118.637 183.454L118.623 189.224L119.138 189.225L119.152 183.455L118.637 183.454Z" fill="#FFA412"/>
<path d="M119.73 183.45L119.718 189.22L120.233 189.221L120.245 183.451L119.73 183.45Z" fill="#FFA412"/>
<path d="M120.788 183.458L120.774 189.228L121.289 189.229L121.303 183.459L120.788 183.458Z" fill="#FFA412"/>
<path d="M121.581 183.449V189.219H121.899C121.973 189.219 122.022 189.219 122.095 189.195V183.474C122.022 183.449 121.973 183.449 121.899 183.449H121.581Z" fill="#FFA412"/>
<path d="M122.292 183.548V189.146C122.512 189.047 122.684 188.876 122.806 188.679V184.014C122.684 183.793 122.512 183.621 122.292 183.548Z" fill="#FFA412"/>
<path d="M118.173 178.932V182.197C118.173 182.467 118.099 182.688 117.977 182.909C117.854 183.13 117.682 183.278 117.462 183.376C117.388 183.4 117.339 183.425 117.266 183.449C117.192 183.474 117.143 183.474 117.069 183.474L71.7126 183.376C71.1242 183.376 70.6584 182.836 70.6094 182.173C70.6094 182.148 70.6094 182.124 70.6094 182.099V178.833C70.6094 178.809 70.6094 178.784 70.6094 178.76C70.6339 178.097 71.1242 177.581 71.7126 177.581L117.069 177.68C117.094 177.68 117.118 177.68 117.167 177.68C117.167 177.68 117.192 177.68 117.216 177.68C117.241 177.68 117.241 177.68 117.266 177.68H117.29C117.364 177.704 117.437 177.704 117.486 177.753C117.486 177.753 117.511 177.753 117.511 177.778C117.511 177.778 117.535 177.778 117.535 177.802C117.56 177.802 117.584 177.827 117.584 177.827L117.609 177.851C117.609 177.851 117.633 177.851 117.633 177.876C117.658 177.876 117.658 177.9 117.682 177.925C117.707 177.95 117.731 177.95 117.731 177.974C117.756 177.999 117.756 177.999 117.78 178.023L117.805 178.048C117.829 178.072 117.854 178.097 117.878 178.146L117.903 178.171L117.927 178.195C117.952 178.22 117.952 178.244 117.977 178.269C118.099 178.441 118.173 178.662 118.173 178.932Z" fill="#FFB93E"/>
<path d="M95.8866 183.4L71.5901 183.351C71.0752 183.351 70.6339 182.811 70.6094 182.148C70.6094 182.123 70.6094 182.099 70.6094 182.074V178.809C70.6094 178.784 70.6094 178.76 70.6094 178.735C70.6339 178.072 71.0752 177.556 71.5901 177.556L92.8955 177.605C92.8955 177.655 92.92 177.704 92.92 177.753C93.2877 179.447 94.0968 181.706 95.8866 183.4Z" fill="#FFA412"/>
<path d="M112.126 177.669L112.112 183.439L112.627 183.44L112.64 177.67L112.126 177.669Z" fill="#FFA412"/>
<path d="M110.385 177.661L110.372 183.431L110.886 183.432L110.9 177.662L110.385 177.661Z" fill="#FFA412"/>
<path d="M108.298 177.648L108.284 183.418L108.799 183.419L108.813 177.649L108.298 177.648Z" fill="#FFA412"/>
<path d="M105.099 177.645L105.085 183.415L105.6 183.417L105.613 177.647L105.099 177.645Z" fill="#FFA412"/>
<path d="M101.691 177.63L101.678 183.4L102.193 183.401L102.205 177.631L101.691 177.63Z" fill="#FFA412"/>
<path d="M96.5058 177.616L96.4907 183.386L97.0056 183.387L97.0206 177.617L96.5058 177.616Z" fill="#FFA412"/>
<path d="M91.625 177.616L91.6113 183.386L92.1262 183.387L92.1398 177.617L91.625 177.616Z" fill="#FFA412"/>
<path d="M87.288 177.599L87.2759 183.369L87.7907 183.37L87.8028 177.6L87.288 177.599Z" fill="#FFA412"/>
<path d="M113.782 177.666L113.769 183.436L114.284 183.437L114.297 177.668L113.782 177.666Z" fill="#FFA412"/>
<path d="M114.902 177.663L114.888 183.433L115.403 183.434L115.417 177.664L114.902 177.663Z" fill="#FFA412"/>
<path d="M115.958 177.67L115.945 183.44L116.459 183.442L116.473 177.672L115.958 177.67Z" fill="#FFA412"/>
<path d="M116.75 177.679V183.449H117.069C117.143 183.449 117.192 183.449 117.265 183.424V177.703C117.192 177.679 117.143 177.679 117.069 177.679H116.75Z" fill="#FFA412"/>
<path d="M117.461 177.752V183.351C117.682 183.252 117.854 183.105 117.976 182.884V178.219C117.854 178.023 117.682 177.851 117.461 177.752Z" fill="#FFA412"/>
<path d="M120.526 173.309V176.574C120.526 176.844 120.453 177.065 120.33 177.286C120.207 177.507 120.036 177.654 119.815 177.753C119.742 177.777 119.693 177.802 119.619 177.826C119.545 177.851 119.496 177.851 119.423 177.851L74.0662 177.753C73.8945 177.753 73.7229 177.704 73.5513 177.605C73.2326 177.409 73.0119 177.041 72.9629 176.623C72.9629 176.599 72.9629 176.574 72.9629 176.574C72.9629 176.55 72.9629 176.525 72.9629 176.5V173.235C72.9629 173.21 72.9629 173.186 72.9629 173.161C72.9874 172.498 73.4777 171.983 74.0662 171.983L119.423 172.081C119.496 172.081 119.545 172.081 119.619 172.105C119.693 172.13 119.766 172.13 119.815 172.179C120.036 172.277 120.207 172.449 120.33 172.646C120.453 172.817 120.526 173.063 120.526 173.309Z" fill="#FFB93E"/>
<path d="M98.2402 177.777L73.9437 177.728C73.7721 177.728 73.625 177.679 73.5024 177.581C73.2082 177.384 73.0121 177.016 72.9875 176.599C72.9875 176.574 72.9875 176.549 72.9875 176.549C72.9875 176.525 72.9875 176.5 72.9875 176.476V173.21C72.9875 173.186 72.9875 173.161 72.9875 173.137C73.0121 172.474 73.4534 171.958 73.9682 171.958L95.2736 172.007C95.5924 173.652 96.3524 175.936 98.0931 177.63C98.1421 177.679 98.1912 177.728 98.2402 177.777Z" fill="#FFA412"/>
<path d="M121.605 167.539V170.804C121.605 171.075 121.531 171.296 121.409 171.517C121.286 171.737 121.115 171.885 120.894 171.983C120.82 172.008 120.771 172.032 120.698 172.057C120.624 172.081 120.575 172.081 120.502 172.081L75.145 171.983C74.5566 171.983 74.0908 171.443 74.0417 170.78C74.0417 170.755 74.0417 170.731 74.0417 170.706V167.441C74.0417 167.416 74.0417 167.392 74.0417 167.367C74.0663 166.753 74.4831 166.262 74.9979 166.188C75.0469 166.188 75.0715 166.188 75.1205 166.188L120.477 166.287C120.551 166.287 120.6 166.287 120.673 166.311C120.747 166.336 120.82 166.336 120.869 166.385C121.09 166.483 121.262 166.655 121.384 166.851C121.531 167.048 121.605 167.293 121.605 167.539Z" fill="#FFB93E"/>
<path d="M99.3433 172.007L75.0469 171.958C74.532 171.958 74.0907 171.418 74.0662 170.755C74.0662 170.731 74.0662 170.706 74.0662 170.682V167.416C74.0662 167.391 74.0662 167.367 74.0662 167.342C74.0907 166.729 74.4584 166.237 74.9243 166.164C74.9733 166.164 74.9978 166.164 75.0469 166.164L96.3522 166.213C96.6955 167.932 97.48 170.289 99.3433 172.007Z" fill="#FFA412"/>
<path d="M118.295 161.793V165.059C118.295 165.329 118.222 165.55 118.099 165.771C117.977 165.992 117.805 166.139 117.584 166.237C117.511 166.262 117.462 166.286 117.388 166.311C117.364 166.311 117.339 166.311 117.315 166.311H117.29H117.266C117.241 166.311 117.217 166.311 117.217 166.311L71.8599 166.213C71.2714 166.213 70.8056 165.673 70.7566 165.01C70.7566 164.985 70.7566 164.961 70.7566 164.936V161.67C70.7566 161.646 70.7566 161.621 70.7566 161.597C70.7566 161.572 70.7566 161.572 70.7566 161.548C70.8056 161.008 71.1489 160.59 71.5902 160.443H71.6147C71.6882 160.418 71.7618 160.418 71.8599 160.418L117.217 160.516C117.241 160.516 117.29 160.516 117.315 160.516C117.339 160.516 117.339 160.516 117.364 160.516C117.388 160.516 117.388 160.516 117.413 160.516C117.486 160.541 117.56 160.541 117.609 160.59C117.83 160.688 118.001 160.86 118.124 161.057C118.222 161.278 118.295 161.523 118.295 161.793Z" fill="#FFB93E"/>
<path d="M96.0091 166.237L71.7126 166.188C71.1978 166.188 70.7565 165.648 70.7319 164.985C70.7319 164.96 70.7319 164.936 70.7319 164.911V161.646C70.7319 161.621 70.7319 161.597 70.7319 161.572C70.7319 161.548 70.7319 161.548 70.7319 161.523C70.781 160.983 71.0752 160.541 71.492 160.418C71.5165 160.418 71.5165 160.418 71.541 160.418C71.59 160.394 71.6636 160.394 71.7126 160.394L93.018 160.443C93.018 160.467 93.018 160.467 93.018 160.492C93.3858 162.21 94.1703 164.518 96.0091 166.237Z" fill="#FFA412"/>
<path d="M118.197 156.048V159.313C118.197 159.583 118.124 159.804 118.001 160.025C117.878 160.246 117.707 160.394 117.486 160.492C117.437 160.516 117.388 160.541 117.339 160.541C117.314 160.541 117.314 160.541 117.29 160.541C117.216 160.565 117.167 160.565 117.094 160.565L71.7371 160.467C71.688 160.467 71.639 160.467 71.59 160.467C71.5654 160.467 71.5654 160.467 71.5409 160.467C71.0506 160.369 70.6583 159.878 70.6338 159.289C70.6338 159.264 70.6338 159.24 70.6338 159.215V155.949C70.6338 155.925 70.6338 155.9 70.6338 155.876C70.6583 155.213 71.1487 154.697 71.7371 154.697L117.094 154.795C117.118 154.795 117.143 154.795 117.192 154.795C117.192 154.795 117.216 154.795 117.241 154.795C117.265 154.795 117.265 154.795 117.29 154.795H117.314C117.388 154.82 117.462 154.82 117.511 154.869C117.511 154.869 117.535 154.869 117.535 154.894C117.535 154.894 117.56 154.894 117.56 154.918C117.584 154.918 117.609 154.943 117.609 154.943C117.633 154.967 117.658 154.967 117.658 154.992C117.682 154.992 117.682 155.016 117.707 155.041C117.731 155.066 117.756 155.066 117.756 155.09C117.78 155.115 117.78 155.115 117.805 155.139L117.829 155.164C117.854 155.188 117.878 155.213 117.903 155.262L117.927 155.287L117.952 155.311C117.976 155.336 117.976 155.36 118.001 155.385C118.124 155.557 118.197 155.802 118.197 156.048Z" fill="#FFB93E"/>
<path d="M95.9356 160.516L71.6391 160.467C71.6146 160.467 71.5901 160.467 71.5901 160.467C71.5656 160.467 71.5411 160.467 71.5165 160.467C71.0507 160.394 70.683 159.903 70.6584 159.289C70.6584 159.264 70.6584 159.24 70.6584 159.215V155.949C70.6584 155.925 70.6584 155.9 70.6584 155.876C70.683 155.213 71.1243 154.697 71.6391 154.697L92.9445 154.746C92.9445 154.795 92.9691 154.845 92.9691 154.894C93.3123 156.563 94.0969 158.822 95.8621 160.492C95.8866 160.492 95.9111 160.492 95.9356 160.516Z" fill="#FFA412"/>
<path d="M120.551 150.45V153.715C120.551 153.986 120.477 154.207 120.355 154.428C120.232 154.648 120.06 154.796 119.84 154.894C119.766 154.919 119.717 154.943 119.644 154.968C119.57 154.992 119.521 154.992 119.448 154.992L74.0908 154.894C73.9192 154.894 73.7476 154.845 73.576 154.747C73.2572 154.55 73.0366 154.182 72.9875 153.765C72.9875 153.74 72.9875 153.715 72.9875 153.715C72.9875 153.691 72.9875 153.666 72.9875 153.642V150.376C72.9875 150.352 72.9875 150.327 72.9875 150.303C73.0121 149.64 73.5024 149.124 74.0908 149.124L119.448 149.222C119.521 149.222 119.57 149.222 119.644 149.247C119.717 149.271 119.791 149.271 119.84 149.32C120.06 149.419 120.232 149.591 120.355 149.787C120.477 149.934 120.551 150.18 120.551 150.45Z" fill="#FFB93E"/>
<path d="M98.2893 154.894L73.9928 154.845C73.8212 154.845 73.6741 154.796 73.5515 154.698C73.2573 154.501 73.0611 154.133 73.0366 153.716C73.0366 153.691 73.0366 153.666 73.0366 153.666C73.0366 153.642 73.0366 153.617 73.0366 153.593V150.327C73.0366 150.303 73.0366 150.278 73.0366 150.253C73.0611 149.591 73.5024 149.075 74.0173 149.075L95.3227 149.124C95.6414 150.769 96.4015 153.053 98.1422 154.747C98.1912 154.796 98.2403 154.845 98.2893 154.894Z" fill="#FFA412"/>
<path d="M124.277 144.68V147.945C124.277 148.215 124.204 148.436 124.081 148.657C123.959 148.878 123.787 149.026 123.566 149.124C123.493 149.148 123.444 149.173 123.37 149.198C123.297 149.222 123.248 149.222 123.174 149.222L77.8174 149.124C77.229 149.124 76.7631 148.584 76.7141 147.921C76.7141 147.896 76.7141 147.872 76.7141 147.847V144.582C76.7141 144.557 76.7141 144.532 76.7141 144.508C76.7386 143.894 77.1554 143.403 77.6703 143.329C77.7193 143.329 77.7683 143.329 77.7929 143.329L123.15 143.428C123.223 143.428 123.272 143.428 123.346 143.452C123.419 143.477 123.493 143.477 123.542 143.526C123.763 143.624 123.934 143.796 124.057 143.992C124.204 144.189 124.277 144.41 124.277 144.68Z" fill="#FFB93E"/>
<path d="M101.991 149.148L77.6948 149.099C77.1799 149.099 76.7386 148.559 76.7141 147.896C76.7141 147.872 76.7141 147.847 76.7141 147.822V144.557C76.7141 144.532 76.7141 144.508 76.7141 144.483C76.7386 143.869 77.1064 143.378 77.5722 143.305C77.6212 143.305 77.6458 143.305 77.6948 143.305L99.0002 143.354C99.368 145.073 100.153 147.405 101.991 149.148Z" fill="#FFA412"/>
<path d="M118.32 138.91V142.175C118.32 142.445 118.246 142.666 118.124 142.887C118.001 143.108 117.83 143.256 117.609 143.354C117.535 143.378 117.486 143.403 117.413 143.427C117.388 143.427 117.364 143.427 117.339 143.427C117.315 143.427 117.315 143.427 117.29 143.427H117.266C117.241 143.427 117.241 143.427 117.217 143.427L71.8599 143.329C71.2714 143.329 70.8056 142.789 70.7566 142.126C70.7566 142.102 70.7566 142.077 70.7566 142.052V138.787C70.7566 138.762 70.7566 138.738 70.7566 138.713C70.7811 138.05 71.2714 137.535 71.8599 137.535L117.217 137.633C117.241 137.633 117.266 137.633 117.266 137.633C117.315 137.633 117.364 137.633 117.413 137.657C117.486 137.682 117.56 137.682 117.609 137.731C117.633 137.756 117.682 137.756 117.707 137.78C117.731 137.78 117.756 137.805 117.756 137.805C117.78 137.829 117.805 137.829 117.805 137.854C117.83 137.878 117.83 137.878 117.854 137.903C117.903 137.928 117.928 137.977 117.952 138.001L117.977 138.026L118.001 138.05C118.001 138.075 118.026 138.075 118.026 138.099C118.05 138.124 118.05 138.149 118.075 138.173C118.271 138.419 118.32 138.64 118.32 138.91Z" fill="#FFB93E"/>
<path d="M96.0584 143.378L71.7619 143.329C71.2471 143.329 70.8058 142.789 70.7812 142.126C70.7812 142.102 70.7812 142.077 70.7812 142.052V138.787C70.7812 138.762 70.7812 138.738 70.7812 138.713C70.8058 138.05 71.2471 137.535 71.7619 137.535L93.0673 137.584C93.0673 137.633 93.0919 137.682 93.0919 137.707C93.4596 139.401 94.2442 141.684 96.0584 143.378C96.0584 143.354 96.0584 143.354 96.0584 143.378Z" fill="#FFA412"/>
<path d="M121.679 133.287V136.553C121.679 136.823 121.605 137.044 121.482 137.265C121.36 137.486 121.188 137.633 120.968 137.731C120.894 137.756 120.845 137.781 120.771 137.805C120.698 137.83 120.649 137.83 120.575 137.83L75.2185 137.731C75.0469 137.731 74.8753 137.682 74.7282 137.609C74.4094 137.412 74.1643 137.044 74.1152 136.602C74.1152 136.577 74.1152 136.577 74.1152 136.553C74.1152 136.528 74.1152 136.504 74.1152 136.479V133.214C74.1152 133.189 74.1152 133.165 74.1152 133.14C74.1398 132.526 74.5565 132.035 75.0714 131.961C75.1204 131.961 75.145 131.961 75.194 131.961L120.551 132.06C120.624 132.06 120.673 132.06 120.747 132.084C120.82 132.109 120.894 132.109 120.943 132.158C121.164 132.256 121.335 132.428 121.458 132.624C121.605 132.772 121.679 133.017 121.679 133.287Z" fill="#FFB93E"/>
<path d="M99.3924 137.731L75.0959 137.682C74.9488 137.682 74.8017 137.633 74.6546 137.56C74.3604 137.363 74.1398 136.995 74.1152 136.553C74.1152 136.528 74.1152 136.528 74.1152 136.504C74.1152 136.479 74.1152 136.455 74.1152 136.43V133.165C74.1152 133.14 74.1152 133.115 74.1152 133.091C74.1398 132.477 74.5075 131.986 74.9733 131.912C75.0224 131.912 75.0469 131.912 75.0959 131.912L96.4258 131.961C96.7446 133.607 97.5046 135.89 99.2698 137.584C99.2943 137.658 99.3434 137.707 99.3924 137.731Z" fill="#FFA412"/>
<path d="M118.344 127.517V130.783C118.344 131.053 118.271 131.274 118.148 131.495C118.026 131.716 117.854 131.863 117.633 131.961C117.56 131.986 117.511 132.01 117.437 132.035C117.413 132.035 117.388 132.035 117.364 132.035H117.339H117.315C117.29 132.035 117.266 132.035 117.266 132.035L71.9089 131.937C71.3205 131.937 70.8547 131.396 70.8057 130.734C70.8057 130.709 70.8057 130.684 70.8057 130.66V127.394C70.8057 127.37 70.8057 127.345 70.8057 127.321C70.8302 126.658 71.3205 126.142 71.9089 126.142L117.266 126.24C117.339 126.24 117.388 126.24 117.462 126.265C117.535 126.289 117.609 126.289 117.658 126.339C117.879 126.437 118.05 126.609 118.173 126.805C118.271 127.026 118.344 127.247 118.344 127.517Z" fill="#FFB93E"/>
<path d="M96.0828 131.986L71.7864 131.937C71.2715 131.937 70.8302 131.397 70.8057 130.734C70.8057 130.709 70.8057 130.684 70.8057 130.66V127.394C70.8057 127.37 70.8057 127.345 70.8057 127.321C70.8302 126.658 71.2715 126.142 71.7864 126.142L93.0918 126.191C93.435 127.91 94.2195 130.243 96.0828 131.986C96.0583 131.961 96.0828 131.961 96.0828 131.986Z" fill="#FFA412"/>
<path d="M114.476 172.05L114.462 177.82L114.977 177.821L114.99 172.051L114.476 172.05Z" fill="#FFA412"/>
<path d="M112.734 172.042L112.722 177.812L113.237 177.813L113.249 172.043L112.734 172.042Z" fill="#FFA412"/>
<path d="M110.647 172.029L110.635 177.799L111.15 177.8L111.162 172.03L110.647 172.029Z" fill="#FFA412"/>
<path d="M107.449 172.026L107.435 177.796L107.95 177.797L107.964 172.027L107.449 172.026Z" fill="#FFA412"/>
<path d="M104.041 172.01L104.028 177.78L104.543 177.781L104.556 172.011L104.041 172.01Z" fill="#FFA412"/>
<path d="M98.855 171.997L98.8413 177.767L99.3562 177.768L99.3698 171.998L98.855 171.997Z" fill="#FFA412"/>
<path d="M93.9738 171.997L93.9617 177.767L94.4765 177.768L94.4886 171.998L93.9738 171.997Z" fill="#FFA412"/>
<path d="M89.6387 171.98L89.625 177.75L90.1399 177.751L90.1535 171.981L89.6387 171.98Z" fill="#FFA412"/>
<path d="M116.157 172.047L116.143 177.817L116.658 177.818L116.672 172.048L116.157 172.047Z" fill="#FFA412"/>
<path d="M117.25 172.044L117.238 177.813L117.753 177.815L117.765 172.045L117.25 172.044Z" fill="#FFA412"/>
<path d="M118.308 172.051L118.294 177.821L118.809 177.823L118.823 172.053L118.308 172.051Z" fill="#FFA412"/>
<path d="M119.104 172.056V177.826H119.423C119.497 177.826 119.546 177.826 119.619 177.802V172.081C119.546 172.056 119.497 172.056 119.423 172.056H119.104Z" fill="#FFA412"/>
<path d="M119.815 172.13V177.728C120.036 177.63 120.208 177.458 120.33 177.261V172.596C120.208 172.4 120.036 172.228 119.815 172.13Z" fill="#FFA412"/>
<path d="M99.946 166.251L99.9324 172.021L100.447 172.022L100.461 166.252L99.946 166.251Z" fill="#FFA412"/>
<path d="M95.0902 166.226L95.0767 171.996L95.5915 171.997L95.605 166.227L95.0902 166.226Z" fill="#FFA412"/>
<path d="M90.7295 166.209L90.7158 171.979L91.2307 171.98L91.2443 166.21L90.7295 166.209Z" fill="#FFA412"/>
<path d="M117.756 172.056V166.286H117.315C117.339 166.286 117.364 166.286 117.388 166.286V160.565C117.364 160.565 117.315 160.565 117.29 160.541V154.943H117.486V160.492C117.707 160.393 117.879 160.222 118.001 160.025V155.36C117.903 155.188 117.756 155.041 117.584 154.943H117.756V149.173H117.241V154.82C117.192 154.82 117.143 154.795 117.069 154.795H116.751V160.565H116.849V166.286H117.168C117.192 166.286 117.217 166.286 117.217 166.286V172.056H117.756Z" fill="#FFA412"/>
<path d="M118.342 166.273L118.329 172.042L118.843 172.044L118.857 166.274L118.342 166.273Z" fill="#FFA412"/>
<path d="M119.4 166.28L119.385 172.05L119.9 172.052L119.915 166.282L119.4 166.28Z" fill="#FFA412"/>
<path d="M120.183 166.286V172.056H120.502C120.575 172.056 120.624 172.056 120.698 172.032V166.311C120.624 166.286 120.575 166.286 120.502 166.286H120.183Z" fill="#FFA412"/>
<path d="M120.918 166.384V171.982C121.139 171.884 121.311 171.737 121.433 171.516V166.851C121.311 166.63 121.115 166.458 120.918 166.384Z" fill="#FFA412"/>
<path d="M112.754 166.286L112.779 160.516H112.681V154.795H112.166V160.565H112.264L112.239 166.262H111.749L111.725 172.032H112.239L112.264 166.286H112.754Z" fill="#FFA412"/>
<path d="M108.93 160.516H108.832L108.857 154.771H108.342L108.317 160.541H108.415V166.262H108.538V172.032H109.053V166.262H108.93V160.516Z" fill="#FFA412"/>
<path d="M117.584 160.614V166.212C117.805 166.114 117.977 165.942 118.099 165.746V161.081C117.977 160.86 117.805 160.712 117.584 160.614Z" fill="#FFA412"/>
<path d="M105.644 154.771H105.13V160.541H105.203V166.262H105.154L105.13 172.032H105.644L105.669 166.262H105.718V160.492H105.644V154.771Z" fill="#FFA412"/>
<path d="M102.261 154.771H101.746L101.721 160.541H101.819V166.262H102.334V160.492H102.236L102.261 154.771Z" fill="#FFA412"/>
<path d="M97.0636 154.746H96.5487L96.5242 160.516H96.6222V166.237H97.1371V160.467H97.039L97.0636 154.746Z" fill="#FFA412"/>
<path d="M92.1845 154.746H91.6697V160.516H91.7677L91.7432 166.237H92.2581L92.2826 160.467H92.1845V154.746Z" fill="#FFA412"/>
<path d="M87.845 154.722H87.3302L87.3057 160.492H87.4037V166.213H87.9186V160.467H87.8205L87.845 154.722Z" fill="#FFA412"/>
<path d="M114.348 154.795H113.833V160.565H113.907V166.286H113.833V172.032H114.348V166.286H114.422V160.516H114.348V154.795Z" fill="#FFA412"/>
<path d="M115.451 154.795H115.035V149.173H114.52V154.943H114.937L114.912 160.565H115.01V166.286H115.525V160.516H115.427L115.451 154.795Z" fill="#FFA412"/>
<path d="M112.792 149.16L112.779 154.93L113.293 154.931L113.307 149.161L112.792 149.16Z" fill="#FFA412"/>
<path d="M110.67 154.795H110.425V160.541H110.523L110.499 166.286H111.014L111.038 160.516H110.94V154.918H111.185L111.21 149.173L110.695 149.148L110.67 154.795Z" fill="#FFA412"/>
<path d="M107.482 149.144L107.467 154.914L107.982 154.915L107.997 149.145L107.482 149.144Z" fill="#FFA412"/>
<path d="M104.098 149.153L104.084 154.923L104.599 154.924L104.613 149.154L104.098 149.153Z" fill="#FFA412"/>
<path d="M98.8875 149.139L98.874 154.909L99.3889 154.91L99.4024 149.14L98.8875 149.139Z" fill="#FFA412"/>
<path d="M94.0308 149.115L94.0186 154.885L94.5334 154.886L94.5457 149.116L94.0308 149.115Z" fill="#FFA412"/>
<path d="M89.6711 149.097L89.6575 154.867L90.1723 154.869L90.186 149.099L89.6711 149.097Z" fill="#FFA412"/>
<path d="M116.187 154.795H115.991V160.565H116.064V166.286H115.574V172.056H116.089V166.286H116.579V160.516H116.506V154.943H116.702V149.173H116.187V154.795Z" fill="#FFA412"/>
<path d="M118.341 149.169L118.327 154.939L118.842 154.94L118.855 149.17L118.341 149.169Z" fill="#FFA412"/>
<path d="M119.644 154.918V149.197C119.57 149.173 119.521 149.173 119.448 149.173H119.129V154.943H119.448C119.521 154.943 119.57 154.943 119.644 154.918Z" fill="#FFA412"/>
<path d="M120.355 154.403V149.737C120.232 149.517 120.061 149.369 119.84 149.271V154.869C120.061 154.771 120.232 154.599 120.355 154.403Z" fill="#FFA412"/>
<path d="M118.237 143.399L118.223 149.169L118.738 149.17L118.752 143.4L118.237 143.399Z" fill="#FFA412"/>
<path d="M111.21 143.4L111.197 149.17L111.712 149.171L111.725 143.401L111.21 143.4Z" fill="#FFA412"/>
<path d="M107.803 143.384L107.789 149.154L108.304 149.155L108.318 143.385L107.803 143.384Z" fill="#FFA412"/>
<path d="M102.617 143.371L102.603 149.141L103.118 149.142L103.132 143.372L102.617 143.371Z" fill="#FFA412"/>
<path d="M97.7363 143.346L97.7227 149.116L98.2375 149.117L98.2512 143.347L97.7363 143.346Z" fill="#FFA412"/>
<path d="M93.3991 143.354L93.387 149.124L93.9018 149.125L93.9139 143.355L93.3991 143.354Z" fill="#FFA412"/>
<path d="M119.894 143.421L119.88 149.191L120.395 149.192L120.409 143.422L119.894 143.421Z" fill="#FFA412"/>
<path d="M121.013 143.418L120.999 149.188L121.514 149.189L121.528 143.419L121.013 143.418Z" fill="#FFA412"/>
<path d="M122.069 143.425L122.056 149.195L122.571 149.197L122.584 143.427L122.069 143.425Z" fill="#FFA412"/>
<path d="M122.855 143.427V149.197H123.174C123.248 149.197 123.297 149.197 123.37 149.172V143.452C123.297 143.427 123.248 143.427 123.174 143.427H122.855Z" fill="#FFA412"/>
<path d="M123.567 143.501V149.099C123.787 149.001 123.959 148.829 124.081 148.632V143.967C123.959 143.771 123.787 143.599 123.567 143.501Z" fill="#FFA412"/>
<path d="M112.289 143.402H112.804V137.632H112.313V132.01H112.828V126.24H112.313V132.01H111.798V137.78H112.289V143.402Z" fill="#FFA412"/>
<path d="M110.556 137.634L110.541 143.404L111.056 143.405L111.071 137.635L110.556 137.634Z" fill="#FFA412"/>
<path d="M101.862 137.603L101.848 143.373L102.363 143.374L102.376 137.604L101.862 137.603Z" fill="#FFA412"/>
<path d="M96.6754 137.589L96.6619 143.359L97.1767 143.36L97.1902 137.59L96.6754 137.589Z" fill="#FFA412"/>
<path d="M91.7949 137.589L91.7812 143.359L92.2961 143.36L92.3098 137.59L91.7949 137.589Z" fill="#FFA412"/>
<path d="M87.4588 137.572L87.4453 143.342L87.9602 143.343L87.9737 137.573L87.4588 137.572Z" fill="#FFA412"/>
<path d="M113.956 143.402H114.397V149.172H114.912V143.402H114.471V137.632H114.397L114.422 132.01H114.496V126.264L113.981 126.24V132.01H113.907L113.883 137.78H113.956V143.402Z" fill="#FFA412"/>
<path d="M115.045 137.636L115.035 143.406L115.55 143.407L115.56 137.637L115.045 137.636Z" fill="#FFA412"/>
<path d="M117.707 137.78H117.805V132.01H117.364C117.388 132.01 117.413 132.01 117.437 132.01V126.289C117.364 126.264 117.315 126.264 117.241 126.264H116.923V132.034H117.241C117.266 132.034 117.29 132.034 117.29 132.034V137.657C117.266 137.657 117.241 137.657 117.241 137.657H116.923V143.427H116.653V137.657H116.163V132.034H116.653V126.264H116.138V132.034H115.648V137.804H116.138V143.427H116.53V149.173H117.045V143.403H117.266C117.339 143.403 117.388 143.403 117.462 143.378V137.755H117.658V143.304C117.879 143.206 118.05 143.034 118.173 142.838V138.173C118.026 138.025 117.879 137.878 117.707 137.78Z" fill="#FFA412"/>
<path d="M100.022 131.973L100.01 137.743L100.524 137.744L100.536 131.974L100.022 131.973Z" fill="#FFA412"/>
<path d="M95.1421 131.973L95.1284 137.743L95.6433 137.744L95.6569 131.974L95.1421 131.973Z" fill="#FFA412"/>
<path d="M90.8059 131.956L90.7922 137.726L91.3071 137.728L91.3207 131.958L90.8059 131.956Z" fill="#FFA412"/>
<path d="M118.394 132.02L118.381 137.79L118.895 137.791L118.909 132.021L118.394 132.02Z" fill="#FFA412"/>
<path d="M119.451 132.028L119.437 137.798L119.952 137.799L119.966 132.029L119.451 132.028Z" fill="#FFA412"/>
<path d="M120.257 132.035V137.805H120.575C120.649 137.805 120.698 137.805 120.771 137.78V132.059C120.698 132.035 120.649 132.035 120.575 132.035H120.257Z" fill="#FFA412"/>
<path d="M121.483 137.24V132.575C121.36 132.354 121.188 132.206 120.968 132.108V137.706C121.164 137.608 121.36 137.461 121.483 137.24Z" fill="#FFA412"/>
<path d="M110.575 126.239L110.561 132.009L111.076 132.01L111.09 126.24L110.575 126.239Z" fill="#FFA412"/>
<path d="M109.004 126.24H108.489L108.464 132.01H108.611L108.587 137.632H108.464L108.44 143.402H108.979V137.755H109.102L109.126 131.985H108.979L109.004 126.24Z" fill="#FFA412"/>
<path d="M105.277 131.985H105.203V137.755H105.252V143.378H105.767V137.632H105.718V132.01H105.792V126.24H105.277V131.985Z" fill="#FFA412"/>
<path d="M101.881 126.207L101.867 131.977L102.382 131.978L102.396 126.208L101.881 126.207Z" fill="#FFA412"/>
<path d="M96.6946 126.219L96.6809 131.989L97.1958 131.99L97.2094 126.22L96.6946 126.219Z" fill="#FFA412"/>
<path d="M91.8153 126.194L91.8003 131.964L92.3152 131.965L92.3302 126.195L91.8153 126.194Z" fill="#FFA412"/>
<path d="M87.4777 126.177L87.4656 131.947L87.9804 131.948L87.9925 126.178L87.4777 126.177Z" fill="#FFA412"/>
<path d="M115.092 126.24L115.077 132.01L115.592 132.012L115.607 126.242L115.092 126.24Z" fill="#FFA412"/>
<path d="M117.658 126.338V131.936C117.878 131.838 118.05 131.666 118.173 131.47V126.805C118.05 126.608 117.854 126.436 117.658 126.338Z" fill="#FFA412"/>
<path d="M132.761 141.709L135.973 142.274C136.218 142.323 136.463 142.421 136.635 142.593C136.831 142.765 136.954 142.961 137.003 143.182C137.027 143.256 137.027 143.329 137.027 143.403C137.027 143.477 137.027 143.526 137.003 143.599L129.059 188.311C128.961 188.875 128.348 189.268 127.686 189.195C127.662 189.195 127.637 189.195 127.613 189.195L124.401 188.63C124.376 188.63 124.352 188.63 124.327 188.605C123.69 188.458 123.249 187.893 123.347 187.329L131.29 142.617C131.29 142.593 131.29 142.568 131.315 142.544V142.519C131.315 142.495 131.315 142.495 131.339 142.47V142.445C131.364 142.372 131.388 142.323 131.437 142.249C131.437 142.249 131.437 142.224 131.462 142.224C131.462 142.224 131.462 142.2 131.486 142.2C131.511 142.175 131.511 142.175 131.535 142.151L131.56 142.126L131.584 142.102C131.609 142.077 131.609 142.077 131.633 142.053C131.658 142.028 131.682 142.028 131.682 142.003C131.707 142.003 131.707 141.979 131.732 141.979L131.756 141.954C131.781 141.93 131.83 141.905 131.854 141.881C131.854 141.881 131.879 141.881 131.879 141.856C131.879 141.856 131.903 141.856 131.903 141.832C131.928 141.832 131.952 141.807 131.977 141.807C132.246 141.709 132.516 141.684 132.761 141.709Z" fill="#FFB93E"/>
<path d="M133.3 164.47L129.034 188.434C128.936 188.949 128.347 189.268 127.686 189.195C127.661 189.195 127.636 189.195 127.612 189.195L124.4 188.63C124.376 188.63 124.351 188.63 124.327 188.605C123.689 188.458 123.248 187.943 123.321 187.427L127.048 166.409C127.097 166.409 127.146 166.409 127.195 166.409C128.96 166.336 131.339 165.943 133.3 164.47Z" fill="#FFA412"/>
<path d="M130.557 146.951L130.466 147.458L136.138 148.472L136.228 147.964L130.557 146.951Z" fill="#FFA412"/>
<path d="M130.253 148.658L130.163 149.166L135.835 150.177L135.925 149.669L130.253 148.658Z" fill="#FFA412"/>
<path d="M129.891 150.713L129.801 151.221L135.473 152.233L135.563 151.725L129.891 150.713Z" fill="#FFA412"/>
<path d="M129.309 153.873L129.219 154.381L134.891 155.393L134.981 154.885L129.309 153.873Z" fill="#FFA412"/>
<path d="M128.73 157.222L128.64 157.73L134.312 158.741L134.403 158.233L128.73 157.222Z" fill="#FFA412"/>
<path d="M127.818 162.345L127.728 162.853L133.4 163.866L133.49 163.358L127.818 162.345Z" fill="#FFA412"/>
<path d="M126.96 167.145L126.869 167.652L132.542 168.663L132.632 168.156L126.96 167.145Z" fill="#FFA412"/>
<path d="M126.187 171.436L126.097 171.943L131.768 172.957L131.859 172.449L126.187 171.436Z" fill="#FFA412"/>
<path d="M130.847 145.3L130.757 145.808L136.429 146.82L136.52 146.313L130.847 145.3Z" fill="#FFA412"/>
<path d="M131.053 144.229L130.962 144.737L136.635 145.749L136.725 145.242L131.053 144.229Z" fill="#FFA412"/>
<path d="M131.218 143.159L131.128 143.666L136.8 144.678L136.891 144.171L131.218 143.159Z" fill="#FFA412"/>
<path d="M131.265 142.888L136.929 143.894L136.978 143.575C136.978 143.502 137.002 143.452 137.002 143.379L131.363 142.372C131.339 142.421 131.314 142.495 131.314 142.568L131.265 142.888Z" fill="#FFA412"/>
<path d="M131.486 142.2L136.977 143.182C136.928 142.961 136.781 142.74 136.61 142.593L132.025 141.783C131.804 141.881 131.608 142.028 131.486 142.2Z" fill="#FFA412"/>
<path d="M240.832 189.17H221.341C220.287 188.286 222.052 186.273 223.915 186.125C224.724 186.076 225.73 186.224 226.882 186.469C227.152 182.909 228.672 166.876 234.458 167.514C240.955 168.226 234.458 174.585 232.619 178.318C231.27 181.092 229.824 185.094 229.162 186.96C229.677 187.083 230.241 187.181 230.78 187.279C231.638 184.628 234.85 175.739 238.92 176.255C243.701 176.869 241.788 180.429 238.38 182.541C235.904 184.088 232.84 186.322 231.393 187.378C232.619 187.574 233.894 187.721 235.193 187.672C238.577 187.648 240.195 188.63 240.832 189.17Z" fill="#82B378"/>
<path d="M20.7173 188.507C19.9327 187.28 17.6036 184.137 14.5144 184.554C11.1311 185.021 18.241 187.231 20.4231 188.532C19.9327 188.532 19.5159 188.507 19.2217 188.385C17.7752 187.869 15.2745 188.851 14.4654 189.219H28.3176C28.2195 188.876 27.9744 188.336 27.3369 187.943C27.1163 187.795 26.6504 187.795 26.062 187.82C26.8956 186.838 27.4595 183.744 25.1549 184.53C23.4877 185.119 23.4877 187.01 23.6593 188.139C23.2916 188.188 22.9483 188.262 22.5806 188.311C21.8941 184.8 19.4424 174.463 14.5144 174.193C9.48842 173.923 18.7559 184.898 21.8451 188.409C21.4528 188.458 21.085 188.507 20.7173 188.507Z" fill="#82B378"/>
<path d="M110.082 106.696C121.104 106.696 130.039 97.748 130.039 86.7099C130.039 75.6718 121.104 66.7236 110.082 66.7236C99.0605 66.7236 90.1255 75.6718 90.1255 86.7099C90.1255 97.748 99.0605 106.696 110.082 106.696Z" fill="#E2810E"/>
<path d="M127.839 92.6341C130.638 81.958 124.266 71.0305 113.606 68.2269C102.945 65.4232 92.0337 71.805 89.2341 82.4811C86.4345 93.1571 92.807 104.085 103.467 106.888C114.128 109.692 125.039 103.31 127.839 92.6341Z" fill="#FFB93E"/>
<path d="M108.685 105.96C102.261 105.96 96.0338 102.547 92.724 96.5312C90.3703 92.2589 89.8309 87.3483 91.1794 82.6832C92.5278 78.0181 95.617 74.1387 99.8585 71.8062C104.124 69.4491 109.028 68.9089 113.686 70.2593C118.344 71.6097 122.218 74.7034 124.547 78.9511C129.377 87.7411 126.19 98.8392 117.388 103.701C114.667 105.248 111.651 105.96 108.685 105.96ZM108.636 70.6276C105.792 70.6276 102.972 71.3396 100.398 72.7637C96.4015 74.9735 93.484 78.6074 92.2336 83.0024C90.9587 87.3974 91.4736 92.0134 93.6801 96.0401C96.7938 101.687 102.653 104.904 108.685 104.904C111.48 104.904 114.299 104.216 116.922 102.768C125.185 98.2008 128.2 87.7657 123.64 79.4913C121.434 75.4891 117.805 72.5673 113.416 71.3151C111.847 70.8486 110.229 70.6276 108.636 70.6276Z" fill="#FFA412"/>
<path d="M95.5009 79.6782L96.8493 79.356L96.1895 76.5867L96.3953 76.5375C96.8379 76.4317 97.113 76.6272 97.4401 77.4521C97.727 78.1996 98.0482 78.8628 98.1874 79.0363L99.5976 78.6993C99.4128 78.4714 99.0239 77.6612 98.7061 76.9211C98.3932 76.2015 98.0535 75.8257 97.5334 75.7433L97.5285 75.7227C98.1524 75.2363 98.3635 74.4785 98.1869 73.7373C98.0446 73.1402 97.8004 72.7089 97.2876 72.4289C96.7494 72.1331 96.0533 72.1798 95.3122 72.3569C94.7975 72.4798 94.2746 72.6592 93.8722 72.8424L95.5009 79.6782ZM95.4487 73.4776C95.5134 73.4295 95.6447 73.3873 95.7683 73.3577C96.3702 73.2357 96.705 73.5909 96.8473 74.188C96.992 74.7954 96.7755 75.3477 96.1888 75.4879L95.9417 75.5469L95.4487 73.4776ZM100.703 80.5242L102.052 80.202L101.483 77.8136L101.503 77.8087C101.704 78.011 102.043 78.202 102.455 78.1036C103.309 77.8994 103.897 76.8992 103.471 75.1079C103.137 73.7078 102.397 72.6115 101.296 72.8747C100.822 72.9878 100.503 73.3362 100.395 73.7972L100.374 73.8021L100.165 73.2428L98.9916 73.5233C99.1275 74.0022 99.2683 74.5017 99.413 75.1091L100.703 80.5242ZM100.82 75.034C100.791 74.9104 100.769 74.7741 100.796 74.6589C100.791 74.4098 100.94 74.1675 101.146 74.1183C101.547 74.0224 101.907 74.4805 102.135 75.4379C102.324 76.2307 102.316 76.9725 101.842 77.0857C101.688 77.1226 101.493 77.082 101.317 76.7978C101.241 76.7071 101.183 76.5576 101.144 76.3929L100.82 75.034Z" fill="#FFA412"/>
<path d="M128.421 75.9559C127.587 75.3666 125.7 74.0653 125.602 74.36C125.528 74.5564 125.626 74.9247 125.847 75.293C124.694 74.8756 123.542 74.5809 120.796 75.1211C120.257 75.2193 119.742 75.5385 119.448 76.005C119.178 76.447 119.055 76.9872 119.766 77.4291C121.164 78.313 120.772 77.7729 122.709 79.0496C124.67 80.3264 127.048 80.6456 128.47 79.7617L130.382 79.4425L130.628 76.2997C130.603 76.2751 129.524 76.1278 128.421 75.9559Z" fill="#FFB27D"/>
<path d="M178.583 49.4874C178.583 49.4874 174.072 54.84 168.31 52.6057C168.31 52.6057 167.085 49.6102 167.06 47.4004C167.06 47.1303 167.06 46.8602 167.06 46.6147C167.036 44.1348 166.938 42.7353 166.938 42.7353C167.207 42.6371 175.715 39.126 175.715 39.4206C175.592 46.1482 178.583 49.4874 178.583 49.4874Z" fill="#FFB27D"/>
<path d="M174.881 41.0166C174.047 42.5389 171.228 45.5344 167.06 46.6147C167.036 44.1348 166.938 42.7353 166.938 42.7353C167.183 42.6862 175.126 40.5746 174.881 41.0166Z" fill="#ED975D"/>
<path d="M165.148 42.4898C165.148 42.4898 174.734 44.7487 176.058 38.7577C177.382 32.7667 179.49 29.0101 173.434 27.3159C167.379 25.6218 165.662 27.6597 164.755 29.5503C163.824 31.4163 162.696 41.7532 165.148 42.4898Z" fill="#FFB27D"/>
<path d="M175.739 40.3783C175.862 40.4519 177.921 41.0903 181.844 33.307C182.457 32.0793 182.873 29.4276 181.451 27.095C180.029 24.7625 174.954 22.921 170.737 22.1107C166.52 21.3005 165.515 23.6821 164.535 26.0638C163.505 28.5682 160.489 30.6307 160.489 30.6307C164.118 32.6686 168.506 29.7467 170.002 30.2378C171.522 30.7043 172.061 33.1105 172.159 33.8717C172.282 34.6328 172.454 35.2712 174.366 34.5837C176.278 33.8962 175.224 37.2846 174.93 37.9475C174.905 37.9475 174.636 39.6908 175.739 40.3783Z" fill="#A9453D"/>
<path d="M200.428 190.055H206.238C207.464 190.055 208.813 188.827 209.156 186.593C209.499 184.358 212 183.131 212.539 181.314C213.079 179.497 210.308 176.919 210.308 176.919L209.842 176.329L209.352 175.716L204.743 176.796C204.743 176.796 204.62 177.901 204.547 179.3C204.498 180.307 204.473 181.486 204.522 182.492C204.669 184.923 203.836 187.55 201.678 188.041C199.545 188.483 200.428 190.055 200.428 190.055Z" fill="#2C3A64"/>
<path d="M160.023 190.054H175.42C175.567 190.03 175.69 190.005 175.739 189.956C176.769 189.44 176.45 185.512 176.327 184.284C176.303 184.063 176.278 183.916 176.278 183.916C176.278 183.916 170.86 179.57 170.125 182.909C170.1 183.008 170.075 183.106 170.051 183.204C169.119 186.298 164.902 187.722 162.475 188.115C160.612 188.434 160.146 189.514 160.023 190.054Z" fill="#2C3A64"/>
<path d="M163.113 101.172C163.113 101.172 163.946 111.435 164.902 123.785C166.226 140.555 167.795 161.155 167.942 165.059C168.212 171.836 169.291 182.664 169.291 182.664C169.291 182.664 171.865 185.242 177.014 184.162C177.014 184.162 181.598 168.693 182.898 152.316C182.922 152.046 182.947 151.776 182.947 151.506C184.173 134.834 186.061 99.7478 186.061 99.7478L163.113 101.172Z" fill="#2B478B"/>
<path d="M163.113 101.172C163.113 101.172 163.946 111.435 164.902 123.785L182.898 152.316C182.922 152.046 182.947 151.776 182.947 151.506C184.173 134.834 186.061 99.7478 186.061 99.7478L163.113 101.172Z" fill="#233862"/>
<path d="M166.864 102.375C166.864 102.375 181.672 139.573 191.43 157.055C201.163 174.537 204.203 179.398 204.203 179.398C204.203 179.398 209.793 177.164 210.284 175.642C210.284 175.642 206.557 141.906 200.035 133.68C196.358 129.04 192.018 115.094 191.822 110.208C191.626 105.322 190.498 95.6721 190.498 95.6721L166.864 102.375Z" fill="#2B478B"/>
<path d="M200.649 95.6229L200.796 98.0046C200.796 98.0046 199.227 102.252 203.64 104.438C203.64 104.438 205.527 105.199 205.601 103.725C205.675 102.252 205.429 102.817 205.601 100.73C205.748 98.6675 204.939 96.7033 203.566 96.0403L202.438 94.739L200.649 95.6229Z" fill="#FFB27D"/>
<path d="M202.365 97.3663C200.722 97.8819 200.452 97.7837 200.452 97.7837C200.452 97.7837 192.46 83.2237 191.675 81.8978C190.866 80.5719 174.734 65.5699 174.734 65.5699L178.877 50.0769C178.877 50.0769 197.241 73.8689 199.202 77.2818C202.487 82.929 204.4 96.0404 204.4 96.0404C204.4 96.0404 203.664 96.9489 202.365 97.3663Z" fill="#1E3D70"/>
<path d="M159.999 71.6588C160.048 74.8507 160.244 78.411 160.489 82.0448C160.514 82.2658 160.514 82.4868 160.538 82.6832C160.686 84.9421 160.882 87.1764 161.078 89.3862C161.151 90.2701 161.249 91.1295 161.323 91.9889L161.347 92.1116C161.347 92.4308 161.396 92.7745 161.421 93.0937C162.23 101.319 163.088 107.826 163.235 107.924C163.431 108.047 163.628 108.12 163.873 108.096C166.03 107.826 172.454 108.317 177.725 107.163C182.163 106.23 185.987 104.437 190.057 102.031C190.596 101.712 191.822 100.877 191.724 100.239C191.626 99.5512 191.455 98.5445 191.209 97.2923C190.4 92.9219 189.027 85.384 188.562 76.5695C188.463 74.9244 188.341 73.3039 188.169 71.7079C187.728 67.5585 186.992 63.6054 186.012 60.0943C184.197 53.5877 181.55 48.6034 178.215 46.6392C177.774 46.3936 175.445 47.8914 173.287 49.2664C171.301 50.5431 169.217 50.8869 167.183 50.715L165.393 52.7038C163.235 55.2328 160.931 58.5966 160.293 63.3599C160.244 63.7036 160.195 64.0965 160.171 64.4893C159.975 66.429 159.95 68.9089 159.999 71.6588Z" fill="#2A4E96"/>
<path d="M159.999 71.6588C160.048 74.8507 160.244 78.4109 160.489 82.0447C160.514 82.2657 160.514 82.4867 160.538 82.6831C172.846 74.9734 174.758 60.8308 174.758 60.8308C168.703 61.1009 163.873 62.5004 160.171 64.4892C159.975 66.4289 159.95 68.9088 159.999 71.6588Z" fill="#1E3D70"/>
<path d="M128.862 77.7481C128.74 75.9066 129.671 75.612 129.671 75.612C129.671 75.612 148.256 72.2482 149.825 71.7326C151.394 71.2415 164.903 57.1725 164.903 57.1725C164.903 57.1725 170.076 51.3289 174.317 52.6302C177.995 53.7596 179.441 56.6324 179.932 59.3578C180.52 62.6233 179.025 65.9135 176.181 67.6322C169.831 71.5361 157.155 79.1967 154.164 80.0806C147.52 82.0449 129.647 80.2279 129.647 80.2279C129.647 80.2279 128.961 79.1722 128.862 77.7481Z" fill="#2A4E96"/>
<path opacity="0.2" d="M150.707 113.473V182.614C150.707 186.641 147.421 189.956 143.376 189.956H72.448C71.8351 189.956 71.2222 189.882 70.6583 189.735C69.4324 189.44 68.3047 188.826 67.3975 187.991C66.7601 187.402 66.1962 186.69 65.8039 185.904C65.7794 185.855 65.7549 185.831 65.7303 185.782C65.3136 184.922 65.0439 183.989 64.9703 182.983C64.9458 182.811 64.9458 182.639 64.9458 182.467V113.915C64.9458 110.035 66.9562 106.45 70.217 104.363C72.9384 102.62 74.7281 99.5755 74.7281 96.089C74.7281 95.0577 74.581 94.0756 74.2868 93.1426H141.366C141.072 94.0756 140.924 95.0577 140.924 96.089C140.924 99.4282 142.592 102.35 145.117 104.142C145.288 104.265 145.46 104.363 145.632 104.486C148.77 106.377 150.707 109.79 150.707 113.473Z" fill="#ED9F4A"/>
<path opacity="0.2" d="M150.707 113.473V182.614C150.707 186.469 147.692 189.661 143.892 189.931C143.72 189.956 143.548 189.956 143.377 189.956H112.142C108.023 189.956 104.664 186.592 104.664 182.467V113.915C104.664 110.035 106.674 106.45 109.935 104.363C112.657 102.62 114.471 99.5755 114.471 96.089C114.471 95.0577 114.324 94.0756 114.03 93.1426H141.391C141.097 94.0756 140.949 95.0577 140.949 96.089C140.949 98.8144 142.053 101.294 143.867 103.062C144.406 103.602 145.019 104.069 145.657 104.462C148.77 106.377 150.707 109.79 150.707 113.473Z" fill="#ED9F4A"/>
<path opacity="0.6" d="M145.117 104.118C142.935 102.792 133.423 98.1516 109.298 98.348C81.6424 98.569 70.5852 104.167 70.2419 104.339C72.9633 102.596 74.7531 99.5511 74.7531 96.0645C74.7531 95.0333 74.606 94.0512 74.3118 93.1182H141.391C141.096 94.0512 140.949 95.0333 140.949 96.0645C140.925 99.4038 142.568 102.35 145.117 104.118Z" fill="#ED9F4A"/>
<path d="M142.886 92.6516V95.7945C142.886 96.1136 142.641 96.3592 142.322 96.3592H73.331C73.0123 96.3592 72.7671 96.1136 72.7671 95.7945V92.6516C72.7671 92.3325 73.0123 92.0869 73.331 92.0869H142.322C142.641 92.0869 142.886 92.3325 142.886 92.6516Z" fill="#2B478B"/>
<path d="M142.886 92.6516V95.7945C142.886 96.1136 142.641 96.3592 142.322 96.3592H116.212C115.893 96.3592 115.648 96.1136 115.648 95.7945V92.6516C115.648 92.3325 115.893 92.0869 116.212 92.0869H142.322C142.641 92.0869 142.886 92.3325 142.886 92.6516Z" fill="#233862"/>
<path d="M96.8675 108.169C96.8675 108.169 95.0777 110.674 93.4596 110.723C91.8415 110.747 89.3407 109.569 89.3407 109.569C89.3407 109.569 87.8452 106.229 88.8504 104.928C88.8504 104.928 89.8801 104.486 90.9344 105.272C91.106 105.419 91.3021 105.591 91.4737 105.812C91.7434 106.131 92.0131 106.303 92.3318 106.401C93.4841 106.745 94.8816 105.91 95.3965 106.72C95.6907 107.187 96.0339 107.531 96.3036 107.776C96.6223 108.022 96.8675 108.169 96.8675 108.169Z" fill="#F9DDBF"/>
<path d="M73.6741 126.265C73.6741 126.265 79.9505 111.017 91.2774 110.722C91.2774 110.722 101.722 111.876 102.31 126.265H73.6741Z" fill="#F9DDBF"/>
<path d="M88.188 111.189C88.188 111.189 92.7236 112.196 94.1211 111.607C94.1211 111.607 94.3418 109.716 92.4294 109.986C91.13 110.158 90.2719 109.544 89.7816 109.274C89.0461 108.906 87.9918 110.379 88.188 111.189Z" fill="#F1A34F"/>
<path d="M92.1111 108.316C91.8169 108.537 90.9343 105.247 90.9343 105.247C91.1059 105.395 91.3021 105.567 91.4737 105.787C91.7434 106.107 92.0131 106.279 92.3318 106.377C92.3563 106.45 92.4054 108.095 92.1111 108.316Z" fill="#E5C1A1"/>
<path d="M96.3034 107.752C96.2299 107.801 94.1459 109.053 93.8517 109.053C93.5575 109.053 95.3963 106.696 95.3963 106.696C95.715 107.138 96.0337 107.506 96.3034 107.752Z" fill="#E5C1A1"/>
<path d="M79.8279 121.993C79.7053 121.894 84.2655 115.265 85.5404 115.216C86.7907 115.167 89.6102 116.665 91.6697 116.861C93.7046 117.058 95.6905 116.468 96.0827 117.696C96.475 118.899 97.5293 123.196 96.8918 123.883C96.2053 124.571 82.3286 124.153 79.8279 121.993Z" fill="#E5C1A1"/>
<path d="M277.682 190.128H7.99294C7.82132 190.128 7.69873 189.981 7.69873 189.833V189.489C7.69873 189.318 7.84583 189.195 7.99294 189.195H277.706C277.878 189.195 278 189.342 278 189.489V189.833C278 189.981 277.853 190.128 277.682 190.128Z" fill="#2E3552"/>
</svg>
