<svg width="20" height="20" viewBox="0 0 20 20" fill="none" xmlns="http://www.w3.org/2000/svg">
<path d="M10 20C4.50549 20 0 15.5311 0 10C0 4.5055 4.46886 0 10 0C15.4945 0 20 4.46887 20 10C20 15.5311 15.4945 20 10 20ZM10 1.0989C5.09158 1.0989 1.06227 5.09158 1.06227 10.0366C1.06227 14.9451 5.05494 18.9744 10 18.9744C14.9084 18.9744 18.9377 14.9817 18.9377 10.0366C18.9377 5.09158 14.9084 1.0989 10 1.0989Z" fill="#33CCFF"/>
<path d="M15.7509 6.37283C15.3846 6.55598 14.9817 6.62925 14.5788 6.70251C14.7619 6.66588 15.0549 6.3362 15.1648 6.18968C15.348 5.9699 15.4945 5.75012 15.5678 5.49371C15.5678 5.45708 15.5678 5.45708 15.5678 5.42045C15.5311 5.42045 15.5311 5.42045 15.4945 5.42045C15.0549 5.67686 14.5788 5.82339 14.1026 5.96991C14.0659 5.96991 14.0293 5.9699 13.9927 5.93327C13.956 5.89664 13.9194 5.86001 13.8828 5.82338C13.663 5.64023 13.4432 5.49371 13.2234 5.42045C12.8938 5.27393 12.5275 5.2373 12.1978 5.2373C11.8681 5.27393 11.5018 5.34719 11.2088 5.53034C10.9158 5.67686 10.6227 5.89664 10.4029 6.18968C10.1832 6.48272 10 6.77576 9.92674 7.14206C9.85348 7.47174 9.85348 7.8014 9.89011 8.13107C9.89011 8.20433 9.89011 8.20434 9.85348 8.20434C7.94872 7.9113 6.337 7.21532 5.05495 5.75012C4.98169 5.67686 4.98169 5.67686 4.90843 5.75012C4.35898 6.59261 4.61539 7.94792 5.31136 8.6439C5.42125 8.71716 5.49451 8.82705 5.6044 8.90031C5.56777 8.90031 5.09158 8.86368 4.68865 8.6439C4.61539 8.60726 4.61539 8.64389 4.61539 8.68052C4.61539 8.75378 4.61539 8.86368 4.61539 8.97357C4.72528 9.81606 5.31136 10.6219 6.11722 10.9516C6.22711 10.9882 6.337 11.0248 6.41026 11.0615C6.22711 11.0981 6.04396 11.1347 5.49451 11.0981C5.42125 11.0981 5.38462 11.1347 5.42125 11.1714C5.82418 12.2703 6.66667 12.5999 7.32601 12.7831C7.39927 12.7831 7.50916 12.7831 7.58242 12.8197C7.36264 13.1494 6.63004 13.4058 6.26374 13.5157C5.64103 13.7355 4.94506 13.8454 4.28572 13.7721C4.17583 13.7721 4.1392 13.7721 4.1392 13.7721C4.10257 13.7721 4.1392 13.8087 4.17583 13.8454C4.32235 13.9186 4.43224 14.0285 4.57876 14.1018C5.01832 14.3215 5.45788 14.5047 5.89744 14.6146C8.27839 15.2739 10.9524 14.7977 12.7473 13.0029C14.1758 11.5377 14.652 9.59628 14.652 7.69151C14.652 7.61826 14.7253 7.58162 14.7985 7.54499C15.1648 7.28858 15.4579 6.95891 15.7143 6.59261C15.7875 6.51935 15.7875 6.44609 15.7875 6.40946C15.7875 6.3362 15.7875 6.3362 15.7509 6.37283Z" fill="#33CCFF"/>
</svg>
