<svg width="20" height="21" viewBox="0 0 20 21" fill="none" xmlns="http://www.w3.org/2000/svg">
<path d="M10 20.0135C4.5055 20.0135 0 15.5416 0 10.0068C0 4.47189 4.5055 0 10 0C15.4945 0 20 4.47189 20 10.0068C20 15.5416 15.5311 20.0135 10 20.0135ZM10 1.06299C5.09158 1.06299 1.06227 5.05836 1.06227 10.0068C1.06227 14.9185 5.05495 18.9505 10 18.9505C14.9084 18.9505 18.9377 14.9552 18.9377 10.0068C18.9377 5.09502 14.9451 1.06299 10 1.06299Z" fill="#60FC7C"/>
<path fill-rule="evenodd" clip-rule="evenodd" d="M10.4766 3.48242C7.14324 3.48242 4.43262 6.19488 4.43262 9.53047C4.43262 10.7034 4.76229 11.8397 5.385 12.7927L4.46925 14.8088C4.39599 15.0287 4.43262 15.2486 4.57914 15.3952C4.68903 15.5052 4.83555 15.5785 4.98207 15.5785C5.0187 15.5785 5.09196 15.5785 5.12859 15.5419L7.65606 14.8454C8.53518 15.3219 9.52419 15.5419 10.5132 15.5419C13.8465 15.5419 16.5572 12.8294 16.5572 9.49381C16.5205 6.19488 13.8099 3.48242 10.4766 3.48242ZM10.4766 14.5155C9.59745 14.5155 8.71833 14.2956 7.98573 13.8191C7.91247 13.7824 7.80258 13.7458 7.72932 13.7458C7.69269 13.7458 7.61943 13.7458 7.5828 13.7824L5.93445 14.2223L6.52053 12.9394C6.59379 12.7561 6.59379 12.5728 6.4839 12.4262C5.86119 11.5831 5.53152 10.5568 5.53152 9.53047C5.53152 6.78135 7.76595 4.54541 10.5132 4.54541C13.2605 4.54541 15.4949 6.78135 15.4949 9.53047C15.4583 12.2796 13.2238 14.5155 10.4766 14.5155Z" fill="#60FC7C"/>
<path fill-rule="evenodd" clip-rule="evenodd" d="M12.8201 10.446C12.5637 10.2994 12.234 10.1161 11.941 10.2627C11.7212 10.3727 11.5747 10.7026 11.4282 10.8859C11.3549 10.9958 11.245 10.9958 11.1351 10.9592C10.2927 10.6293 9.63331 10.0428 9.15712 9.27306C9.08386 9.1631 9.08386 9.05313 9.19375 8.94317C9.34027 8.75989 9.52342 8.57662 9.56005 8.35669C9.59668 8.13676 9.48679 7.88018 9.41353 7.66025C9.30364 7.40366 9.15712 7.03712 8.90071 6.8905C8.68093 6.74388 8.35126 6.81719 8.13148 7.00046C7.76518 7.2937 7.58203 7.77021 7.58203 8.21007C7.58203 8.35669 7.58203 8.46665 7.61866 8.61327C7.69192 8.90651 7.83844 9.19975 7.98496 9.45633C8.09485 9.67626 8.24137 9.85954 8.38789 10.0428C8.86408 10.6659 9.41353 11.2158 10.0729 11.619C10.4025 11.8389 10.7688 11.9855 11.1351 12.1321C11.5381 12.2788 11.9044 12.4254 12.3439 12.3154C12.8201 12.2421 13.2597 11.9489 13.4428 11.4723C13.4795 11.3257 13.5161 11.1791 13.4795 11.0325C13.4428 10.7393 13.0399 10.5926 12.8201 10.446Z" fill="#60FC7C"/>
</svg>
