<svg id="XMLID_31_" xmlns="http://www.w3.org/2000/svg" viewBox="0 0 163.766 131.073">
  <defs>
    <style>
      .cls-1 {
        fill: #444;
      }
    </style>
  </defs>
  <g id="XMLID_32_" transform="translate(0)">
    <g id="XMLID_53_">
      <path id="XMLID_54_" class="cls-1" d="M265.016,515.052a65.536,65.536,0,1,1,65.536-65.536A65.6,65.6,0,0,1,265.016,515.052Zm0-125.362a59.826,59.826,0,1,0,59.825,59.826A59.885,59.885,0,0,0,265.016,389.691Z" transform="translate(-199.48 -383.98)"/>
    </g>
    <g id="XMLID_49_" transform="translate(20.259 20.259)">
      <path id="XMLID_50_" class="cls-1" d="M253.7,483.474A45.277,45.277,0,1,1,298.974,438.2,45.32,45.32,0,0,1,253.7,483.474Zm0-84.844A39.566,39.566,0,1,0,293.263,438.2,39.6,39.6,0,0,0,253.7,398.631Z" transform="translate(-208.42 -392.92)"/>
    </g>
    <g id="XMLID_45_" transform="translate(38.365 38.366)">
      <path id="XMLID_46_" class="cls-1" d="M243.581,455.252a27.171,27.171,0,1,1,27.171-27.171A27.205,27.205,0,0,1,243.581,455.252Zm0-48.608a21.46,21.46,0,1,0,21.437,21.46A21.47,21.47,0,0,0,243.581,406.643Z" transform="translate(-216.41 -400.91)"/>
    </g>
    <g id="XMLID_43_" transform="translate(62.681 62.681)">
      <path id="XMLID_44_" class="cls-1" d="M323.654,417.351H230a2.855,2.855,0,0,1,0-5.711h93.659a2.855,2.855,0,0,1,0,5.711Z" transform="translate(-227.14 -411.64)"/>
    </g>
    <g id="XMLID_38_" transform="translate(133.933 51.605)">
      <g id="XMLID_41_" transform="translate(0.023)">
        <path id="XMLID_42_" class="cls-1" d="M261.442,423.539a2.793,2.793,0,0,1-2.017-.839,2.886,2.886,0,0,1,0-4.056l11.059-11.059a2.86,2.86,0,0,1,4.034,4.056L263.459,422.7A2.831,2.831,0,0,1,261.442,423.539Z" transform="translate(-258.592 -406.753)"/>
      </g>
      <g id="XMLID_39_" transform="translate(0 11.059)">
        <path id="XMLID_40_" class="cls-1" d="M272.627,428.555a2.793,2.793,0,0,1-2.017-.838l-11.195-11.195a2.86,2.86,0,1,1,4.034-4.056l11.195,11.195a2.886,2.886,0,0,1,0,4.056A2.757,2.757,0,0,1,272.627,428.555Z" transform="translate(-258.583 -411.633)"/>
      </g>
    </g>
    <g id="XMLID_33_" transform="translate(146.873 51.605)">
      <g id="XMLID_36_">
        <path id="XMLID_37_" class="cls-1" d="M267.142,423.539a2.793,2.793,0,0,1-2.017-.839,2.886,2.886,0,0,1,0-4.056l11.059-11.059a2.86,2.86,0,0,1,4.034,4.056L269.159,422.7A2.793,2.793,0,0,1,267.142,423.539Z" transform="translate(-264.292 -406.753)"/>
      </g>
      <g id="XMLID_34_" transform="translate(0 11.059)">
        <path id="XMLID_35_" class="cls-1" d="M278.337,428.555a2.794,2.794,0,0,1-2.017-.838l-11.195-11.195a2.86,2.86,0,1,1,4.034-4.056l11.195,11.195a2.886,2.886,0,0,1,0,4.056A2.831,2.831,0,0,1,278.337,428.555Z" transform="translate(-264.292 -411.633)"/>
      </g>
    </g>
  </g>
</svg>
