<svg id="Group_3" data-name="Group 3" xmlns="http://www.w3.org/2000/svg" viewBox="0 0 159.633 159.652">
  <defs>
    <style>
      .cls-1 {
        fill: #444;
      }
    </style>
  </defs>
  <g id="Group_2" data-name="Group 2">
    <path id="Path_1" data-name="Path 1" class="cls-1" d="M79.817,159.652a79.826,79.826,0,1,1,79.817-79.835A79.905,79.905,0,0,1,79.817,159.652Zm0-154.064a74.229,74.229,0,1,0,74.229,74.229A74.321,74.321,0,0,0,79.817,5.588Z"/>
  </g>
  <g id="XMLID_2_" transform="translate(26.262 27.771)">
    <g id="XMLID_3_">
      <path id="XMLID_4_" class="cls-1" d="M59.942,120.917a11.246,11.246,0,0,1-3.2-8.1L57.26,80.85,25.3,80.329a11.383,11.383,0,0,1,.373-22.762l31.983.522.522-31.983a11.383,11.383,0,1,1,22.762.373l-.522,31.983,31.964.522A11.383,11.383,0,1,1,112,81.745L80.04,81.223l-.522,31.983a11.382,11.382,0,0,1-19.577,7.712Zm2.1-44.686-.615,36.677a6.679,6.679,0,1,0,13.356.2L75.4,76.436l36.677.615a6.688,6.688,0,0,0,.224-13.374l-36.677-.6L76.241,26.4a6.706,6.706,0,0,0-6.575-6.8,6.678,6.678,0,0,0-6.78,6.575l-.6,36.677-36.677-.615a6.679,6.679,0,1,0-.2,13.356Z" transform="translate(-14.099 -14.909)"/>
    </g>
  </g>
  <path id="XMLID_1_" class="cls-1" d="M65.784,82.991a3.272,3.272,0,0,1-.913-2.291l.149-9.034-9.034-.149a3.148,3.148,0,0,1-2.254-.987,3.272,3.272,0,0,1-.913-2.291,3.148,3.148,0,0,1,.987-2.254,3.272,3.272,0,0,1,2.291-.913l9.034.149.149-9.034a3.148,3.148,0,0,1,.987-2.254,3.272,3.272,0,0,1,2.291-.913A3.236,3.236,0,0,1,71.726,56.3l-.149,9.034,9.034.149a3.223,3.223,0,0,1-.112,6.445l-9.034-.149-.149,9.034a3.148,3.148,0,0,1-.987,2.254,3.272,3.272,0,0,1-2.291.913A3.224,3.224,0,0,1,65.784,82.991Z" transform="translate(45.568 45.74)"/>
</svg>
