<svg id="XMLID_78_" xmlns="http://www.w3.org/2000/svg" viewBox="0 0 161.959 113.147">
  <defs>
    <style>
      .cls-1 {
        fill: #444;
      }
    </style>
  </defs>
  <g id="XMLID_79_">
    <path id="XMLID_80_" class="cls-1" d="M319.7,251.187a15.152,15.152,0,0,1-10.787-4.464l-48.767-48.767a15.255,15.255,0,0,1,21.573-21.573l38,38L391.6,142.5a15.264,15.264,0,0,1,21.573,0h0a15.264,15.264,0,0,1,0,21.573l-82.691,82.645A15.152,15.152,0,0,1,319.7,251.187Zm-48.767-73.536A9.518,9.518,0,0,0,264.2,193.9l48.767,48.767a9.519,9.519,0,0,0,13.461,0l82.645-82.645a9.519,9.519,0,0,0,0-13.461h0a9.519,9.519,0,0,0-13.461,0L319.7,222.476l-42.036-42.037A9.507,9.507,0,0,0,270.931,177.652Z" transform="translate(-255.68 -138.04)"/>
  </g>
</svg>
