<svg id="XMLID_1_" xmlns="http://www.w3.org/2000/svg" viewBox="0 0 130.619 130.596">
  <defs>
    <style>
      .cls-1 {
        fill: #444;
      }
    </style>
  </defs>
  <g id="XMLID_27_">
    <path id="XMLID_28_" class="cls-1" d="M597.93,130.6a65.3,65.3,0,1,1,65.31-65.287A65.388,65.388,0,0,1,597.93,130.6Zm0-124.886a59.576,59.576,0,1,0,59.576,59.576A59.633,59.633,0,0,0,597.93,5.711Z" transform="translate(-532.62)"/>
  </g>
  <g id="XMLID_25_" transform="translate(20.644 0.157)">
    <path id="XMLID_26_" class="cls-1" d="M582.883,129.806a2.814,2.814,0,0,1-1.269-.295A72.007,72.007,0,0,1,582.135.366a2.863,2.863,0,1,1,2.515,5.144,66.269,66.269,0,0,0-.476,118.881,2.868,2.868,0,0,1,1.292,3.83A2.939,2.939,0,0,1,582.883,129.806Z" transform="translate(-541.73 -0.069)"/>
  </g>
  <g id="XMLID_23_" transform="translate(63.241 0.288)">
    <path id="XMLID_24_" class="cls-1" d="M563.615,129.733a2.879,2.879,0,0,1-2.561-1.586,2.848,2.848,0,0,1,1.292-3.83A66.276,66.276,0,0,0,562.12,5.55,2.858,2.858,0,1,1,564.658.428a72.005,72.005,0,0,1,.249,129.01A2.979,2.979,0,0,1,563.615,129.733Z" transform="translate(-560.527 -0.127)"/>
  </g>
  <g id="XMLID_21_" transform="translate(62.341 0.295)">
    <path id="XMLID_22_" class="cls-1" d="M562.986,130.273a2.858,2.858,0,0,1-2.855-2.855V2.985a2.855,2.855,0,0,1,5.711,0V127.418A2.873,2.873,0,0,1,562.986,130.273Z" transform="translate(-560.13 -0.13)"/>
  </g>
  <g id="XMLID_2_" transform="translate(1.926 25.698)">
    <g id="XMLID_19_" transform="translate(0 49.016)">
      <path id="XMLID_20_" class="cls-1" d="M657.381,38.681H536.325a2.855,2.855,0,0,1,0-5.711H657.381a2.855,2.855,0,1,1,0,5.711Z" transform="translate(-533.47 -32.97)"/>
    </g>
    <g id="XMLID_17_" transform="translate(0 24.497)">
      <path id="XMLID_18_" class="cls-1" d="M657.381,27.861H536.325a2.855,2.855,0,0,1,0-5.711H657.381a2.855,2.855,0,1,1,0,5.711Z" transform="translate(-533.47 -22.15)"/>
    </g>
    <g id="XMLID_5_" transform="translate(10.651)">
      <path id="XMLID_9_" class="cls-1" d="M641.346,17.051H541.025a2.855,2.855,0,0,1,0-5.711H641.346a2.855,2.855,0,1,1,0,5.711Z" transform="translate(-538.17 -11.34)"/>
    </g>
    <g id="XMLID_3_" transform="translate(11.716 73.513)">
      <path id="XMLID_4_" class="cls-1" d="M640.751,49.491H541.5a2.855,2.855,0,1,1,0-5.711h99.256a2.855,2.855,0,1,1,0,5.711Z" transform="translate(-538.64 -43.78)"/>
    </g>
  </g>
</svg>
