<svg id="XMLID_57_" xmlns="http://www.w3.org/2000/svg" viewBox="0 0 104.196 136.538">
  <defs>
    <style>
      .cls-1 {
        fill: #444;
      }
    </style>
  </defs>
  <g id="XMLID_58_">
    <g id="XMLID_74_">
      <path id="XMLID_75_" class="cls-1" d="M66.125,348.95c-2.923,0-5.8-1.813-8.385-3.444-1.972-1.246-4.215-2.674-5.643-2.674-1.4,0-3.648,1.428-5.643,2.674-3.2,2.017-6.821,4.306-10.469,3.127-3.784-1.224-5.393-5.3-6.8-8.906-.838-2.107-1.768-4.487-2.81-5.257-1.065-.77-3.648-.952-5.937-1.088-3.83-.249-8.181-.521-10.492-3.694-2.289-3.15-1.224-7.342-.272-11.036.567-2.243,1.224-4.781.793-6.073-.385-1.178-2.334-2.787-4.056-4.192C3.4,305.916,0,303.106,0,299.073s3.4-6.844,6.413-9.336c1.722-1.428,3.671-3.037,4.056-4.192.431-1.292-.227-3.83-.793-6.073-.952-3.694-2.017-7.886.272-11.036,2.311-3.173,6.662-3.444,10.492-3.694,2.289-.136,4.872-.317,5.937-1.088,1.042-.748,1.972-3.15,2.81-5.257,1.428-3.6,3.037-7.682,6.8-8.906,3.648-1.178,7.274,1.11,10.469,3.127,1.972,1.246,4.238,2.674,5.643,2.674s3.648-1.428,5.643-2.674c3.2-2.017,6.821-4.306,10.469-3.127,3.784,1.224,5.393,5.3,6.8,8.906.838,2.108,1.768,4.487,2.81,5.257,1.065.77,3.648.952,5.937,1.088,3.83.249,8.181.521,10.492,3.694,2.289,3.15,1.224,7.342.272,11.036-.567,2.243-1.224,4.781-.793,6.073.385,1.178,2.334,2.787,4.056,4.192,3.014,2.493,6.413,5.3,6.413,9.314,0,4.034-3.4,6.844-6.413,9.336-1.722,1.428-3.671,3.037-4.056,4.192-.431,1.292.227,3.83.793,6.073.952,3.694,2.017,7.886-.272,11.036-2.311,3.173-6.64,3.445-10.492,3.694-2.289.136-4.872.317-5.937,1.088-1.042.748-1.972,3.15-2.81,5.257-1.428,3.6-3.037,7.682-6.8,8.906A6.658,6.658,0,0,1,66.125,348.95ZM38.116,254.906a1.371,1.371,0,0,0-.34.045c-1.2.385-2.334,3.263-3.263,5.575-1.178,2.969-2.379,6.051-4.759,7.773-2.4,1.745-5.733,1.972-8.951,2.175-2.311.159-5.507.363-6.232,1.36-.7.974.068,4.034.635,6.255.793,3.127,1.632,6.368.7,9.246-.906,2.765-3.422,4.827-5.847,6.844-1.926,1.586-4.328,3.58-4.328,4.918s2.4,3.309,4.328,4.918c2.425,2.017,4.963,4.079,5.847,6.844.929,2.855.113,6.1-.7,9.246-.567,2.243-1.337,5.3-.635,6.255.725,1,3.9,1.2,6.232,1.36,3.218.2,6.526.408,8.951,2.175,2.379,1.745,3.6,4.8,4.759,7.773.906,2.311,2.04,5.167,3.263,5.575,1.088.363,3.716-1.314,5.643-2.515,2.765-1.745,5.62-3.558,8.7-3.558,3.059,0,5.937,1.813,8.7,3.558,1.926,1.224,4.555,2.878,5.643,2.515,1.2-.385,2.334-3.263,3.263-5.575,1.178-2.969,2.379-6.028,4.759-7.773,2.4-1.745,5.733-1.972,8.951-2.175,2.311-.159,5.507-.363,6.232-1.36.7-.974-.068-4.034-.635-6.255-.793-3.127-1.632-6.368-.7-9.246.906-2.765,3.422-4.827,5.847-6.844,1.926-1.586,4.328-3.58,4.328-4.918s-2.4-3.309-4.328-4.918c-2.425-2.017-4.963-4.079-5.847-6.844-.929-2.855-.113-6.1.7-9.246.567-2.243,1.337-5.3.635-6.255-.725-1-3.9-1.2-6.232-1.36-3.218-.2-6.526-.408-8.951-2.175-2.379-1.745-3.6-4.8-4.759-7.773-.906-2.311-2.04-5.167-3.263-5.575-1.088-.363-3.716,1.314-5.643,2.515-2.765,1.745-5.62,3.558-8.7,3.558-3.059,0-5.937-1.813-8.7-3.558C41.651,256.379,39.34,254.906,38.116,254.906Z" transform="translate(0 -249.168)"/>
    </g>
    <g id="XMLID_70_" transform="translate(19.806 17.635)">
      <path id="XMLID_71_" class="cls-1" d="M41.032,321.534a32.292,32.292,0,1,1,32.292-32.292A32.321,32.321,0,0,1,41.032,321.534Zm0-58.9A26.582,26.582,0,1,0,67.614,289.22,26.606,26.606,0,0,0,41.032,262.638Z" transform="translate(-8.74 -256.95)"/>
    </g>
    <g id="XMLID_63_" transform="translate(5.314 79.415)">
      <g id="XMLID_67_">
        <g id="XMLID_68_">
          <path id="XMLID_69_" class="cls-1" d="M30.955,341.336a2.909,2.909,0,0,1-2.606-1.654l-6.844-14.775L6.164,330.413a2.859,2.859,0,0,1-3.037-.725,2.9,2.9,0,0,1-.567-3.082l16.973-40.632a2.86,2.86,0,0,1,5.28,2.2l-14.48,34.649,11.693-4.192a2.836,2.836,0,0,1,3.558,1.5L30.8,331.388l15.047-35.963a2.86,2.86,0,0,1,5.28,2.2l-17.54,41.946A2.813,2.813,0,0,1,31,341.313C31,341.336,30.978,341.336,30.955,341.336Z" transform="translate(-2.345 -284.212)"/>
        </g>
      </g>
      <g id="XMLID_64_" transform="translate(44.566 0.02)">
        <g id="XMLID_65_">
          <path id="XMLID_66_" class="cls-1" d="M42.4,341.325h-.045a2.848,2.848,0,0,1-2.583-1.745l-17.54-41.946a2.86,2.86,0,0,1,5.28-2.2L42.563,331.4l5.212-11.263a2.867,2.867,0,0,1,3.558-1.5l11.693,4.192-14.48-34.649a2.86,2.86,0,1,1,5.28-2.2L70.8,326.618a2.915,2.915,0,0,1-.567,3.082,2.859,2.859,0,0,1-3.037.725l-15.342-5.507L45.01,339.693A2.928,2.928,0,0,1,42.4,341.325Z" transform="translate(-22.011 -284.221)"/>
        </g>
      </g>
    </g>
    <g id="XMLID_59_" transform="translate(32.537 29.509)">
      <path id="XMLID_60_" class="cls-1" d="M44.23,299.626a2.848,2.848,0,0,1-1.677-.544l-8.634-6.277-8.634,6.277a2.858,2.858,0,0,1-4.4-3.2l3.286-10.152-8.634-6.277a2.854,2.854,0,0,1,1.677-5.167H27.891l3.286-10.13a2.861,2.861,0,0,1,5.439,0l3.286,10.13H50.575a2.854,2.854,0,0,1,1.677,5.167l-8.634,6.277L46.9,295.887a2.861,2.861,0,0,1-1.042,3.2A2.621,2.621,0,0,1,44.23,299.626ZM33.919,286.438a2.848,2.848,0,0,1,1.677.544l3.2,2.311-1.224-3.739a2.861,2.861,0,0,1,1.042-3.2l3.2-2.311H37.862a2.85,2.85,0,0,1-2.719-1.971l-1.224-3.739L32.7,278.076a2.85,2.85,0,0,1-2.719,1.971H26.033l3.2,2.311a2.861,2.861,0,0,1,1.042,3.2l-1.224,3.739,3.2-2.311A2.848,2.848,0,0,1,33.919,286.438Z" transform="translate(-14.358 -262.19)"/>
    </g>
  </g>
</svg>
