<svg width="20" height="21" viewBox="0 0 20 21" fill="none" xmlns="http://www.w3.org/2000/svg">
<path d="M10 20.0135C4.5055 20.0135 0 15.5416 0 10.0068C0 4.50854 4.46886 0 10 0C15.4945 0 20 4.47189 20 10.0068C20 15.505 15.5311 20.0135 10 20.0135ZM10 1.06299C5.09158 1.06299 1.06227 5.05836 1.06227 10.0068C1.06227 14.9185 5.05495 18.9505 10 18.9505C14.9084 18.9505 18.9377 14.9552 18.9377 10.0068C18.9377 5.05836 14.9451 1.06299 10 1.06299Z" fill="#FF0000"/>
<path d="M16.0078 8.46818C16.0078 7.03864 14.8722 5.90234 13.4437 5.90234H6.77699C5.34842 5.90234 4.21289 7.03864 4.21289 8.46818V11.6205C4.21289 13.05 5.34842 14.1863 6.77699 14.1863H13.4437C14.8722 14.1863 16.0078 13.05 16.0078 11.6205V8.46818ZM11.7953 10.191L9.12132 11.6571C9.01143 11.7305 8.90154 11.6205 8.90154 11.5105V8.50484C8.90154 8.35822 9.01143 8.28491 9.12132 8.35822L11.7953 9.89772C11.9418 9.97103 11.9052 10.1543 11.7953 10.191Z" fill="#FF0000"/>
</svg>
